{"glyphs":{"0":{"ha":844,"x_min":35,"x_max":810,"o":"m 424 1033 q 590 996 518 1033 q 702 903 661 958 q 768 772 743 847 q 801 634 793 697 q 810 507 810 571 q 801 374 810 439 q 767 236 793 310 q 701 108 742 163 q 590 17 661 53 q 426 -19 518 -19 q 256 17 329 -19 q 142 108 183 54 q 76 238 101 163 q 42 376 50 313 q 35 508 35 440 q 42 632 35 571 q 75 769 50 693 q 140 901 100 844 q 253 995 181 957 q 424 1033 326 1033 m 421 228 q 564 500 564 228 l 564 508 q 422 788 564 788 q 281 507 281 788 q 421 228 281 228 z "},"1":{"ha":565,"x_min":21,"x_max":510,"o":"m 388 1019 q 447 1013 424 1019 q 483 997 471 1006 q 502 967 496 988 q 509 934 508 947 q 510 893 510 921 l 510 119 q 508 72 510 88 q 494 35 506 56 q 457 6 483 14 q 386 -3 431 -3 q 317 6 343 -3 q 279 34 290 14 q 266 72 268 54 q 264 122 264 89 l 264 618 l 246 601 q 151 558 189 558 q 71 600 108 558 q 21 694 21 656 q 71 775 21 731 l 299 981 l 303 983 q 388 1019 339 1019 z "},"2":{"ha":846,"x_min":35,"x_max":825,"o":"m 703 244 q 753 242 736 244 q 789 228 769 239 q 817 191 808 218 q 825 119 825 164 q 816 50 825 76 q 787 13 807 24 q 749 0 767 3 q 700 -3 732 -3 l 157 -3 q 71 35 107 -3 q 35 122 35 72 q 87 260 35 197 q 213 369 139 324 q 360 458 286 414 q 485 557 433 501 q 538 675 538 613 q 536 687 538 679 q 526 714 535 694 q 506 748 518 733 q 469 775 494 763 q 411 788 444 788 q 323 755 356 788 q 286 690 290 722 l 281 658 l 281 650 q 278 604 281 619 q 265 570 276 589 q 228 544 254 551 q 157 536 201 536 q 97 543 121 536 q 61 560 74 550 q 42 588 49 569 q 35 620 36 607 q 35 660 35 633 q 138 919 35 804 q 410 1033 242 1033 q 681 917 576 1033 q 785 653 785 801 q 750 503 785 574 q 666 388 715 432 q 567 312 617 344 q 483 265 518 279 l 449 251 l 449 244 l 703 244 z "},"3":{"ha":844,"x_min":35,"x_max":810,"o":"m 810 324 q 699 78 810 175 q 419 -18 588 -18 q 301 -4 356 -18 q 209 31 246 10 q 142 79 172 53 q 96 131 113 106 q 68 178 79 157 q 53 214 57 200 l 50 228 q 35 303 35 274 q 171 383 35 383 q 244 369 226 383 q 279 314 263 356 l 282 307 q 285 298 283 304 q 298 277 288 292 q 322 251 308 263 q 363 231 336 240 q 421 222 389 222 q 529 252 494 222 q 564 321 564 282 q 530 385 564 357 q 435 414 496 414 q 386 417 403 414 q 349 430 369 419 q 321 467 329 440 q 313 538 313 493 q 319 597 313 574 q 336 633 326 621 q 365 652 346 646 q 397 659 383 658 q 436 660 410 660 q 542 714 542 660 q 514 769 542 743 q 432 796 486 796 q 358 779 388 796 q 322 746 329 763 l 314 729 q 222 660 282 660 q 146 685 188 660 q 76 778 76 725 q 100 853 76 806 q 108 872 103 860 q 139 916 114 885 q 197 971 164 947 q 288 1014 229 994 q 419 1033 347 1033 q 689 936 590 1033 q 788 719 788 839 q 776 649 788 682 q 749 598 765 617 q 717 566 733 579 q 690 547 701 553 l 679 542 l 679 532 q 693 524 685 529 q 724 499 701 518 q 765 457 747 479 q 796 399 782 435 q 810 324 810 363 z "},"4":{"ha":822,"x_min":21,"x_max":767,"o":"m 644 1019 q 714 1010 688 1019 q 751 981 740 1001 q 765 944 763 961 q 767 896 767 928 l 767 124 q 764 75 767 92 q 751 38 761 58 q 713 10 740 18 q 642 1 686 1 q 582 8 606 1 q 546 25 558 15 q 527 53 533 35 q 520 85 521 72 q 519 125 519 99 l 519 294 l 143 294 q 83 301 107 294 q 47 318 60 308 q 28 347 35 328 q 22 378 22 365 q 21 418 21 392 q 25 463 21 444 l 140 928 q 155 976 149 960 q 180 1008 161 993 q 229 1024 199 1024 q 292 1014 257 1024 q 389 925 389 988 q 379 867 389 903 l 378 865 q 378 863 378 864 l 293 524 l 519 524 l 519 903 q 522 950 519 935 q 535 985 524 965 q 573 1012 546 1004 q 644 1019 600 1019 z "},"5":{"ha":736,"x_min":21,"x_max":701,"o":"m 701 338 q 601 84 701 188 q 353 -19 501 -19 q 254 -9 301 -19 q 176 16 207 1 q 120 46 144 31 q 85 72 96 61 l 74 82 q 21 163 21 128 q 72 256 21 203 q 156 301 114 301 q 246 257 192 301 q 343 228 271 228 q 424 254 394 228 q 454 328 454 281 q 422 401 454 374 q 349 428 389 428 q 281 403 306 428 q 206 371 243 371 q 115 399 167 371 q 53 440 68 424 q 38 475 38 456 q 40 500 38 481 q 93 897 75 765 q 94 911 93 903 q 104 940 96 919 q 124 978 113 961 q 160 1008 136 994 q 217 1021 185 1021 q 282 1020 218 1021 q 428 1019 346 1019 q 558 1019 511 1019 q 607 1017 592 1019 q 643 1004 622 1015 q 672 966 664 993 q 681 893 681 939 q 673 826 681 851 q 646 791 665 801 q 612 778 626 781 q 567 776 597 776 l 324 776 q 310 671 321 760 q 358 674 325 674 q 596 574 490 674 q 701 338 701 475 z "},"6":{"ha":778,"x_min":35,"x_max":743,"o":"m 743 311 q 642 76 743 171 q 399 -18 542 -18 q 126 98 218 -18 q 35 397 35 214 q 185 840 35 663 q 597 1018 336 1018 q 644 1015 629 1018 q 679 1002 660 1013 q 707 965 699 992 q 715 894 715 939 q 708 835 715 858 q 692 799 701 811 q 663 780 682 786 q 631 773 644 774 q 592 772 618 772 q 473 753 526 772 q 390 706 419 733 q 340 650 360 678 q 314 603 319 622 l 307 583 q 410 607 358 607 q 645 516 547 607 q 743 311 743 425 m 393 210 q 500 303 500 210 q 476 363 500 335 q 401 390 451 390 q 316 365 344 390 q 288 306 288 339 q 291 272 288 286 q 304 242 294 258 q 336 218 314 226 q 393 210 358 210 z "},"7":{"ha":779,"x_min":21,"x_max":758,"o":"m 636 1017 q 696 1010 672 1017 q 732 993 719 1003 q 751 965 744 983 q 758 933 757 946 q 758 893 758 919 q 722 748 758 831 q 635 585 686 665 q 534 422 585 504 q 447 255 483 340 q 411 103 411 169 q 408 58 411 72 q 394 27 406 43 q 358 6 383 11 q 288 0 332 0 q 217 6 243 0 q 181 28 192 11 q 167 59 169 44 q 165 106 165 74 q 196 291 165 196 q 269 461 226 386 q 356 599 313 536 q 429 708 399 663 q 460 771 460 753 l 143 771 q 94 774 111 771 q 58 788 78 776 q 29 825 38 799 q 21 894 21 851 q 29 964 21 938 q 56 1001 38 990 q 91 1014 75 1011 q 136 1017 107 1017 l 636 1017 z "},"8":{"ha":808,"x_min":35,"x_max":774,"o":"m 774 326 q 660 76 774 171 q 408 -19 547 -19 q 148 75 261 -19 q 35 326 35 169 q 63 440 35 385 q 119 519 92 494 l 149 546 q 125 568 139 554 q 88 628 111 582 q 65 725 65 675 q 168 950 65 861 q 408 1039 271 1039 q 643 949 543 1039 q 743 718 743 858 q 723 633 743 676 q 682 568 703 590 l 661 546 q 692 517 674 536 q 742 442 711 499 q 774 326 774 385 m 404 803 q 335 779 357 803 q 313 726 313 756 q 337 674 313 699 q 407 649 361 649 q 474 674 451 649 q 497 726 497 699 q 474 778 497 754 q 404 803 450 803 m 313 249 q 328 232 313 249 q 406 215 344 215 q 497 249 467 215 q 528 321 528 282 q 497 392 528 358 q 403 425 465 425 q 313 392 344 425 q 281 321 281 360 q 313 249 281 282 z "},"9":{"ha":778,"x_min":35,"x_max":743,"o":"m 35 706 q 135 940 35 846 q 378 1035 235 1035 q 651 919 560 1035 q 743 619 743 803 q 593 176 743 354 q 183 -1 443 -1 l 175 -1 q 130 1 146 -1 q 96 15 114 4 q 69 53 78 26 q 61 122 61 79 q 68 182 61 158 q 85 218 75 206 q 114 237 94 231 q 147 244 133 243 q 186 244 160 244 q 305 264 251 244 q 388 311 358 283 q 437 367 417 339 q 464 414 457 394 l 471 433 q 367 410 418 410 q 133 501 231 410 q 35 706 35 592 m 383 807 q 276 714 276 807 q 301 654 276 682 q 376 626 325 626 q 462 652 433 626 q 490 711 490 678 q 487 744 490 729 q 473 774 483 758 q 440 799 463 790 q 383 807 418 807 z "}," ":{"ha":351,"x_min":0,"x_max":0,"o":""},"!":{"ha":371,"x_min":56,"x_max":315,"o":"m 292 229 q 315 149 315 206 l 315 126 q 313 77 315 93 q 299 39 311 61 q 260 8 288 17 q 185 -1 232 -1 q 81 28 110 -1 q 56 131 56 53 q 58 179 56 163 q 72 217 61 196 q 112 249 83 239 q 186 258 140 258 q 292 229 261 258 m 256 374 q 242 370 256 374 q 185 367 229 367 q 114 374 140 367 q 77 399 88 381 q 65 431 67 417 q 63 474 63 444 l 63 914 q 65 958 63 943 q 78 990 67 972 q 115 1016 89 1008 q 186 1024 142 1024 q 257 1016 231 1024 q 294 990 283 1008 q 306 956 304 971 q 308 913 308 942 l 308 472 q 306 429 308 443 q 293 398 304 415 q 256 374 282 381 z "},"\"":{"ha":596,"x_min":35,"x_max":561,"o":"m 254 883 q 224 656 254 782 q 143 529 193 529 q 65 656 94 529 q 35 882 35 782 q 35 924 35 910 q 42 960 36 939 q 58 991 47 981 q 91 1010 69 1001 q 144 1018 113 1018 q 208 1008 183 1018 q 241 974 232 997 q 252 934 250 951 q 254 883 254 917 m 561 883 q 531 656 561 782 q 450 529 500 529 q 372 656 401 529 q 342 882 342 782 q 344 934 342 917 q 356 975 346 951 q 389 1008 365 999 q 453 1018 413 1018 q 515 1008 492 1018 q 548 974 539 997 q 559 934 557 951 q 561 883 561 917 z "},"#":{"ha":1040,"x_min":21,"x_max":1019,"o":"m 876 751 l 947 751 q 985 749 974 751 q 1008 735 997 747 q 1019 696 1019 722 q 1017 660 1019 674 q 993 596 1010 617 q 961 572 976 575 q 915 569 946 569 l 846 569 l 821 417 l 892 417 q 930 415 918 417 q 953 400 942 413 q 964 361 964 388 q 961 325 964 339 q 947 272 956 292 q 922 244 938 253 q 894 235 906 236 q 860 233 883 233 l 790 233 q 774 126 776 147 l 771 111 q 762 68 765 81 q 747 38 758 56 q 711 13 735 19 q 649 6 688 6 q 564 57 564 6 q 575 129 564 58 l 592 233 l 385 233 q 368 126 371 147 l 365 111 q 356 68 360 81 q 341 38 353 56 q 306 13 329 19 q 243 6 282 6 q 158 57 158 6 q 169 129 158 58 l 186 233 l 94 233 q 65 234 75 233 q 43 240 56 235 q 26 258 31 246 q 21 290 21 269 q 24 326 21 313 q 48 390 31 369 q 81 414 65 411 q 126 417 96 417 l 217 417 l 242 569 l 150 569 q 121 570 131 569 q 99 576 111 571 q 81 593 86 581 q 76 625 76 606 q 79 661 76 647 q 103 725 86 704 q 136 749 121 746 q 182 751 151 751 l 272 751 l 296 894 q 299 922 297 903 q 303 948 301 940 q 310 969 306 956 q 322 989 314 983 q 341 1002 329 994 q 371 1013 353 1010 q 413 1015 389 1015 q 484 1001 464 1015 q 504 957 504 986 q 497 908 504 953 l 494 892 l 471 751 l 678 751 l 701 894 q 705 922 703 903 q 709 948 707 940 q 715 969 711 956 q 727 989 719 983 q 747 1002 735 994 q 776 1013 758 1010 q 818 1015 794 1015 q 890 1001 869 1015 q 910 957 910 986 q 903 908 910 953 l 900 892 l 876 751 m 622 417 l 647 569 l 442 569 l 415 417 l 622 417 z "},"$":{"ha":660,"x_min":35,"x_max":625,"o":"m 625 338 q 563 164 625 229 q 411 78 500 99 l 411 -11 q 410 -51 411 -37 q 401 -82 408 -65 q 376 -106 393 -99 q 329 -112 358 -112 q 283 -106 300 -112 q 258 -81 265 -99 q 250 -51 251 -64 q 249 -10 249 -37 l 249 76 q 146 118 192 89 q 82 169 100 147 l 64 193 q 35 251 35 231 q 82 332 35 286 q 139 358 110 358 q 221 310 172 358 l 228 303 q 325 250 271 250 q 428 335 428 250 q 389 382 428 365 q 294 412 350 399 q 183 447 239 425 q 89 524 128 469 q 50 663 50 578 q 103 811 50 744 q 249 897 156 878 l 249 975 q 250 1016 249 1003 q 258 1046 251 1029 q 283 1069 265 1063 q 331 1076 301 1076 q 387 1060 368 1076 q 408 1026 406 1044 q 411 974 411 1008 l 411 896 q 482 872 450 888 q 526 847 514 857 l 539 836 l 544 832 q 579 781 579 800 q 551 717 579 758 q 475 661 514 661 q 418 683 450 661 q 406 694 415 686 q 388 708 396 703 q 361 719 379 714 q 318 724 343 724 q 268 706 292 724 q 244 661 244 689 q 273 609 244 628 q 343 584 301 590 q 435 563 385 578 q 526 529 485 549 q 597 460 568 510 q 625 338 625 411 z "},"%":{"ha":1164,"x_min":56,"x_max":1108,"o":"m 874 517 q 1049 447 989 517 q 1108 257 1108 378 q 1049 65 1108 132 q 875 -3 989 -3 q 705 67 769 -3 q 640 256 640 138 q 703 446 640 375 q 874 517 765 517 m 874 164 q 958 258 958 164 q 938 329 958 308 q 874 350 918 350 q 811 328 831 350 q 792 257 792 307 q 812 185 792 207 q 874 164 832 164 m 289 1022 q 463 953 403 1022 q 524 763 524 883 q 463 572 524 639 q 290 504 403 504 q 120 574 185 504 q 56 761 56 643 q 118 951 56 881 q 289 1022 181 1022 m 289 671 q 372 764 372 671 q 353 835 372 814 q 289 856 333 856 q 226 834 246 856 q 206 764 206 813 q 226 692 206 714 q 289 671 247 671 m 881 1075 q 921 1032 921 1053 q 911 1006 921 1022 l 374 -10 l 371 -14 q 338 -42 356 -42 q 296 -28 322 -42 q 256 14 256 -7 q 265 43 256 26 l 801 1057 q 839 1089 819 1089 q 881 1075 854 1089 z "},"&":{"ha":1039,"x_min":35,"x_max":1007,"o":"m 897 -1 q 658 61 776 -1 q 392 -11 526 -11 q 35 286 35 -11 q 194 572 35 440 q 139 796 139 696 q 222 1001 139 935 q 453 1068 306 1068 q 658 1001 586 1068 q 731 819 731 935 q 711 727 731 771 q 651 644 692 683 q 577 578 611 604 q 488 515 543 553 q 665 332 569 407 q 719 454 704 392 q 844 515 733 515 q 916 503 892 515 q 944 477 940 490 q 946 443 947 464 q 860 233 940 338 q 899 229 881 229 q 1007 119 1007 229 q 982 21 1007 43 q 897 -1 957 -1 m 358 813 q 382 700 358 763 q 480 769 447 742 q 513 822 513 797 q 444 883 513 883 q 358 813 358 883 m 401 194 q 464 200 436 194 q 311 372 383 272 q 279 289 279 332 q 401 194 279 194 z "},"'":{"ha":289,"x_min":35,"x_max":254,"o":"m 254 883 q 224 656 254 782 q 143 529 193 529 q 65 656 94 529 q 35 882 35 782 q 35 924 35 910 q 42 960 36 939 q 58 991 47 981 q 91 1010 69 1001 q 144 1018 113 1018 q 208 1008 183 1018 q 241 974 232 997 q 252 934 250 951 q 254 883 254 917 z "},"(":{"ha":533,"x_min":42,"x_max":513,"o":"m 424 -137 q 459 -139 447 -137 q 485 -149 471 -140 q 506 -176 500 -157 q 513 -228 513 -196 q 506 -278 513 -260 q 485 -305 500 -297 q 458 -315 469 -312 q 422 -317 446 -317 q 252 -251 328 -317 q 132 -80 176 -185 q 65 143 88 25 q 42 378 42 261 q 63 610 42 493 q 128 834 85 726 q 249 1009 172 942 q 424 1076 325 1076 q 459 1074 446 1076 q 486 1064 472 1072 q 506 1036 500 1056 q 513 986 513 1017 q 507 935 513 954 q 488 908 501 915 q 463 899 474 900 q 431 897 453 897 l 422 897 q 367 865 396 897 q 312 774 339 833 q 267 610 285 714 q 250 381 250 507 q 267 149 250 251 q 309 -15 283 46 q 365 -106 335 -75 q 424 -137 394 -137 z "},")":{"ha":533,"x_min":21,"x_max":492,"o":"m 110 -137 q 169 -106 139 -137 q 224 -15 199 -75 q 267 149 250 46 q 283 381 283 251 q 266 610 283 507 q 222 774 249 714 q 166 865 194 833 q 111 897 138 897 l 103 897 q 70 899 81 897 q 46 908 60 900 q 26 935 32 915 q 21 986 21 954 q 43 1060 21 1044 q 110 1076 65 1076 q 285 1009 208 1076 q 405 834 361 942 q 470 610 449 726 q 492 378 492 493 q 469 143 492 261 q 401 -80 446 25 q 281 -251 357 -185 q 111 -317 206 -317 q 76 -315 88 -317 q 49 -305 64 -312 q 27 -278 33 -297 q 21 -228 21 -260 q 27 -176 21 -196 q 48 -149 33 -157 q 74 -139 63 -140 q 110 -137 86 -137 z "},"*":{"ha":699,"x_min":21,"x_max":678,"o":"m 667 804 q 678 746 678 767 q 664 703 678 721 q 635 678 650 685 q 589 660 619 671 l 531 642 l 576 578 l 588 561 q 606 515 606 531 q 543 429 606 475 q 467 397 497 397 q 435 407 450 397 q 411 426 419 417 q 390 454 403 436 l 350 510 l 299 440 l 296 436 q 238 394 265 394 q 151 433 206 394 q 93 514 93 475 q 122 578 93 538 l 168 642 l 110 660 q 106 661 108 660 q 62 677 75 671 q 35 701 49 683 q 21 743 21 718 q 31 799 21 768 q 111 890 61 890 q 165 878 131 890 q 167 878 167 878 l 169 876 l 238 856 l 238 928 q 240 969 238 956 q 251 1001 242 983 q 285 1026 261 1019 q 350 1033 310 1033 q 415 1026 390 1033 q 449 1000 439 1018 q 460 967 458 982 q 463 921 463 951 l 463 856 l 531 878 q 589 892 575 892 q 667 804 638 892 z "},"+":{"ha":732,"x_min":35,"x_max":697,"o":"m 476 490 l 589 490 q 632 488 618 490 q 664 476 646 486 q 690 443 682 467 q 697 379 697 419 q 690 317 697 340 q 667 284 683 293 q 637 273 650 275 q 596 271 624 271 l 476 271 l 476 158 q 474 115 476 129 q 463 83 472 101 q 429 58 453 65 q 365 50 406 50 q 303 58 326 50 q 270 83 279 65 q 259 116 261 101 q 257 160 257 131 l 257 271 l 136 271 q 95 273 108 271 q 65 284 82 275 q 42 317 49 293 q 35 381 35 342 q 42 444 35 419 q 69 477 50 468 q 102 488 88 486 q 146 490 117 490 l 257 490 l 257 603 q 259 646 257 632 q 270 678 261 660 q 303 703 279 696 q 367 711 328 711 q 430 703 406 711 q 463 678 454 696 q 474 645 472 660 q 476 601 476 631 l 476 490 z "},",":{"ha":331,"x_min":35,"x_max":296,"o":"m 271 229 q 296 126 296 204 q 292 72 296 97 q 214 -133 279 -46 q 61 -221 149 -221 q 54 -219 58 -221 q 43 -205 50 -218 q 36 -169 36 -192 q 42 -132 36 -146 q 56 -117 49 -118 l 61 -114 q 78 -103 68 -111 q 107 -67 89 -96 q 128 0 125 -37 q 60 29 83 6 q 35 131 35 54 q 38 180 36 164 q 52 218 40 196 q 92 249 64 240 q 167 258 119 258 q 271 229 242 258 z "},"-":{"ha":601,"x_min":35,"x_max":567,"o":"m 465 193 l 135 193 q 99 195 111 193 q 68 206 86 197 q 42 240 50 215 q 35 304 35 265 q 43 367 35 343 q 69 399 51 390 q 99 410 86 408 q 136 413 113 413 l 467 413 q 503 410 490 413 q 533 399 515 408 q 559 366 551 390 q 567 303 567 342 q 559 240 567 264 q 535 206 551 215 q 505 195 518 197 q 465 193 492 193 z "},".":{"ha":329,"x_min":35,"x_max":294,"o":"m 271 229 q 294 132 294 206 l 294 126 q 292 77 294 93 q 278 39 290 61 q 239 8 267 17 q 164 -1 211 -1 q 60 28 89 -1 q 35 125 35 51 l 35 131 q 37 179 35 163 q 50 217 39 196 q 90 249 61 239 q 165 258 118 258 q 271 229 239 258 z "},"/":{"ha":731,"x_min":21,"x_max":710,"o":"m 244 -11 q 227 -46 233 -35 q 206 -67 221 -57 q 172 -78 192 -78 q 96 -56 144 -78 q 37 -20 53 -36 q 21 17 21 -4 q 38 85 21 35 l 485 1019 q 498 1045 493 1036 q 512 1065 503 1054 q 532 1081 521 1076 q 558 1086 543 1086 q 635 1064 586 1086 q 710 985 710 1028 q 690 915 710 967 l 244 -11 z "},":":{"ha":331,"x_min":35,"x_max":296,"o":"m 271 672 q 296 569 296 646 q 292 520 294 536 q 278 482 290 504 q 239 451 267 460 q 164 442 211 442 q 60 471 89 442 q 35 574 35 496 q 36 613 35 600 q 44 646 38 625 q 65 676 51 667 q 103 694 78 686 q 167 701 129 701 q 271 672 242 701 m 271 229 q 296 126 296 204 q 292 77 294 93 q 278 39 290 61 q 239 8 267 17 q 164 -1 211 -1 q 60 28 89 -1 q 35 131 35 53 q 36 169 35 157 q 44 203 38 182 q 65 233 51 224 q 103 251 78 243 q 167 258 129 258 q 271 229 242 258 z "},";":{"ha":329,"x_min":35,"x_max":294,"o":"m 271 672 q 294 575 294 647 l 294 569 q 292 520 294 536 q 278 482 290 504 q 239 451 267 460 q 164 442 211 442 q 60 471 89 442 q 35 568 35 494 l 35 574 q 37 622 35 606 q 50 660 39 639 q 90 692 61 682 q 165 701 118 701 q 271 672 239 701 m 271 229 q 294 132 294 206 l 294 126 q 292 72 294 89 q 214 -135 279 -47 q 61 -222 149 -222 q 54 -221 58 -222 q 43 -206 50 -219 q 36 -169 36 -193 q 42 -133 36 -146 q 56 -117 49 -119 l 61 -115 q 78 -105 68 -112 q 106 -67 88 -97 q 128 0 125 -37 q 60 28 82 6 q 35 125 35 51 l 35 131 q 37 179 35 163 q 50 217 39 196 q 90 249 61 239 q 165 258 118 258 q 271 229 239 258 z "},"<":{"ha":871,"x_min":21,"x_max":849,"o":"m 21 481 q 76 575 21 547 q 669 928 553 857 q 708 948 694 943 q 743 953 722 953 q 783 938 764 954 q 822 886 801 921 q 847 830 842 854 q 841 788 851 806 q 818 759 831 769 q 782 733 806 749 q 351 478 368 489 l 782 222 q 820 197 808 207 q 843 169 832 188 q 849 127 854 151 q 822 69 843 103 q 782 19 801 36 q 742 3 763 3 q 708 9 722 3 q 669 29 693 15 l 75 382 q 21 481 21 408 z "},"=":{"ha":664,"x_min":35,"x_max":629,"o":"m 532 353 l 131 353 q 96 355 107 353 q 68 365 85 357 q 44 397 51 374 q 36 458 36 421 q 44 517 36 494 q 68 549 51 540 q 97 559 85 557 q 132 561 108 561 l 533 561 q 569 559 557 561 q 597 549 581 557 q 622 517 614 540 q 629 457 629 494 q 622 397 629 419 q 599 365 615 374 q 570 354 582 356 q 532 353 558 353 m 532 58 l 131 58 q 95 60 107 58 q 67 71 83 63 q 42 103 50 79 q 35 164 35 126 q 42 223 35 200 q 67 254 50 246 q 97 265 85 263 q 132 267 108 267 l 533 267 q 567 265 556 267 q 596 254 579 263 q 620 223 613 246 q 628 163 628 200 q 621 102 628 125 q 597 70 614 79 q 569 60 581 61 q 532 58 557 58 z "},">":{"ha":871,"x_min":22,"x_max":850,"o":"m 850 481 q 796 382 850 408 l 203 29 q 164 8 179 14 q 128 3 149 3 q 89 19 108 3 q 49 69 69 36 q 22 127 28 103 q 28 169 17 151 q 51 197 39 188 q 89 222 63 207 l 521 478 l 90 733 q 53 759 65 749 q 30 788 40 769 q 24 830 19 806 q 49 886 29 854 q 88 938 69 921 q 128 953 107 954 q 163 948 149 953 q 201 928 176 943 l 794 575 q 850 481 850 547 z "},"?":{"ha":711,"x_min":21,"x_max":676,"o":"m 343 1043 q 583 949 490 1043 q 676 729 676 854 q 655 619 676 669 q 603 539 633 568 q 541 490 572 510 q 489 461 510 469 l 467 454 q 465 418 467 431 q 452 391 463 406 q 417 370 442 376 q 353 364 393 364 q 288 371 313 364 q 254 394 264 378 q 242 424 244 411 q 240 465 240 438 q 241 470 240 467 q 242 476 242 474 q 276 571 242 536 q 350 617 310 606 q 424 654 390 628 q 458 724 458 681 q 433 796 458 771 q 343 821 407 821 q 280 805 304 821 q 250 772 256 789 l 246 756 q 217 701 233 719 q 169 682 200 682 q 114 694 147 682 q 41 735 61 715 q 21 778 21 754 q 32 826 21 790 l 35 833 q 43 856 38 842 q 73 907 49 871 q 128 970 97 943 q 217 1020 160 997 q 343 1043 274 1043 m 350 258 q 454 229 425 258 q 479 126 479 204 q 476 77 479 94 q 463 38 474 60 q 423 8 451 17 q 349 -1 394 -1 q 243 28 275 -1 q 219 108 219 51 l 219 131 q 222 179 219 163 q 235 217 224 196 q 274 249 246 239 q 350 258 303 258 z "},"@":{"ha":1261,"x_min":35,"x_max":1226,"o":"m 1226 368 q 1193 180 1226 264 q 1106 46 1160 96 q 990 -31 1053 -4 q 864 -57 928 -57 q 711 -1 772 -57 q 650 150 650 54 q 653 183 650 161 q 529 133 607 133 q 383 202 446 133 q 319 368 319 271 q 321 400 319 389 q 418 583 333 504 q 593 663 503 663 q 707 607 674 663 q 734 649 714 635 q 801 664 754 664 q 865 649 847 664 q 882 608 882 635 q 879 575 882 597 l 832 219 q 822 146 822 163 q 833 123 822 129 q 869 117 843 117 q 908 122 888 117 q 956 145 929 128 q 1004 190 983 163 q 1040 268 1025 218 q 1054 383 1054 318 q 1018 553 1054 479 q 919 669 982 626 q 780 734 856 713 q 617 756 704 756 q 320 653 432 756 q 208 383 208 551 q 295 97 208 201 q 564 -7 382 -7 l 590 -7 q 637 -23 624 -7 q 650 -94 650 -39 q 644 -144 650 -125 q 623 -170 638 -162 q 597 -179 608 -178 q 563 -181 586 -181 q 176 -30 318 -181 q 35 375 35 121 q 115 673 35 544 q 324 865 196 801 q 607 928 453 928 q 845 894 735 928 q 1042 792 956 860 q 1177 616 1128 725 q 1226 368 1226 507 m 576 310 q 642 337 614 310 q 675 397 671 364 l 675 406 q 655 462 675 438 q 597 486 635 486 q 529 459 557 486 q 497 397 501 432 l 497 388 q 519 333 497 356 q 576 310 542 310 z "},"A":{"ha":1063,"x_min":21,"x_max":1042,"o":"m 643 946 l 1018 171 q 1042 100 1042 124 q 961 10 1042 50 q 882 -14 914 -14 q 842 -1 860 -14 q 817 25 825 11 q 796 67 810 39 l 724 217 l 339 217 l 267 67 q 245 26 253 39 q 220 1 238 14 q 181 -12 203 -12 q 101 11 149 -12 q 21 100 21 50 q 44 171 21 124 q 419 947 44 171 q 466 999 435 979 q 532 1018 497 1018 q 643 946 607 1018 m 531 613 l 439 422 l 624 422 l 531 613 z "},"B":{"ha":897,"x_min":56,"x_max":863,"o":"m 781 546 q 863 328 863 449 q 769 99 860 189 q 543 1 675 1 l 178 1 q 118 8 142 1 q 82 25 94 15 q 63 54 69 35 q 56 87 57 74 q 56 126 56 100 l 56 897 q 58 946 56 931 q 71 982 60 961 q 108 1011 82 1003 q 179 1019 135 1019 l 529 1019 q 743 931 657 1019 q 833 714 833 840 q 781 546 833 622 m 617 343 q 609 394 617 375 q 583 422 601 414 q 551 431 565 429 q 510 433 538 433 q 431 453 456 433 q 406 535 406 472 q 431 613 406 593 q 517 632 457 632 q 544 633 535 632 q 566 641 554 635 q 583 662 578 647 q 588 701 588 676 q 565 760 588 746 q 496 774 542 774 l 301 774 l 301 247 l 529 247 q 553 249 543 247 q 580 259 563 251 q 607 288 597 267 q 617 343 617 310 z "},"C":{"ha":943,"x_min":35,"x_max":908,"o":"m 708 279 l 717 285 q 783 313 764 313 q 876 235 826 313 q 907 156 907 186 q 888 108 907 128 q 832 67 869 89 q 797 44 819 58 q 703 8 774 31 q 561 -14 632 -14 q 433 3 500 -14 q 294 62 365 21 q 165 162 222 103 q 72 313 108 221 q 35 515 35 406 q 71 710 35 622 q 163 856 107 799 q 292 953 219 914 q 433 1010 364 993 q 565 1028 501 1028 q 698 1008 631 1028 q 800 967 765 988 l 833 947 q 872 922 858 932 q 897 893 885 911 q 908 854 908 875 q 879 779 908 819 q 782 704 825 704 q 711 735 757 704 q 556 782 653 782 q 467 766 513 782 q 378 719 421 750 q 308 633 336 689 q 281 508 281 578 q 308 382 281 438 q 379 295 336 326 q 468 249 422 264 q 556 233 514 233 q 637 244 599 233 q 692 267 675 256 l 708 279 z "},"D":{"ha":978,"x_min":56,"x_max":943,"o":"m 943 515 q 794 153 943 304 q 432 1 644 1 l 178 1 q 110 10 136 1 q 72 37 83 18 q 58 74 61 56 q 56 125 56 93 l 56 897 q 58 946 56 931 q 71 982 60 961 q 108 1011 82 1003 q 179 1019 135 1019 q 307 1019 221 1019 q 436 1018 393 1018 q 790 873 638 1018 q 943 515 943 728 m 697 510 q 619 697 697 621 q 435 772 540 772 l 301 772 l 301 247 l 436 247 q 617 322 536 247 q 697 510 697 396 z "},"E":{"ha":886,"x_min":56,"x_max":851,"o":"m 301 246 l 729 246 q 777 244 761 246 q 814 231 793 242 q 843 193 835 219 q 851 122 851 167 q 844 63 851 86 q 828 26 838 39 q 799 8 818 14 q 767 1 781 1 q 728 0 754 0 l 178 0 q 118 7 142 0 q 82 24 94 14 q 63 52 69 33 q 56 84 57 71 q 56 124 56 97 l 56 896 q 82 992 56 967 q 182 1018 108 1018 l 729 1018 q 777 1016 761 1018 q 814 1003 793 1014 q 843 965 835 992 q 851 894 851 939 q 844 835 851 858 q 828 799 838 811 q 799 780 818 786 q 767 773 781 774 q 728 772 754 772 l 301 772 l 301 632 l 576 632 q 624 630 608 632 q 661 617 640 628 q 690 579 682 606 q 699 508 699 553 q 692 449 699 472 q 675 413 685 425 q 646 394 665 400 q 613 387 626 388 q 574 386 600 386 l 301 386 l 301 246 z "},"F":{"ha":885,"x_min":56,"x_max":850,"o":"m 729 1018 q 777 1016 761 1018 q 813 1003 793 1014 q 842 965 833 992 q 850 894 850 939 q 842 824 850 850 q 813 787 833 797 q 776 774 792 776 q 726 772 760 772 l 301 772 l 301 632 l 575 632 q 624 630 608 632 q 660 617 640 628 q 689 578 681 606 q 697 507 697 551 q 690 447 697 471 q 674 411 683 424 q 645 392 664 399 q 613 385 626 386 q 574 385 600 385 l 301 385 l 301 122 q 299 74 301 89 q 286 38 297 58 q 249 8 275 17 q 178 0 222 0 q 118 7 142 0 q 82 24 94 14 q 63 52 69 33 q 56 84 57 71 q 56 124 56 97 l 56 896 q 82 992 56 967 q 182 1018 108 1018 l 729 1018 z "},"G":{"ha":992,"x_min":35,"x_max":936,"o":"m 586 614 l 831 614 q 891 603 868 613 q 923 576 914 594 q 934 542 932 557 q 936 497 936 528 l 936 192 q 897 107 936 147 q 811 42 858 67 q 547 -14 700 -14 q 188 142 340 -14 q 35 524 35 299 q 190 888 35 740 q 557 1036 346 1036 q 828 956 701 1036 q 867 928 854 938 q 892 901 881 918 q 904 864 904 883 q 872 788 904 832 q 774 714 818 714 q 700 746 747 714 q 550 790 631 790 q 363 716 444 790 q 281 521 281 642 q 364 317 281 401 q 553 233 447 233 q 690 258 629 233 l 690 410 l 581 410 q 542 412 554 410 q 516 423 531 414 q 496 453 501 432 q 490 513 490 475 q 497 571 490 549 q 519 601 503 593 q 548 612 536 610 q 586 614 560 614 z "},"H":{"ha":971,"x_min":56,"x_max":915,"o":"m 793 1018 q 853 1011 829 1018 q 889 994 876 1004 q 908 966 901 985 q 915 934 914 947 q 915 894 915 921 l 915 124 q 913 76 915 92 q 900 39 911 60 q 863 10 889 18 q 792 1 836 1 q 732 8 756 1 q 696 25 708 15 q 677 53 683 35 q 670 85 671 72 q 669 125 669 99 l 669 407 l 301 407 l 301 124 q 299 76 301 92 q 286 39 297 60 q 249 10 275 18 q 178 1 222 1 q 118 8 142 1 q 82 25 94 15 q 63 53 69 35 q 56 85 57 72 q 56 125 56 99 l 56 896 q 58 944 56 928 q 71 981 60 960 q 108 1010 82 1001 q 179 1018 135 1018 q 239 1011 215 1018 q 275 994 263 1004 q 294 966 288 985 q 301 934 300 947 q 301 894 301 921 l 301 611 l 669 611 l 669 896 q 672 944 669 928 q 685 981 674 960 q 722 1010 696 1001 q 793 1018 749 1018 z "},"I":{"ha":357,"x_min":56,"x_max":301,"o":"m 56 896 q 58 944 56 928 q 71 981 60 960 q 108 1010 82 1001 q 179 1018 135 1018 q 239 1011 215 1018 q 275 994 263 1004 q 294 966 288 985 q 301 934 300 947 q 301 894 301 921 l 301 122 q 299 74 301 89 q 286 38 297 58 q 249 8 275 17 q 178 0 222 0 q 118 7 142 0 q 82 24 94 14 q 63 52 69 33 q 56 84 57 71 q 56 124 56 97 l 56 896 z "},"J":{"ha":763,"x_min":21,"x_max":707,"o":"m 588 1018 q 655 1009 629 1018 q 691 979 681 1000 q 704 941 701 958 q 707 893 707 924 l 707 356 q 601 98 707 210 q 332 -14 496 -14 q 242 -2 286 -14 q 169 26 199 10 q 115 60 139 43 q 81 89 92 76 l 69 100 q 21 183 21 151 q 69 275 21 225 q 157 325 118 325 q 246 272 193 325 q 339 233 285 233 q 426 269 392 233 q 461 365 461 306 l 461 885 q 462 926 461 911 q 469 960 463 940 q 489 991 476 981 q 526 1010 501 1001 q 588 1018 551 1018 z "},"K":{"ha":888,"x_min":56,"x_max":839,"o":"m 492 511 q 793 204 704 307 q 839 122 839 153 q 781 31 839 82 q 692 -14 728 -14 q 607 44 657 -14 l 301 393 l 301 122 q 299 74 301 89 q 286 38 297 58 q 249 8 275 17 q 178 0 222 0 q 118 7 142 0 q 82 24 94 14 q 63 52 69 33 q 56 84 57 71 q 56 124 56 97 l 56 896 q 58 944 56 928 q 71 981 60 960 q 108 1010 82 1001 q 179 1018 135 1018 q 239 1011 215 1018 q 275 994 263 1004 q 294 966 288 985 q 301 934 300 947 q 301 894 301 921 l 301 629 q 607 978 490 842 q 692 1035 656 1035 q 781 990 728 1035 q 839 899 839 939 q 793 817 839 868 q 678 694 754 771 q 547 564 603 618 l 492 511 z "},"L":{"ha":815,"x_min":56,"x_max":781,"o":"m 301 206 l 679 206 q 720 203 707 206 q 750 193 733 201 q 774 163 767 185 q 781 103 781 140 q 774 44 781 67 q 749 13 767 22 q 718 2 732 4 q 678 0 704 0 l 178 0 q 118 7 142 0 q 82 24 94 14 q 63 52 69 33 q 56 84 57 71 q 56 124 56 97 l 56 896 q 58 944 56 928 q 71 981 60 960 q 108 1010 82 1001 q 179 1018 135 1018 q 239 1011 215 1018 q 275 994 263 1004 q 294 966 288 985 q 301 934 300 947 q 301 894 301 921 l 301 206 z "},"M":{"ha":1208,"x_min":56,"x_max":1153,"o":"m 1031 1017 q 1100 1008 1074 1017 q 1138 979 1126 1000 q 1151 942 1149 958 q 1153 893 1153 925 l 1153 122 q 1150 74 1153 90 q 1137 38 1147 58 q 1100 10 1126 18 q 1029 1 1074 1 q 969 8 993 1 q 933 25 946 15 q 915 53 921 35 q 908 85 908 72 q 907 125 907 99 l 907 590 q 806 453 872 547 q 707 319 739 360 q 696 303 703 313 q 662 278 689 294 q 603 263 635 263 q 547 277 572 263 q 510 306 521 292 l 499 321 q 389 469 471 356 q 300 590 307 582 l 300 122 q 298 74 300 90 q 285 38 296 58 q 247 10 274 18 q 176 1 221 1 q 108 10 133 1 q 71 38 82 18 q 58 75 60 58 q 56 125 56 92 l 56 896 q 58 944 56 928 q 71 980 60 960 q 108 1008 82 1000 q 179 1017 135 1017 q 244 1008 217 1017 q 279 989 271 999 l 288 981 l 603 567 q 918 979 839 879 q 1031 1017 942 1017 z "},"N":{"ha":1000,"x_min":56,"x_max":944,"o":"m 824 1017 q 883 1010 858 1017 q 919 993 907 1003 q 937 965 931 983 q 944 933 943 946 q 944 893 944 919 l 944 122 q 942 74 944 89 q 929 38 940 58 q 892 8 918 17 q 821 0 865 0 q 746 8 767 0 q 711 35 725 17 q 300 579 399 451 l 300 122 q 298 74 300 89 q 285 38 296 58 q 247 8 274 17 q 176 0 221 0 q 108 8 133 0 q 71 38 82 17 q 58 75 60 58 q 56 124 56 92 l 56 899 q 58 946 56 931 q 72 981 61 961 q 108 1008 82 1000 q 179 1017 135 1017 q 242 1009 218 1017 q 276 992 267 1001 q 301 964 286 983 l 308 956 q 700 429 601 557 l 700 899 q 703 946 700 931 q 716 981 706 961 q 753 1008 726 1000 q 824 1017 779 1017 z "},"O":{"ha":1076,"x_min":35,"x_max":1042,"o":"m 533 1031 q 890 882 739 1031 q 1042 506 1042 733 q 897 138 1042 293 q 546 -17 753 -17 q 183 136 331 -17 q 35 500 35 289 q 76 716 35 615 q 188 885 118 817 q 347 992 257 953 q 533 1031 438 1031 m 538 229 q 717 304 638 229 q 796 507 796 379 q 716 708 796 632 q 539 785 636 785 q 360 708 439 785 q 281 506 281 631 q 360 306 281 383 q 538 229 440 229 z "},"P":{"ha":878,"x_min":56,"x_max":843,"o":"m 807 813 q 825 776 807 813 q 843 649 843 739 q 807 485 843 558 q 715 369 771 413 q 596 303 658 326 q 475 281 533 281 l 301 281 l 301 124 q 299 76 301 92 q 286 39 297 60 q 249 10 275 18 q 178 1 222 1 q 118 8 142 1 q 82 25 94 15 q 63 53 69 35 q 56 85 57 72 q 56 125 56 99 l 56 896 q 58 944 56 928 q 71 981 60 960 q 108 1010 82 1001 q 179 1018 135 1018 l 476 1018 q 597 995 535 1018 q 715 929 658 972 q 807 813 771 886 m 599 650 q 558 741 599 710 q 475 772 518 772 l 301 772 l 301 526 l 476 526 q 558 557 518 526 q 599 650 599 588 z "},"Q":{"ha":1153,"x_min":35,"x_max":1132,"o":"m 1065 225 q 1099 201 1089 208 q 1121 176 1110 193 q 1132 142 1132 160 q 1096 54 1132 108 q 1006 -14 1049 -14 q 925 24 979 -14 q 886 50 918 28 q 836 83 854 72 q 546 -17 707 -17 q 183 136 331 -17 q 35 500 35 289 q 76 716 35 615 q 188 885 118 817 q 347 992 257 953 q 533 1031 438 1031 q 890 882 739 1031 q 1042 506 1042 733 q 990 276 1042 390 q 1065 225 1040 243 m 538 229 q 717 304 638 229 q 796 507 796 379 q 716 708 796 632 q 539 785 636 785 q 360 708 439 785 q 281 506 281 631 q 360 306 281 383 q 538 229 440 229 z "},"R":{"ha":876,"x_min":56,"x_max":856,"o":"m 835 172 q 856 100 856 122 q 769 11 856 47 q 694 -8 725 -8 q 653 5 671 -8 q 628 32 636 18 q 608 75 621 46 q 519 283 578 144 l 476 281 l 301 281 l 301 124 q 299 76 301 92 q 286 39 297 60 q 249 10 275 18 q 178 1 222 1 q 118 8 142 1 q 82 25 94 15 q 63 53 69 35 q 56 85 57 72 q 56 125 56 99 l 56 896 q 58 944 56 928 q 71 981 60 960 q 108 1010 82 1001 q 179 1018 135 1018 l 479 1018 q 599 995 538 1018 q 717 929 661 972 q 808 813 772 886 q 844 649 844 739 q 740 390 844 492 q 835 172 771 317 m 301 526 l 479 526 q 560 557 519 526 q 600 650 600 588 q 560 741 600 710 q 476 772 519 772 l 301 772 l 301 526 z "},"S":{"ha":810,"x_min":35,"x_max":775,"o":"m 71 143 q 35 217 35 188 q 94 317 35 258 q 164 350 129 350 q 269 288 207 350 l 276 281 q 293 263 282 274 q 336 233 304 251 q 399 214 368 214 q 528 319 528 214 q 492 373 528 351 q 404 404 457 394 q 290 435 351 414 q 176 486 229 457 q 88 578 124 515 q 53 731 53 642 q 144 944 53 853 q 392 1035 235 1035 q 544 1013 475 1035 q 639 969 613 992 l 667 949 l 674 943 q 717 876 717 903 q 683 799 717 847 q 586 729 636 729 q 514 757 557 729 q 498 771 510 760 q 476 788 486 782 q 444 801 467 794 q 390 807 421 807 q 327 785 357 807 q 297 729 297 764 q 333 664 297 688 q 421 632 368 640 q 536 606 474 624 q 651 564 599 589 q 740 477 704 539 q 775 324 775 415 q 739 166 775 235 q 645 60 703 97 q 526 4 588 22 q 404 -14 465 -14 q 281 2 339 -14 q 185 41 222 18 q 122 88 149 64 q 83 128 94 111 l 71 143 z "},"T":{"ha":1015,"x_min":21,"x_max":994,"o":"m 122 1019 l 894 1019 q 935 1017 922 1019 q 964 1007 947 1015 q 988 976 981 999 q 994 918 994 954 q 988 860 994 882 q 964 831 981 839 q 934 820 947 822 q 893 818 921 818 l 628 818 l 628 119 q 626 72 628 88 q 613 37 624 57 q 576 8 603 17 q 507 0 550 0 q 438 8 464 0 q 402 37 413 17 q 390 73 392 57 q 388 121 388 89 l 388 818 l 121 818 q 81 820 94 818 q 51 831 68 822 q 28 861 35 839 q 21 919 21 883 q 28 977 21 956 q 51 1007 35 999 q 81 1017 68 1015 q 122 1019 94 1019 z "},"U":{"ha":1008,"x_min":56,"x_max":953,"o":"m 831 1019 q 890 1013 867 1019 q 926 996 914 1006 q 945 967 939 986 q 952 934 951 947 q 953 894 953 921 l 953 475 q 923 300 953 386 q 838 142 893 214 q 696 27 783 71 q 501 -17 608 -17 q 309 28 396 -17 q 168 144 222 72 q 85 302 114 215 q 56 478 56 389 l 56 896 q 58 945 56 929 q 71 982 60 961 q 108 1011 82 1003 q 179 1019 135 1019 q 250 1011 224 1019 q 287 982 276 1003 q 300 944 297 961 q 303 894 303 928 l 303 478 q 313 397 303 436 q 344 317 322 357 q 407 254 365 278 q 506 231 449 231 q 657 306 607 231 q 707 479 707 381 l 707 904 q 710 951 707 935 q 724 985 713 967 q 761 1011 735 1003 q 831 1019 788 1019 z "},"V":{"ha":1088,"x_min":21,"x_max":1067,"o":"m 985 1003 q 1067 914 1067 963 q 1046 847 1067 892 l 663 69 q 616 20 647 39 q 551 1 585 1 l 538 1 q 472 20 503 1 q 425 69 440 39 l 42 847 q 21 914 21 892 q 103 1003 21 963 q 181 1026 149 1026 q 210 1021 197 1026 q 233 1001 222 1015 q 249 978 243 988 q 265 947 254 968 q 310 849 267 944 q 402 647 353 754 q 495 445 451 540 q 544 339 539 350 l 822 947 q 842 988 833 974 q 868 1015 851 1003 q 907 1026 885 1026 q 985 1003 939 1026 z "},"W":{"ha":1388,"x_min":21,"x_max":1367,"o":"m 1274 1013 q 1367 924 1367 979 q 1350 856 1367 906 l 1083 85 q 1074 61 1081 75 q 1037 24 1067 47 q 967 1 1007 1 q 895 24 925 1 q 856 69 865 47 l 847 93 l 693 549 l 539 93 q 535 83 538 89 q 524 61 533 76 q 501 33 514 46 q 467 11 489 21 q 419 1 446 1 q 352 22 381 1 q 314 64 324 43 l 304 85 l 36 856 q 21 924 21 901 q 114 1011 21 979 q 182 1025 154 1025 q 237 1003 219 1025 q 268 935 254 981 l 421 471 l 572 928 q 576 938 574 932 q 588 959 578 943 q 609 987 597 975 q 643 1008 621 999 q 690 1018 665 1018 q 767 995 736 1018 q 806 950 797 972 l 814 928 l 965 468 l 1118 935 q 1136 982 1129 967 q 1162 1012 1143 997 q 1207 1026 1181 1026 q 1274 1013 1236 1026 z "},"X":{"ha":1029,"x_min":21,"x_max":1008,"o":"m 682 515 l 961 208 q 1008 124 1008 156 q 954 35 1008 83 q 863 -14 901 -14 q 779 42 828 -14 l 515 344 l 251 42 q 168 -14 201 -14 q 76 35 131 -14 q 21 125 21 85 q 69 208 21 154 l 349 515 l 69 822 q 21 906 21 874 q 76 996 21 946 q 168 1044 129 1044 q 251 989 203 1044 l 515 686 l 779 989 q 863 1044 829 1044 q 954 996 900 1044 q 1008 906 1008 947 q 961 822 1008 872 l 682 515 z "},"Y":{"ha":953,"x_min":21,"x_max":932,"o":"m 864 999 q 932 907 932 951 q 900 833 932 881 l 600 385 l 600 119 q 598 72 600 88 q 585 35 596 56 q 547 6 574 14 q 476 -3 521 -3 q 406 6 432 -3 q 368 35 379 14 q 355 73 357 57 q 353 122 353 89 l 353 385 l 53 833 q 21 907 21 881 q 90 999 21 951 q 178 1033 143 1033 q 212 1022 196 1033 q 237 1000 228 1011 q 261 965 246 989 l 476 621 l 692 965 q 716 1000 707 989 q 741 1022 725 1011 q 776 1033 757 1033 q 864 999 808 1033 z "},"Z":{"ha":893,"x_min":35,"x_max":858,"o":"m 738 238 q 785 235 768 238 q 821 222 801 232 q 849 186 840 211 q 858 119 858 161 q 851 60 858 83 q 835 24 844 36 q 806 5 825 11 q 774 -2 788 -1 q 735 -3 761 -3 l 157 -3 q 96 14 125 -3 q 51 58 67 31 q 35 124 35 86 q 51 182 35 160 l 482 778 l 163 778 q 113 780 129 778 q 75 792 97 782 q 44 828 53 803 q 35 896 35 854 q 43 967 35 940 q 72 1004 51 993 q 109 1017 93 1015 q 158 1019 125 1019 l 717 1019 q 778 1003 749 1019 q 822 958 807 986 q 839 893 839 931 q 822 833 839 856 l 392 238 l 738 238 z "},"[":{"ha":483,"x_min":56,"x_max":463,"o":"m 281 -114 l 383 -114 q 415 -116 404 -114 q 438 -126 425 -118 q 457 -157 451 -135 q 463 -215 463 -179 q 457 -272 463 -250 q 438 -301 451 -293 q 413 -312 424 -310 q 382 -314 403 -314 l 168 -314 q 103 -306 128 -314 q 69 -277 79 -297 q 58 -241 60 -257 q 56 -193 56 -225 l 56 954 q 58 1001 56 986 q 69 1037 60 1017 q 104 1065 79 1057 q 169 1074 129 1074 l 383 1074 q 415 1072 404 1074 q 438 1061 425 1069 q 457 1031 451 1053 q 463 972 463 1008 q 457 916 463 938 q 438 886 451 894 q 413 876 424 878 q 382 874 403 874 l 281 874 l 281 -114 z "},"\\":{"ha":733,"x_min":21,"x_max":713,"o":"m 488 -11 l 40 922 l 39 924 q 39 926 39 925 q 21 982 21 963 q 99 1064 21 1026 q 175 1086 147 1086 q 201 1081 190 1086 q 222 1065 213 1076 q 235 1045 231 1054 q 249 1019 240 1036 l 693 92 q 713 21 713 40 q 696 -19 713 -3 q 638 -56 679 -36 q 561 -78 589 -78 q 518 -62 533 -78 q 488 -11 503 -46 z "},"]":{"ha":483,"x_min":21,"x_max":428,"o":"m 314 1074 q 379 1065 354 1074 q 414 1037 404 1057 q 426 1001 424 1017 q 428 954 428 986 l 428 -193 q 426 -241 428 -225 q 414 -277 424 -257 q 380 -306 404 -297 q 315 -314 356 -314 l 101 -314 q 70 -312 81 -314 q 46 -301 60 -310 q 26 -272 32 -293 q 21 -215 21 -250 q 26 -157 21 -179 q 45 -126 32 -135 q 69 -116 58 -118 q 100 -114 79 -114 l 203 -114 l 203 874 l 101 874 q 70 876 81 874 q 46 886 60 878 q 26 916 32 894 q 21 972 21 938 q 26 1031 21 1008 q 45 1061 32 1053 q 69 1072 58 1069 q 100 1074 79 1074 l 314 1074 z "},"^":{"ha":731,"x_min":60,"x_max":671,"o":"m 299 721 q 365 754 335 760 q 433 721 394 760 l 638 515 q 668 481 660 494 q 671 442 676 468 q 633 385 665 417 q 575 347 601 353 q 535 351 549 342 q 503 379 522 360 l 365 517 l 229 379 q 196 350 208 358 q 156 347 183 342 q 97 385 129 353 q 60 442 65 417 q 63 481 54 468 q 93 515 71 494 l 299 721 z "},"_":{"ha":1147,"x_min":21,"x_max":1126,"o":"m 106 -317 q 72 -315 83 -317 q 47 -305 61 -312 q 27 -276 33 -297 q 21 -221 21 -256 q 27 -165 21 -186 q 48 -137 33 -144 q 74 -127 63 -129 q 107 -125 85 -125 l 1042 -125 q 1075 -127 1064 -125 q 1100 -137 1086 -129 q 1120 -167 1114 -146 q 1126 -222 1126 -187 q 1120 -276 1126 -256 q 1099 -306 1114 -297 q 1074 -315 1085 -314 q 1040 -317 1063 -317 l 106 -317 z "},"`":{"ha":669,"x_min":135,"x_max":546,"o":"m 425 800 l 196 872 q 165 884 175 879 q 144 901 156 889 q 135 936 133 914 q 147 993 136 958 q 171 1048 158 1029 q 199 1071 183 1067 q 226 1074 215 1075 q 257 1065 236 1072 q 485 994 408 1018 q 515 983 506 988 q 535 965 525 978 q 545 929 546 951 q 533 872 544 907 q 513 826 524 843 q 494 800 503 808 q 472 792 486 792 q 451 793 457 792 q 425 800 444 794 z "},"a":{"ha":828,"x_min":35,"x_max":772,"o":"m 651 732 q 721 724 694 732 q 758 694 747 715 q 770 658 768 674 q 772 610 772 642 l 772 124 q 770 76 772 92 q 758 40 768 60 q 721 11 747 19 q 650 3 694 3 q 562 22 588 3 q 532 76 536 40 q 365 3 481 3 q 138 113 240 3 q 35 369 35 222 q 138 622 35 513 q 365 731 242 731 q 451 714 413 731 q 506 683 490 697 q 531 654 521 668 q 560 713 535 693 q 651 732 586 732 m 403 246 q 487 283 453 246 q 521 367 521 321 q 488 450 521 411 q 400 489 456 489 q 312 450 346 489 q 278 365 278 411 q 314 283 278 319 q 403 246 350 246 z "},"b":{"ha":822,"x_min":56,"x_max":788,"o":"m 457 731 q 684 621 581 731 q 788 369 788 511 q 685 112 788 221 q 457 3 582 3 q 296 69 346 3 q 176 1 285 1 q 107 10 133 1 q 70 39 81 18 q 58 76 60 60 q 56 124 56 92 l 56 953 q 58 1001 56 985 q 70 1037 60 1017 q 107 1065 81 1057 q 178 1074 133 1074 q 247 1065 221 1074 q 284 1036 274 1057 q 297 999 294 1015 q 299 951 299 983 l 299 663 q 457 731 354 731 m 335 282 q 352 263 335 282 q 421 244 369 244 q 508 282 472 244 q 544 365 544 319 q 511 449 544 411 q 422 488 478 488 q 334 449 367 488 q 301 365 301 410 q 335 282 301 319 z "},"c":{"ha":718,"x_min":35,"x_max":683,"o":"m 481 264 q 550 293 526 293 q 651 219 592 293 q 683 147 683 179 q 607 49 683 94 q 413 -7 528 -7 q 285 17 350 -7 q 164 86 221 42 q 71 205 107 131 q 35 369 35 279 q 71 531 35 458 q 163 649 107 604 q 284 717 219 693 q 410 740 349 740 q 513 726 463 740 q 586 697 563 711 l 608 683 q 647 657 633 667 q 672 630 660 647 q 683 592 683 613 q 654 514 683 558 q 558 438 604 438 q 483 468 532 438 q 410 492 458 492 q 325 458 365 492 q 285 367 285 425 q 324 274 285 307 q 407 242 363 242 q 447 247 429 242 q 472 258 465 253 l 481 264 z "},"d":{"ha":831,"x_min":42,"x_max":775,"o":"m 654 1074 q 724 1065 697 1074 q 760 1036 750 1057 q 773 999 771 1015 q 775 951 775 983 l 775 122 q 773 74 775 90 q 760 38 771 58 q 722 10 749 18 q 651 1 696 1 q 535 69 546 1 q 372 3 476 3 q 144 112 247 3 q 42 369 42 221 q 145 621 42 511 q 372 731 249 731 q 532 661 475 731 l 532 953 q 534 1001 532 985 q 547 1037 536 1017 q 583 1065 557 1057 q 654 1074 610 1074 m 321 282 q 339 263 321 282 q 408 244 357 244 q 494 282 460 244 q 528 365 528 319 q 495 449 528 410 q 407 488 463 488 q 318 449 351 488 q 285 365 285 411 q 321 282 285 319 z "},"e":{"ha":796,"x_min":35,"x_max":761,"o":"m 761 460 q 719 327 761 368 q 625 286 676 286 l 296 286 q 342 221 296 247 q 440 194 388 194 q 511 200 478 194 q 560 211 544 206 l 575 217 q 631 232 608 232 q 707 169 675 232 q 725 106 725 132 q 429 -18 725 -18 q 247 17 326 -18 q 122 110 167 53 q 56 232 78 168 q 35 363 35 296 q 148 642 35 538 q 431 747 261 747 q 556 728 499 747 q 650 680 613 710 q 713 611 688 650 q 750 534 739 572 q 761 460 761 496 m 468 413 q 521 457 521 413 q 497 508 521 489 q 426 528 472 528 q 338 491 382 528 q 293 413 293 454 l 468 413 z "},"f":{"ha":625,"x_min":21,"x_max":604,"o":"m 483 731 q 531 728 515 731 q 567 715 547 725 q 596 678 588 704 q 604 607 604 651 q 595 540 604 565 q 567 503 586 514 q 530 489 547 492 q 482 486 513 486 l 393 492 l 393 119 q 390 72 393 89 q 377 35 388 56 q 340 7 367 15 q 269 -1 313 -1 q 201 8 226 -1 q 164 37 175 17 q 151 74 153 57 q 149 122 149 90 l 149 490 l 99 490 q 69 495 81 492 q 44 510 57 499 q 26 547 32 522 q 21 608 21 571 q 103 722 21 722 l 149 722 l 149 796 q 225 990 149 903 q 446 1076 301 1076 q 494 1074 478 1076 q 531 1062 510 1072 q 560 1025 551 1051 q 568 954 568 999 q 561 895 568 919 q 544 859 554 871 q 516 841 535 847 q 484 834 497 835 q 444 833 471 833 q 393 799 393 833 l 393 722 l 483 731 z "},"g":{"ha":813,"x_min":35,"x_max":757,"o":"m 640 735 q 707 726 682 735 q 742 698 732 718 q 755 663 753 678 q 757 615 757 647 l 757 40 q 646 -217 757 -119 q 396 -315 535 -315 q 194 -264 290 -315 q 99 -171 99 -212 q 136 -79 99 -119 l 140 -75 q 181 -35 167 -46 q 215 -24 196 -24 q 256 -40 235 -24 q 313 -74 278 -57 q 400 -92 349 -92 q 486 -50 453 -92 q 519 50 519 -8 l 519 92 l 517 89 q 512 82 515 86 q 503 72 508 78 q 490 61 497 67 q 473 50 482 56 q 451 40 464 44 q 425 31 439 35 q 394 24 411 26 q 358 22 376 22 q 135 128 236 22 q 35 379 35 235 q 136 625 35 518 q 358 732 238 732 q 444 715 406 732 q 498 683 483 697 q 521 656 513 668 q 549 715 525 694 q 640 735 574 735 m 394 258 q 478 295 444 258 q 511 376 511 332 q 479 458 511 419 q 392 496 447 496 q 306 458 339 496 q 272 376 272 421 q 308 294 272 331 q 394 258 343 258 z "},"h":{"ha":840,"x_min":56,"x_max":785,"o":"m 461 729 q 692 624 600 729 q 785 365 785 518 l 785 121 q 783 73 785 89 q 770 37 781 57 q 733 8 760 17 q 663 0 707 0 q 594 8 619 0 q 557 37 568 17 q 544 74 546 57 q 542 124 542 90 l 542 367 q 510 456 542 424 q 428 488 478 488 q 342 458 379 488 q 299 390 304 428 l 299 121 q 297 73 299 89 q 284 37 294 57 q 247 8 274 17 q 176 0 221 0 q 107 8 133 0 q 70 38 81 17 q 58 74 60 58 q 56 122 56 89 l 56 953 q 58 1001 56 985 q 70 1037 60 1017 q 107 1065 81 1057 q 178 1074 133 1074 q 247 1065 221 1074 q 284 1036 274 1057 q 297 999 294 1015 q 299 951 299 983 l 299 644 q 461 729 368 729 z "},"i":{"ha":354,"x_min":56,"x_max":299,"o":"m 56 610 q 58 658 56 642 q 70 694 60 674 q 107 722 81 714 q 178 731 133 731 q 237 724 213 731 q 273 707 261 717 q 291 678 285 697 q 298 647 297 660 q 299 607 299 633 l 299 121 q 297 73 299 89 q 284 37 294 57 q 247 8 274 17 q 176 0 221 0 q 107 8 133 0 q 70 38 81 17 q 58 74 60 58 q 56 122 56 89 l 56 610 m 176 831 q 107 839 133 831 q 70 868 81 847 q 58 905 60 889 q 56 953 56 921 q 58 1001 56 985 q 70 1037 60 1017 q 107 1065 81 1057 q 178 1074 133 1074 q 247 1065 221 1074 q 284 1036 274 1057 q 297 999 294 1015 q 299 951 299 983 q 297 903 299 919 q 284 867 294 888 q 247 839 274 847 q 176 831 221 831 z "},"j":{"ha":350,"x_min":-183,"x_max":294,"o":"m 242 841 q 230 837 242 841 q 174 833 217 833 q 106 842 131 833 q 70 870 81 850 q 58 906 60 890 q 56 954 56 922 q 58 1001 56 986 q 70 1036 60 1017 q 107 1064 81 1056 q 176 1072 133 1072 q 244 1064 218 1072 q 280 1037 269 1056 q 292 1003 290 1018 q 294 957 294 988 l 294 949 q 292 903 294 918 q 279 868 290 888 q 242 841 268 849 m 108 728 q 120 732 108 728 q 176 736 133 736 q 244 728 219 736 q 280 699 269 719 q 292 663 290 679 q 294 615 294 647 l 294 43 q 182 -217 294 -119 q -65 -314 69 -314 q -112 -312 -97 -314 q -147 -299 -128 -310 q -175 -262 -167 -289 q -183 -193 -183 -236 q -153 -96 -183 -117 q -62 -75 -124 -75 q 17 -47 -22 -75 q 56 53 56 -19 l 56 625 q 58 668 56 653 q 72 701 61 683 q 108 728 82 719 z "},"k":{"ha":744,"x_min":56,"x_max":724,"o":"m 486 367 l 671 214 q 698 190 689 199 q 715 168 707 182 q 724 140 724 154 q 681 50 724 107 q 592 -8 633 -8 q 518 28 563 -8 l 513 32 l 499 42 q 400 134 467 68 q 299 228 333 200 l 299 121 q 297 73 299 89 q 284 37 294 57 q 247 8 274 17 q 176 0 221 0 q 107 8 133 0 q 70 38 81 17 q 58 74 60 58 q 56 122 56 90 l 56 954 q 58 1002 56 986 q 70 1039 60 1018 q 107 1068 81 1060 q 178 1076 133 1076 q 237 1069 213 1076 q 273 1053 261 1063 q 291 1024 285 1043 q 298 992 297 1006 q 299 953 299 979 l 299 513 q 374 583 324 533 q 450 654 425 633 l 467 665 q 543 703 515 703 q 629 649 585 703 q 675 558 675 590 q 624 483 675 526 l 486 367 z "},"l":{"ha":454,"x_min":56,"x_max":433,"o":"m 56 954 q 58 1002 56 986 q 70 1039 60 1018 q 107 1068 81 1060 q 178 1076 133 1076 q 247 1067 221 1076 q 283 1038 272 1058 q 297 1001 294 1018 q 299 953 299 985 l 299 310 q 307 247 299 260 q 353 233 315 233 q 382 231 372 233 q 406 219 392 229 q 427 185 421 210 q 433 121 433 161 q 427 51 433 78 q 406 15 421 25 q 381 2 392 4 q 351 0 371 0 q 233 6 278 0 q 151 27 189 11 q 94 76 113 43 q 65 161 75 110 q 56 293 56 213 l 56 954 z "},"m":{"ha":1182,"x_min":56,"x_max":1126,"o":"m 865 733 q 1051 648 976 733 q 1126 365 1126 563 l 1126 122 q 1124 74 1126 90 q 1112 38 1122 58 q 1075 8 1101 17 q 1004 0 1049 0 q 935 9 961 0 q 898 39 908 18 q 885 76 888 60 q 883 124 883 92 l 883 367 q 797 488 883 488 q 731 456 749 488 q 714 365 714 424 l 714 122 q 712 74 714 89 q 699 38 710 58 q 661 8 688 17 q 590 0 635 0 q 521 9 547 0 q 484 39 494 18 q 472 76 474 60 q 469 124 469 92 l 469 367 q 383 488 469 488 q 300 367 300 488 l 300 121 q 298 73 300 89 q 285 37 296 57 q 247 8 274 17 q 176 0 221 0 q 107 8 133 0 q 70 38 81 17 q 58 74 60 58 q 56 122 56 89 l 56 611 q 58 659 56 643 q 71 695 60 675 q 108 724 82 715 q 179 732 135 732 q 271 707 247 732 q 294 635 294 682 q 301 645 297 639 q 321 669 306 651 q 353 699 336 686 q 397 723 369 713 q 451 733 424 733 q 663 613 593 733 q 699 656 678 633 q 768 706 721 679 q 865 733 815 733 z "},"n":{"ha":842,"x_min":56,"x_max":786,"o":"m 463 732 q 694 626 601 732 q 786 367 786 519 l 786 122 q 784 74 786 90 q 772 38 782 58 q 735 10 761 18 q 664 1 708 1 q 604 8 628 1 q 568 24 581 15 q 549 53 556 33 q 542 85 543 72 q 542 124 542 97 l 542 368 q 509 457 542 425 q 421 489 476 489 q 333 456 367 489 q 299 368 299 422 l 299 122 q 297 74 299 90 q 284 38 294 58 q 247 10 274 18 q 176 1 221 1 q 107 10 133 1 q 70 39 81 18 q 58 76 60 60 q 56 124 56 92 l 56 615 q 58 662 56 646 q 71 697 60 678 q 108 724 82 717 q 178 732 135 732 q 246 724 219 732 q 282 699 272 715 q 294 672 292 683 q 296 643 296 661 q 303 653 299 647 q 324 674 308 658 q 358 701 340 689 q 405 722 376 713 q 463 732 433 732 z "},"o":{"ha":833,"x_min":35,"x_max":799,"o":"m 415 749 q 683 641 568 749 q 799 367 799 533 q 739 162 799 251 q 594 30 679 72 q 418 -12 508 -12 q 239 33 325 -12 q 94 166 153 78 q 35 365 35 254 q 151 640 35 532 q 415 749 268 749 m 325 266 q 347 249 325 266 q 415 232 369 232 q 507 267 461 232 q 553 369 553 301 q 510 471 553 438 q 414 504 467 504 q 324 469 367 504 q 281 368 281 435 q 325 266 281 300 z "},"p":{"ha":808,"x_min":56,"x_max":774,"o":"m 56 -199 l 56 613 q 58 660 56 644 q 70 695 60 675 q 106 724 81 715 q 174 732 131 732 q 262 713 236 732 q 292 658 288 694 q 450 731 344 731 q 672 624 571 731 q 774 378 774 517 q 673 126 774 233 q 450 19 572 19 q 293 83 344 19 l 293 -197 q 291 -244 293 -229 q 278 -280 289 -260 q 243 -308 268 -300 q 175 -317 218 -317 q 106 -308 132 -317 q 70 -281 81 -300 q 58 -246 60 -261 q 56 -199 56 -231 m 331 456 q 315 437 331 456 q 299 374 299 418 q 331 292 299 329 q 414 256 364 256 q 501 292 465 256 q 536 374 536 328 q 503 456 536 419 q 417 493 469 493 q 331 456 363 493 z "},"q":{"ha":808,"x_min":35,"x_max":753,"o":"m 635 732 q 703 724 678 732 q 738 695 728 715 q 751 660 749 675 q 753 613 753 644 l 753 -199 q 751 -246 753 -231 q 738 -281 749 -261 q 702 -308 728 -300 q 633 -317 676 -317 q 565 -308 590 -317 q 530 -280 540 -300 q 517 -244 519 -260 q 515 -197 515 -229 l 515 83 q 358 19 460 19 q 135 126 235 19 q 35 378 35 233 q 136 624 35 517 q 358 731 238 731 q 517 658 464 731 q 547 713 521 694 q 635 732 572 732 m 308 292 q 325 274 308 292 q 393 256 343 256 q 476 292 443 256 q 510 374 510 329 q 478 455 510 417 q 392 493 446 493 q 306 456 339 493 q 272 374 272 419 q 308 292 272 328 z "},"r":{"ha":635,"x_min":56,"x_max":614,"o":"m 614 646 q 588 533 614 586 q 511 481 561 481 q 463 492 486 481 q 417 503 440 503 q 333 476 365 503 q 300 413 300 450 l 300 121 q 298 73 300 89 q 285 37 296 57 q 247 8 274 17 q 176 0 221 0 q 117 7 142 0 q 81 24 93 14 q 63 52 69 33 q 56 84 57 71 q 56 124 56 97 l 56 611 q 58 659 56 643 q 70 695 60 675 q 107 724 81 715 q 178 732 133 732 q 246 724 219 732 q 282 701 272 715 q 294 676 292 686 q 297 654 297 667 q 317 678 304 664 q 374 715 331 692 q 461 739 417 739 q 504 735 482 739 q 553 724 526 732 q 597 695 579 715 q 614 646 614 675 z "},"s":{"ha":679,"x_min":35,"x_max":644,"o":"m 325 -12 q 61 65 185 -12 q 35 114 35 82 q 88 228 35 154 q 135 251 103 251 q 219 222 171 251 q 335 183 288 183 q 419 217 419 183 q 393 240 419 231 q 326 256 367 250 q 240 278 286 261 q 153 321 193 296 q 86 399 113 346 q 60 526 60 453 q 361 746 60 746 q 564 699 460 746 q 613 638 613 676 q 583 563 613 610 q 519 513 551 513 q 472 526 503 513 q 360 554 413 554 q 278 524 278 554 q 305 488 278 501 q 373 470 332 475 q 461 451 414 465 q 549 417 508 438 q 617 349 590 397 q 644 232 644 301 q 617 106 644 157 q 541 31 590 56 q 441 -3 492 7 q 325 -12 390 -12 z "},"t":{"ha":624,"x_min":21,"x_max":603,"o":"m 481 486 l 390 492 l 390 300 q 402 246 390 263 q 444 229 414 229 q 497 227 479 229 q 533 215 514 225 q 558 182 551 204 q 565 121 565 160 q 556 51 565 78 q 526 15 547 25 q 490 2 506 4 q 443 0 474 0 q 224 65 299 0 q 149 286 149 131 l 149 492 q 99 488 122 488 q 41 511 61 488 q 21 610 21 535 q 28 674 21 649 q 48 711 35 700 q 74 726 61 722 q 103 729 86 729 l 149 724 l 149 867 q 151 914 149 899 q 163 948 153 929 q 200 974 174 967 q 271 982 226 982 q 328 975 306 982 q 364 959 351 968 q 383 931 376 950 q 390 899 389 913 q 390 860 390 885 l 390 724 q 482 729 451 729 q 530 727 514 729 q 566 715 546 725 q 594 678 586 704 q 603 607 603 651 q 594 538 603 564 q 565 501 586 511 q 528 488 544 490 q 481 486 513 486 z "},"u":{"ha":842,"x_min":56,"x_max":786,"o":"m 381 3 q 148 109 240 3 q 56 368 56 215 l 56 611 q 58 660 56 644 q 70 696 60 675 q 107 725 81 717 q 178 733 133 733 q 238 726 214 733 q 274 710 261 719 q 292 681 286 700 q 299 649 299 663 q 300 610 300 636 l 300 367 q 333 278 300 310 q 421 246 365 246 q 509 279 475 246 q 543 367 543 313 l 543 613 q 545 660 543 644 q 558 697 547 676 q 594 725 568 717 q 665 733 621 733 q 735 725 708 733 q 772 696 761 717 q 784 659 782 675 q 786 611 786 643 l 786 119 q 784 73 786 89 q 771 38 782 57 q 733 10 760 18 q 664 1 707 1 q 596 10 622 1 q 560 35 569 18 q 548 63 550 51 q 546 92 546 74 q 538 82 543 88 q 517 61 533 76 q 483 34 501 46 q 438 13 465 22 q 381 3 410 3 z "},"v":{"ha":886,"x_min":21,"x_max":865,"o":"m 793 715 q 865 624 865 672 q 838 547 865 596 l 550 54 q 538 37 546 47 q 502 10 529 26 q 446 -7 475 -7 q 388 8 415 -7 q 350 38 361 22 l 338 53 l 49 547 q 21 622 21 593 q 93 715 21 672 q 178 746 146 746 q 224 727 207 746 q 261 671 242 708 l 443 321 l 625 671 q 648 709 640 697 q 672 733 656 721 q 710 744 689 744 q 793 715 744 744 z "},"w":{"ha":1101,"x_min":21,"x_max":1081,"o":"m 992 726 q 1081 631 1081 688 q 1068 579 1081 607 q 1021 464 1036 503 l 868 92 q 865 81 867 88 q 853 58 863 75 q 831 29 843 42 q 799 6 819 17 q 753 -4 778 -4 q 684 20 714 -4 q 644 69 654 44 l 633 93 q 590 206 625 114 q 551 310 556 299 q 510 201 538 276 q 469 92 483 125 q 466 81 468 88 q 454 58 464 75 q 432 29 444 42 q 398 6 419 17 q 351 -4 376 -4 q 283 20 313 -4 q 244 69 254 44 l 233 93 l 35 581 q 21 635 21 622 q 100 722 21 690 q 175 740 144 740 q 217 728 200 740 q 242 705 235 717 q 257 674 249 693 q 302 552 258 669 q 351 419 346 435 l 433 644 q 438 654 435 649 q 451 675 440 660 q 473 702 461 690 q 506 724 485 714 q 549 733 526 733 q 617 711 588 733 q 658 667 647 689 l 669 643 q 751 421 739 449 l 836 651 q 936 740 869 740 q 992 726 963 740 z "},"x":{"ha":788,"x_min":21,"x_max":767,"o":"m 563 367 l 717 211 q 767 129 767 161 q 717 42 767 90 q 628 -8 667 -8 q 547 42 597 -8 l 394 196 l 240 42 q 160 -8 190 -8 q 71 42 122 -8 q 21 129 21 90 q 71 211 21 161 l 225 367 l 71 522 q 21 604 21 572 q 71 692 21 643 q 160 743 122 743 q 240 693 190 743 l 394 538 l 547 693 q 629 743 597 743 q 717 693 667 743 q 767 604 767 643 q 717 522 767 572 l 563 367 z "},"y":{"ha":839,"x_min":21,"x_max":818,"o":"m 736 724 q 818 636 818 688 q 797 569 818 614 l 797 568 q 796 565 796 567 l 432 -249 q 413 -289 421 -275 q 389 -315 406 -303 q 350 -328 372 -328 q 274 -307 322 -328 q 192 -221 192 -271 q 214 -149 192 -199 q 325 97 265 -31 l 49 563 q 21 631 21 608 q 96 719 21 675 q 176 747 143 747 q 213 736 196 747 q 237 713 229 725 q 260 676 244 701 q 444 365 382 467 q 578 664 451 388 q 592 696 588 686 q 608 719 597 706 q 631 738 618 732 q 661 743 643 743 q 736 724 692 743 z "},"z":{"ha":814,"x_min":35,"x_max":779,"o":"m 421 244 l 658 244 q 707 242 690 244 q 743 228 724 239 q 771 190 763 217 q 779 121 779 164 q 771 51 779 78 q 742 15 763 25 q 705 2 721 4 q 657 0 689 0 l 156 0 q 71 36 107 0 q 35 122 35 72 q 71 208 35 172 q 182 310 107 243 q 318 430 257 376 q 385 489 379 483 l 189 489 q 149 490 163 489 q 117 497 136 490 q 89 515 99 503 q 72 551 79 528 q 65 611 65 575 q 72 670 65 646 q 89 706 79 694 q 117 724 99 718 q 149 731 136 731 q 189 732 163 732 l 640 732 q 725 697 689 732 q 761 613 761 663 q 726 525 761 558 q 421 244 678 478 z "},"{":{"ha":529,"x_min":21,"x_max":508,"o":"m 86 479 l 92 479 q 179 547 179 479 q 181 831 181 801 q 245 1006 181 938 q 407 1074 310 1074 q 447 1072 433 1074 q 478 1061 461 1069 q 501 1031 494 1053 q 508 975 508 1010 q 501 919 508 940 q 478 888 494 897 q 448 876 461 879 q 408 874 435 874 q 381 819 381 874 l 381 583 q 360 471 381 522 q 319 399 339 419 l 299 378 q 307 372 301 376 q 327 349 313 367 q 352 309 342 332 q 372 245 363 286 q 381 157 381 204 q 379 -46 379 21 l 379 -79 q 387 -105 379 -96 q 399 -115 394 -114 q 407 -115 403 -115 q 447 -117 433 -115 q 477 -128 460 -119 q 501 -158 494 -136 q 508 -214 508 -179 q 501 -272 508 -250 q 476 -301 493 -293 q 447 -312 460 -310 q 408 -314 433 -314 q 246 -244 311 -314 q 181 -65 181 -175 q 181 -40 181 -64 q 181 22 181 -15 q 182 90 182 58 q 179 213 182 179 q 96 279 179 279 l 88 279 q 65 281 74 279 q 45 292 57 283 q 27 323 33 301 q 21 379 21 344 q 27 436 21 414 q 45 467 33 458 q 65 477 57 475 q 86 479 74 479 z "},"|":{"ha":301,"x_min":56,"x_max":246,"o":"m 56 954 q 58 1001 56 986 q 67 1037 60 1017 q 96 1065 75 1057 q 151 1074 117 1074 q 206 1065 185 1074 q 235 1037 226 1057 q 244 1001 243 1017 q 246 953 246 985 l 246 -203 q 244 -250 246 -235 q 234 -285 242 -265 q 206 -314 226 -306 q 150 -322 185 -322 q 96 -314 117 -322 q 67 -285 75 -306 q 57 -249 58 -264 q 56 -200 56 -233 l 56 954 z "},"}":{"ha":529,"x_min":21,"x_max":508,"o":"m 442 479 q 463 477 454 479 q 484 467 472 475 q 502 436 496 458 q 508 379 508 414 q 496 310 508 335 q 471 283 483 286 q 440 279 458 279 l 432 279 q 349 213 349 279 q 346 90 346 179 q 347 22 346 58 q 347 -40 347 -15 q 347 -65 347 -64 q 282 -244 347 -175 q 119 -314 217 -314 q 81 -312 94 -314 q 51 -301 68 -310 q 28 -272 35 -293 q 21 -214 21 -250 q 28 -157 21 -178 q 51 -128 35 -136 q 81 -117 68 -119 q 121 -115 94 -115 q 129 -115 125 -115 q 141 -105 133 -114 q 149 -79 149 -96 l 149 -46 l 147 157 q 168 288 147 233 q 210 361 189 343 l 231 378 q 207 401 221 386 q 170 469 193 417 q 147 583 147 522 l 149 819 q 143 857 149 844 q 133 872 138 869 q 119 874 128 874 q 80 876 93 874 q 51 888 67 879 q 28 919 35 897 q 21 975 21 940 q 28 1031 21 1010 q 51 1061 35 1053 q 81 1072 67 1069 q 121 1074 94 1074 q 283 1006 218 1074 q 347 831 347 938 l 349 547 q 436 479 349 479 l 442 479 z "},"~":{"ha":904,"x_min":68,"x_max":796,"o":"m 731 500 q 796 418 796 456 q 771 357 796 397 q 763 342 768 351 q 736 310 757 333 q 690 268 715 286 q 623 235 665 250 q 533 221 581 221 q 438 242 479 221 q 370 286 397 264 q 324 308 343 308 q 301 303 311 308 q 286 292 290 297 q 282 286 282 288 q 199 219 239 219 q 125 254 165 219 q 68 333 68 301 q 94 392 68 353 q 103 406 97 397 q 129 438 108 415 q 175 478 150 461 q 242 510 200 496 q 333 525 285 525 q 410 512 375 525 q 464 483 446 499 q 502 453 482 467 q 538 440 522 440 q 563 445 551 440 q 578 456 574 450 l 582 461 q 665 525 625 525 q 731 500 694 525 z "},"":{"ha":372,"x_min":56,"x_max":317,"o":"m 81 478 q 56 581 56 503 q 57 619 56 607 q 65 653 58 632 q 85 683 72 674 q 124 701 99 693 q 188 708 150 708 q 292 678 263 708 q 317 576 317 653 q 315 536 317 549 q 307 503 314 524 q 287 472 300 482 q 248 455 274 463 q 185 447 222 447 q 81 478 110 447 m 116 333 q 130 337 116 333 q 188 340 143 340 q 258 333 232 340 q 295 308 285 326 q 308 276 306 290 q 310 233 310 263 l 310 -207 q 308 -251 310 -236 q 294 -283 306 -265 q 256 -309 283 -301 q 185 -317 229 -317 q 114 -309 140 -317 q 77 -283 88 -301 q 65 -249 67 -264 q 63 -206 63 -235 l 63 235 q 65 278 63 264 q 78 309 67 292 q 116 333 89 326 z "},"":{"ha":603,"x_min":35,"x_max":568,"o":"m 401 313 q 458 336 436 336 q 542 276 493 336 q 568 217 568 244 q 506 136 568 174 q 419 100 472 113 l 419 -11 q 418 -52 419 -39 q 410 -82 417 -65 q 385 -106 403 -99 q 339 -112 368 -112 q 292 -106 310 -112 q 268 -81 275 -99 q 260 -51 261 -64 q 258 -10 258 -37 l 258 103 q 99 208 164 132 q 35 400 35 285 q 100 588 35 511 q 258 692 165 664 l 258 824 q 260 865 258 851 q 268 895 261 878 q 292 919 275 913 q 339 926 310 926 q 385 919 368 926 q 410 895 403 913 q 418 864 417 878 q 419 822 419 850 l 419 694 q 465 680 443 689 q 496 664 486 671 l 506 658 q 537 637 526 644 q 557 614 547 629 q 567 582 567 599 q 543 518 567 556 q 464 456 503 456 q 404 481 442 456 q 343 500 382 500 q 273 473 306 500 q 240 397 240 446 q 273 322 240 349 q 342 294 306 294 q 374 299 358 294 q 394 308 389 303 l 401 313 z "},"":{"ha":938,"x_min":21,"x_max":917,"o":"m 414 226 l 803 226 q 848 224 833 226 q 882 213 863 222 q 909 178 901 203 q 917 113 917 153 q 908 48 917 72 q 881 14 900 24 q 847 2 863 4 q 801 0 832 0 l 224 0 q 145 28 179 0 q 111 114 111 56 q 133 175 111 147 q 178 240 156 203 q 201 335 201 278 q 189 404 201 354 l 106 404 q 72 406 83 404 q 46 417 60 408 q 26 445 32 425 q 21 497 21 465 q 27 551 21 531 q 49 579 33 571 q 78 589 65 588 q 115 590 90 590 l 147 590 q 146 631 146 604 q 186 821 146 736 q 331 969 233 918 q 543 1021 429 1021 q 653 1008 600 1021 q 740 982 707 996 q 803 947 772 968 q 840 920 833 926 q 853 907 846 914 q 890 824 890 861 q 851 747 890 782 q 767 708 808 708 q 692 747 722 708 q 678 760 688 753 q 631 781 668 768 q 549 794 593 794 q 409 745 447 794 q 371 633 371 696 l 371 619 q 375 590 371 599 l 515 590 q 550 589 539 590 q 576 579 561 588 q 597 550 590 571 q 603 496 603 529 q 597 444 603 464 q 576 417 590 425 q 551 406 563 408 q 517 404 539 404 l 421 404 q 429 329 429 363 q 414 226 429 279 z "},"":{"ha":940,"x_min":35,"x_max":906,"o":"m 794 265 q 838 219 804 260 q 883 160 871 179 q 906 103 906 122 q 850 31 906 67 q 788 7 813 7 q 722 64 754 7 q 711 80 719 67 q 699 100 703 93 q 475 142 678 142 l 447 142 q 242 101 269 142 l 219 63 q 201 33 208 43 q 182 15 194 24 q 154 7 169 7 q 92 28 131 7 q 35 99 35 60 q 57 157 35 122 q 149 267 103 238 q 64 533 64 368 q 149 811 64 707 q 103 854 133 821 q 57 919 72 888 q 39 978 39 958 q 90 1049 39 1015 q 153 1072 128 1072 q 181 1063 168 1072 q 201 1044 194 1053 q 219 1015 207 1035 q 243 976 226 1001 q 256 964 246 971 q 321 947 265 957 q 467 936 376 936 l 483 936 q 700 978 679 936 l 721 1013 q 740 1041 732 1031 q 760 1060 747 1051 q 789 1068 774 1068 q 850 1047 813 1068 q 904 976 904 1015 q 883 918 904 954 q 792 810 838 840 q 876 536 876 708 q 794 265 876 368 m 463 339 q 616 381 563 339 q 669 538 669 424 q 618 692 669 647 q 471 736 567 736 q 322 691 372 736 q 272 539 272 646 q 463 339 272 339 z "},"":{"ha":940,"x_min":21,"x_max":919,"o":"m 853 989 q 919 900 919 943 q 885 819 919 872 l 671 501 l 692 501 q 722 501 711 501 q 748 497 732 500 q 772 485 764 493 q 787 463 781 478 q 793 425 793 447 q 786 383 793 399 q 763 360 779 367 q 734 353 747 354 q 696 351 721 351 l 593 351 l 593 260 l 692 260 q 722 259 711 260 q 748 255 732 258 q 772 244 764 251 q 787 222 781 236 q 793 185 793 207 q 786 142 793 158 q 763 120 779 126 q 734 113 747 114 q 696 111 721 111 l 593 111 q 590 67 593 83 q 574 34 586 51 q 537 9 563 17 q 469 1 511 1 q 403 9 429 1 q 367 34 378 17 q 352 67 356 51 q 349 111 349 83 l 244 111 q 197 114 214 111 q 165 134 181 117 q 149 186 149 151 q 167 238 149 221 q 201 258 185 256 q 251 260 218 260 l 349 260 l 349 351 l 244 351 q 197 354 214 351 q 165 374 181 357 q 149 426 149 392 q 157 469 149 453 q 183 492 165 486 q 214 500 201 499 q 251 501 226 501 l 271 501 l 53 826 q 21 899 21 875 q 89 989 21 942 q 175 1024 140 1024 q 209 1013 193 1024 q 234 991 225 1003 q 258 957 243 979 l 471 617 l 683 957 q 708 991 699 979 q 733 1013 717 1003 q 767 1024 749 1024 q 853 989 803 1024 z "},"":{"ha":299,"x_min":56,"x_max":243,"o":"m 151 322 q 204 313 183 322 q 232 287 225 304 q 241 259 239 269 q 243 232 243 249 l 243 -192 q 242 -239 243 -224 q 232 -274 240 -254 q 203 -301 224 -293 q 149 -310 182 -310 q 95 -301 115 -310 q 67 -273 75 -293 q 57 -237 58 -253 q 56 -190 56 -222 l 56 232 q 58 259 56 249 q 67 287 60 269 q 97 313 75 304 q 151 322 118 322 m 97 1065 q 107 1069 97 1065 q 150 1074 117 1074 q 203 1065 183 1074 q 232 1037 224 1057 q 242 1001 240 1017 q 243 954 243 986 l 243 532 q 241 506 243 517 q 231 478 239 494 q 203 452 224 461 q 149 443 182 443 q 96 452 117 443 q 67 478 75 461 q 58 506 60 494 q 56 532 56 517 l 56 956 q 58 1002 56 986 q 68 1038 60 1018 q 97 1065 76 1057 z "},"":{"ha":778,"x_min":35,"x_max":743,"o":"m 681 194 q 743 10 743 128 q 708 -141 743 -75 q 619 -242 674 -207 q 505 -296 564 -278 q 388 -314 446 -314 q 269 -299 325 -314 q 178 -261 214 -283 q 117 -217 143 -239 q 81 -179 92 -194 l 69 -164 q 35 -93 35 -121 q 92 3 35 -50 q 160 35 125 35 q 254 -21 199 35 l 265 -32 q 281 -49 271 -39 q 323 -78 292 -60 q 383 -96 354 -96 q 507 6 507 -96 q 482 51 507 33 q 417 79 457 68 q 328 102 376 90 q 232 134 281 114 q 143 185 183 154 q 78 270 103 215 q 53 399 53 325 q 121 583 53 506 q 53 776 53 654 q 140 979 53 892 q 376 1067 226 1067 q 522 1046 456 1067 q 614 1006 588 1025 l 639 985 l 646 979 q 688 917 688 940 q 654 842 688 889 q 561 774 608 774 q 493 801 533 774 q 478 815 489 804 q 457 831 467 825 q 426 843 447 838 q 375 849 404 849 q 315 828 343 849 q 286 775 286 808 q 320 712 286 735 q 405 681 354 689 q 515 657 456 674 q 624 616 574 640 q 709 533 675 592 q 743 386 743 475 q 681 194 743 275 m 286 397 q 325 331 286 351 q 446 294 364 311 q 451 294 447 294 q 456 293 454 293 q 507 382 507 317 q 497 414 507 400 q 463 438 488 428 q 419 455 438 449 q 361 471 401 461 q 309 447 332 467 q 286 397 286 428 z "},"":{"ha":679,"x_min":56,"x_max":679,"o":"m 251 835 q 237 831 251 835 q 179 826 224 826 q 108 835 135 826 q 71 865 82 843 q 58 902 60 886 q 56 951 56 918 q 59 1001 57 986 q 72 1036 61 1015 q 109 1065 82 1057 q 181 1074 136 1074 q 251 1065 225 1074 q 289 1035 278 1057 q 302 998 300 1014 q 304 949 304 982 q 302 901 304 917 q 289 864 300 885 q 251 835 278 843 m 626 835 q 612 831 626 835 q 554 826 599 826 q 483 835 510 826 q 446 865 457 843 q 433 902 435 886 q 431 951 431 918 q 433 1001 431 985 q 446 1037 435 1017 q 484 1065 457 1057 q 556 1074 511 1074 q 626 1065 600 1074 q 664 1035 653 1057 q 677 998 675 1014 q 679 949 679 982 q 677 901 679 917 q 664 864 675 885 q 626 835 653 843 z "},"":{"ha":988,"x_min":35,"x_max":953,"o":"m 831 933 q 953 583 953 815 q 931 410 953 500 q 858 265 908 321 q 716 166 799 199 q 493 133 633 133 q 160 233 263 133 q 35 582 35 354 q 154 932 35 822 q 494 1038 269 1038 q 831 933 725 1038 m 743 317 q 832 585 832 393 q 761 836 832 763 q 493 919 681 919 q 243 851 318 919 q 156 581 156 772 q 238 322 156 400 q 494 251 313 251 q 743 317 669 251 m 507 710 q 414 676 451 710 q 376 582 376 642 q 415 492 376 525 q 501 458 454 458 q 538 464 521 458 q 564 475 556 469 l 571 481 q 613 499 594 499 q 635 494 629 499 q 660 469 642 490 q 686 410 686 435 l 686 404 q 658 364 685 382 q 510 314 588 314 q 313 390 396 314 q 231 594 231 465 q 308 774 231 693 q 496 854 385 854 q 569 846 535 854 q 624 826 603 838 q 660 801 644 814 q 681 778 675 788 q 688 764 688 768 q 646 683 688 717 q 614 671 631 671 q 590 676 601 671 q 507 710 551 710 z "},"":{"ha":618,"x_min":35,"x_max":563,"o":"m 476 990 q 526 984 507 990 q 552 963 544 978 q 561 938 560 949 q 563 903 563 926 l 563 556 q 560 509 563 524 q 537 481 557 494 q 475 468 517 468 q 390 521 397 468 q 271 468 356 468 q 108 547 181 468 q 35 732 35 626 q 108 912 35 833 q 271 990 182 990 q 332 978 304 990 q 372 956 360 967 q 389 935 383 944 q 411 976 393 963 q 476 990 429 990 m 299 643 q 358 670 335 643 q 382 729 382 697 q 359 789 382 761 q 296 817 336 817 q 233 789 257 817 q 208 728 208 761 q 235 669 208 694 q 299 643 261 643 z "},"":{"ha":928,"x_min":21,"x_max":907,"o":"m 432 204 q 449 188 435 201 q 470 167 464 174 q 483 147 476 160 q 490 121 490 133 q 453 51 490 89 q 369 3 404 3 q 300 46 343 3 l 60 285 q 21 364 21 324 q 60 443 21 404 l 303 685 q 369 725 343 725 q 453 678 406 725 q 490 607 490 640 q 484 582 490 594 q 471 562 478 569 q 451 542 464 554 q 433 525 438 531 l 272 364 l 432 204 m 847 204 q 865 188 850 201 q 885 167 879 174 q 899 147 892 160 q 906 121 906 133 q 868 51 906 89 q 785 3 819 3 q 715 46 758 3 l 475 285 q 436 364 436 326 q 475 443 436 407 l 718 685 q 785 725 758 725 q 868 678 821 725 q 907 607 907 639 q 901 582 907 594 q 887 562 894 569 q 867 542 879 554 q 849 525 854 531 l 688 364 l 847 204 z "},"":{"ha":731,"x_min":21,"x_max":710,"o":"m 657 606 q 701 576 692 597 q 710 518 710 556 l 710 265 q 708 231 710 243 q 697 203 706 219 q 669 181 689 188 q 615 174 649 174 q 562 181 582 174 q 534 206 542 189 q 524 235 526 224 q 522 271 522 247 l 522 372 l 114 372 q 80 375 92 372 q 52 388 68 378 q 28 424 36 397 q 21 492 21 450 q 28 560 21 535 q 53 597 36 586 q 83 609 71 607 q 118 611 94 611 l 610 611 q 657 606 643 611 z "},"":{"ha":988,"x_min":35,"x_max":953,"o":"m 663 532 q 686 477 671 513 q 707 429 701 442 q 708 425 707 428 q 719 388 719 403 q 694 347 719 368 q 629 325 668 325 q 583 360 597 325 q 535 471 565 396 q 494 469 521 469 l 453 469 l 453 399 q 450 365 453 376 q 431 342 447 353 q 382 331 414 331 q 332 342 349 331 q 313 365 315 354 q 311 399 311 376 l 311 800 q 327 844 311 829 q 396 858 343 858 l 511 858 q 653 806 592 858 q 714 661 714 754 q 663 532 714 588 m 572 661 q 555 702 572 688 q 513 717 538 717 l 453 717 l 453 613 l 515 613 q 554 626 538 613 q 572 661 571 639 m 831 933 q 953 583 953 815 q 931 410 953 500 q 858 265 908 321 q 716 166 799 199 q 493 133 633 133 q 160 233 263 133 q 35 582 35 354 q 154 932 35 822 q 494 1038 269 1038 q 831 933 725 1038 m 494 251 q 750 328 668 251 q 832 585 832 406 q 761 836 832 763 q 493 919 681 919 q 243 851 318 919 q 156 581 156 772 q 238 322 156 400 q 494 251 313 251 z "},"":{"ha":565,"x_min":35,"x_max":531,"o":"m 282 1067 q 456 996 381 1067 q 531 815 531 925 q 453 634 531 703 q 283 565 376 565 q 112 635 189 565 q 35 814 35 706 q 110 995 35 924 q 282 1067 186 1067 m 223 749 q 237 738 223 749 q 282 726 251 726 q 342 749 313 726 q 371 817 371 771 q 343 883 371 861 q 282 906 315 906 q 223 883 251 906 q 194 815 194 860 q 223 749 194 771 z "},"":{"ha":701,"x_min":35,"x_max":667,"o":"m 563 600 q 604 598 590 600 q 635 587 618 596 q 660 555 653 578 q 667 494 667 532 q 660 435 667 457 q 637 404 653 413 q 608 394 621 396 q 569 392 596 392 q 561 392 564 392 l 456 392 l 456 350 q 453 308 456 322 q 442 277 451 294 q 410 253 433 260 q 350 246 388 246 q 290 253 313 246 q 259 278 268 261 q 248 310 250 296 q 246 351 246 324 l 246 392 l 139 392 q 61 406 79 392 q 35 496 35 429 q 42 556 35 533 q 67 587 50 578 q 99 598 85 596 q 140 600 113 600 l 246 600 l 246 650 q 248 692 246 678 q 259 723 250 706 q 291 747 268 740 q 351 754 314 754 q 411 747 389 754 q 442 722 433 739 q 453 690 451 704 q 456 649 456 676 l 456 600 l 563 600 m 550 1 l 150 1 q 115 3 126 1 q 86 13 103 4 q 62 41 69 21 q 54 96 54 61 q 62 150 54 129 q 87 178 69 171 q 116 188 104 186 q 151 190 128 190 l 551 190 q 587 188 575 190 q 615 178 599 186 q 640 150 632 171 q 647 94 647 129 q 640 40 647 61 q 617 12 633 19 q 588 3 600 4 q 550 1 576 1 z "},"":{"ha":632,"x_min":35,"x_max":611,"o":"m 404 503 l 529 503 q 559 501 549 503 q 584 490 569 499 q 605 459 599 482 q 611 400 611 436 q 605 342 611 364 q 585 313 599 321 q 560 302 571 304 q 529 300 550 300 l 150 300 q 73 324 110 300 q 36 410 36 349 q 72 507 36 464 q 158 579 107 550 q 259 636 208 608 q 345 701 310 664 q 381 783 381 739 q 376 800 381 789 q 355 826 372 811 q 311 842 338 842 q 261 822 279 842 q 241 788 243 801 q 239 767 239 775 q 219 693 239 718 q 129 668 199 668 q 75 676 96 668 q 47 702 54 685 q 37 732 39 719 q 35 767 35 744 q 112 960 35 876 q 310 1043 189 1043 q 506 963 426 1043 q 585 765 585 882 q 563 665 585 713 q 505 583 540 617 q 448 532 469 549 q 404 503 426 515 z "},"":{"ha":635,"x_min":35,"x_max":600,"o":"m 522 686 q 600 540 600 629 q 524 364 600 439 q 313 289 447 289 q 210 304 257 289 q 138 342 164 319 q 92 385 111 364 q 65 422 72 407 l 58 438 l 56 443 q 35 528 35 492 q 144 599 35 599 q 228 558 211 599 l 231 547 q 240 524 235 535 q 255 500 246 513 q 280 480 264 488 q 317 472 296 472 q 368 487 349 472 q 392 514 388 501 q 397 536 397 526 l 397 542 q 394 568 397 560 q 373 585 392 576 q 317 593 354 593 q 285 594 296 593 q 261 603 275 596 q 242 628 247 610 q 236 676 236 646 q 250 719 236 704 q 277 737 264 735 q 313 739 290 739 l 318 739 q 382 801 382 739 q 362 840 382 825 q 314 856 342 856 q 278 847 293 856 q 258 831 264 839 q 248 808 253 822 q 243 793 243 794 q 231 774 236 781 q 211 760 225 767 q 176 754 197 754 q 96 789 139 754 q 65 854 65 817 q 135 974 65 904 q 321 1043 206 1043 q 510 974 436 1043 q 585 818 585 906 q 522 686 585 731 z "},"":{"ha":840,"x_min":210,"x_max":618,"o":"m 331 800 l 329 800 q 326 799 328 799 q 289 790 299 790 q 221 872 247 790 q 210 932 210 906 q 219 965 210 953 q 239 983 228 978 q 269 994 250 989 l 499 1065 q 540 1075 535 1075 q 607 993 582 1075 q 618 935 618 960 q 609 901 618 914 q 589 883 600 889 q 558 872 578 878 l 331 800 z "},"":{"ha":835,"x_min":56,"x_max":779,"o":"m 589 725 q 602 729 589 725 q 658 733 615 733 q 728 725 701 733 q 765 696 754 717 q 777 659 775 675 q 779 611 779 643 l 779 129 q 777 81 779 97 q 765 46 775 65 q 728 18 754 26 q 657 10 701 10 q 590 18 615 10 q 554 42 564 26 q 542 67 544 57 q 540 96 540 78 l 539 92 q 534 85 536 89 q 527 76 532 82 q 517 64 522 69 q 506 51 513 58 q 491 39 499 44 q 474 28 483 33 q 453 18 464 22 q 430 12 443 14 q 403 10 417 10 q 355 17 375 10 q 320 33 335 24 q 297 44 306 42 l 297 -186 q 295 -234 297 -218 q 282 -269 293 -250 q 244 -297 271 -289 q 175 -306 218 -306 q 106 -297 132 -306 q 70 -269 81 -289 q 58 -233 60 -249 q 56 -185 56 -217 l 56 613 q 58 660 56 644 q 70 695 60 675 q 107 724 81 715 q 176 732 133 732 q 246 724 219 732 q 283 695 272 715 q 295 659 293 675 q 297 611 297 643 l 297 369 q 329 281 297 313 q 417 250 361 250 q 504 283 471 250 q 538 371 538 315 l 538 613 q 540 660 538 644 q 552 697 542 676 q 589 725 563 717 z "},"":{"ha":853,"x_min":42,"x_max":772,"o":"m 289 851 l 678 851 q 732 843 711 851 q 761 815 753 835 q 771 778 769 794 q 772 731 772 763 l 772 -203 q 770 -250 772 -235 q 760 -285 768 -265 q 732 -314 753 -306 q 676 -322 711 -322 q 622 -314 643 -322 q 593 -285 601 -306 q 583 -249 585 -264 q 582 -200 582 -233 l 582 711 l 479 711 l 479 -203 q 477 -250 479 -235 q 467 -285 475 -265 q 439 -314 460 -306 q 383 -322 418 -322 q 329 -314 350 -322 q 300 -285 308 -306 q 290 -249 292 -264 q 289 -200 289 -233 l 289 367 q 90 426 139 368 q 42 608 42 483 q 49 717 42 678 q 80 790 56 756 q 155 838 104 824 q 289 851 206 851 z "},"":{"ha":329,"x_min":35,"x_max":294,"o":"m 271 529 q 294 432 294 506 l 294 426 q 292 377 294 393 q 278 339 290 361 q 239 308 267 317 q 164 299 211 299 q 60 328 89 299 q 35 425 35 351 l 35 431 q 37 479 35 463 q 50 517 39 496 q 90 549 61 539 q 165 558 118 558 q 271 529 239 558 z "},"":{"ha":776,"x_min":244,"x_max":517,"o":"m 361 42 q 467 1 417 42 q 517 -111 517 -40 q 463 -228 517 -186 q 360 -267 419 -267 q 279 -243 314 -267 q 244 -201 249 -222 l 244 -196 q 260 -158 244 -175 q 308 -125 288 -125 q 343 -140 322 -125 l 346 -142 q 353 -143 349 -142 q 363 -144 357 -144 q 384 -137 374 -144 q 394 -112 394 -129 q 383 -87 394 -96 q 361 -79 372 -79 q 342 -86 349 -79 q 306 -100 319 -100 q 258 -65 283 -100 q 244 -28 244 -42 q 245 -24 244 -26 q 246 -19 246 -21 q 258 4 249 -8 q 279 19 268 17 l 285 22 q 297 28 290 25 q 314 34 304 31 q 336 40 324 38 q 361 42 349 42 z "},"":{"ha":446,"x_min":21,"x_max":390,"o":"m 289 1035 q 390 950 390 1035 l 390 381 q 388 351 390 361 q 377 326 386 340 q 345 306 368 313 q 285 300 322 300 q 228 307 250 300 q 199 329 207 314 q 188 354 190 344 q 186 383 186 364 l 186 707 q 122 685 154 685 q 58 719 94 685 q 21 792 21 753 q 23 808 21 800 q 27 822 25 817 q 34 833 29 826 q 41 842 39 840 q 50 851 43 844 l 57 858 q 217 1003 211 997 q 289 1035 249 1035 z "},"":{"ha":610,"x_min":35,"x_max":575,"o":"m 304 985 q 494 908 413 985 q 575 714 575 832 q 492 520 575 593 q 307 447 408 447 q 119 522 204 447 q 35 714 35 597 q 117 908 35 832 q 304 985 200 985 m 304 619 q 369 644 338 619 q 401 717 401 668 q 371 788 401 765 q 303 811 340 811 q 240 787 271 811 q 210 715 210 763 q 241 644 210 668 q 304 619 272 619 z "},"":{"ha":929,"x_min":21,"x_max":908,"o":"m 497 204 l 657 364 l 494 525 q 480 538 492 528 q 464 553 468 549 q 451 568 460 558 q 440 587 443 578 q 438 606 438 596 q 476 678 438 639 q 558 725 524 725 q 629 682 586 725 l 868 443 q 908 364 908 403 q 868 285 908 325 l 629 46 q 560 3 586 3 q 476 51 525 3 q 439 121 439 89 q 446 147 439 133 q 459 167 453 160 q 480 188 465 174 q 497 204 494 201 m 81 204 l 242 364 l 79 525 q 67 536 75 529 q 53 548 58 543 q 42 560 49 553 q 31 574 35 568 q 24 590 26 581 q 21 607 21 599 q 61 678 21 638 q 143 725 108 725 q 213 682 172 725 l 453 443 q 492 364 492 404 q 453 285 492 324 l 207 40 q 143 4 171 4 q 60 51 107 4 q 22 121 22 89 q 29 147 22 133 q 42 167 36 160 q 63 188 49 174 q 81 204 78 201 z "},"":{"ha":1092,"x_min":69,"x_max":1008,"o":"m 929 583 q 974 578 957 583 q 999 560 992 572 q 1007 538 1006 547 q 1008 510 1008 529 l 1008 67 q 1007 44 1008 53 q 999 25 1006 36 q 974 9 992 14 q 928 4 957 4 q 883 10 900 4 q 858 26 865 15 q 850 45 851 36 q 849 68 849 54 l 849 163 l 643 163 q 596 180 614 163 q 578 233 578 197 q 585 288 578 257 l 643 522 q 699 585 657 585 q 775 567 743 585 q 804 522 804 550 l 792 456 l 756 315 l 849 315 l 849 513 q 850 541 849 532 q 858 562 851 550 q 883 578 865 574 q 929 583 900 583 m 789 1075 q 829 1032 829 1053 q 819 1006 829 1022 l 282 -10 l 279 -14 q 246 -42 264 -42 q 204 -28 231 -42 q 164 14 164 -7 q 174 43 164 26 l 710 1057 q 747 1089 728 1089 q 789 1075 763 1089 m 201 550 l 201 808 q 150 790 175 790 q 99 817 128 790 q 69 875 69 844 q 99 928 69 903 q 225 1042 221 1038 q 282 1067 250 1067 q 361 1000 361 1067 l 361 550 q 360 526 361 535 q 351 507 358 518 q 326 491 344 496 q 279 486 308 486 q 225 497 243 486 q 204 519 207 508 q 201 550 201 531 z "},"":{"ha":1117,"x_min":69,"x_max":1033,"o":"m 869 161 l 968 161 q 992 160 983 161 q 1011 151 1000 158 q 1028 127 1022 144 q 1033 81 1033 110 q 1023 25 1033 43 q 1001 4 1013 7 q 968 1 990 1 l 668 1 q 607 20 636 1 q 578 88 578 39 q 606 165 578 131 q 674 222 633 199 q 754 267 714 246 q 822 319 794 289 q 850 383 850 349 q 847 397 850 388 q 831 417 844 406 q 796 429 817 429 q 757 413 771 429 q 741 387 743 397 q 739 369 739 376 q 735 330 739 344 q 710 303 731 315 q 651 292 690 292 q 599 306 617 292 q 580 334 582 321 q 578 371 578 347 q 639 523 578 457 q 794 589 700 589 q 949 525 886 589 q 1011 369 1011 461 q 994 288 1011 326 q 949 224 976 250 q 903 184 921 197 q 869 161 886 171 m 789 1075 q 829 1032 829 1053 q 819 1006 829 1022 l 282 -10 l 279 -14 q 246 -42 264 -42 q 204 -28 231 -42 q 164 14 164 -7 q 174 43 164 26 l 710 1057 q 747 1089 728 1089 q 789 1075 763 1089 m 201 550 l 201 808 q 150 790 175 790 q 99 817 128 790 q 69 875 69 844 q 99 928 69 903 q 225 1042 221 1038 q 282 1067 250 1067 q 361 1000 361 1067 l 361 550 q 360 526 361 535 q 351 507 358 518 q 326 491 344 496 q 279 486 308 486 q 225 497 243 486 q 204 519 207 508 q 201 550 201 531 z "},"":{"ha":1169,"x_min":69,"x_max":1086,"o":"m 517 669 q 456 531 517 590 q 289 471 396 471 q 209 483 246 471 q 151 513 172 496 q 115 547 129 531 q 94 576 100 564 l 89 589 q 69 660 69 628 q 156 717 69 717 q 222 683 208 717 l 225 676 q 228 663 226 669 q 237 647 231 656 q 250 631 243 638 q 268 620 257 625 q 293 615 279 615 q 338 630 318 615 q 357 669 357 644 q 356 686 357 681 q 349 699 354 692 q 328 709 343 706 q 289 713 314 713 q 265 714 274 713 q 247 721 257 715 q 233 740 238 726 q 229 776 229 754 q 240 810 229 799 q 260 824 250 822 q 289 826 271 826 l 294 826 q 344 876 344 826 q 328 907 344 896 q 290 918 313 918 q 262 912 274 918 q 247 899 250 906 q 239 881 243 892 q 235 869 235 871 q 182 839 217 839 q 118 867 151 839 q 93 918 93 889 q 149 1012 93 957 q 296 1067 204 1067 q 445 1013 386 1067 q 504 890 504 958 q 456 785 504 819 q 517 669 517 740 m 1007 583 q 1052 578 1035 583 q 1076 560 1069 572 q 1085 538 1083 547 q 1086 510 1086 529 l 1086 67 q 1085 44 1086 53 q 1076 25 1083 36 q 1052 9 1069 14 q 1006 4 1035 4 q 960 10 978 4 q 936 26 943 15 q 928 45 929 36 q 926 68 926 54 l 925 163 l 721 163 q 674 180 692 163 q 656 233 656 197 q 663 288 656 265 l 721 522 q 776 585 735 585 q 853 567 821 585 q 882 522 882 550 l 869 456 l 833 315 l 925 315 l 925 511 q 926 540 925 531 q 935 562 928 550 q 960 578 942 574 q 1007 583 978 583 m 867 1075 q 907 1032 907 1053 q 897 1006 907 1022 l 360 -10 l 357 -14 q 324 -42 342 -42 q 282 -28 308 -42 q 242 14 242 -7 q 251 43 242 26 l 788 1057 q 825 1089 806 1089 q 867 1075 840 1089 z "},"":{"ha":710,"x_min":35,"x_max":689,"o":"m 597 40 q 689 -42 689 4 q 676 -94 689 -60 l 675 -96 q 675 -99 675 -97 q 667 -122 672 -107 q 637 -172 661 -136 q 581 -235 613 -208 q 493 -285 550 -262 q 367 -308 436 -308 q 127 -214 219 -308 q 35 6 35 -119 q 56 116 35 65 q 108 196 78 167 q 170 245 139 225 q 222 272 201 265 l 244 281 q 247 317 244 306 q 259 344 249 329 q 294 365 269 358 q 358 371 318 371 q 422 365 399 371 q 456 342 446 358 q 467 311 465 325 q 469 269 469 297 l 469 258 q 435 164 469 199 q 361 117 401 129 q 287 80 321 106 q 253 11 253 54 q 278 -61 253 -36 q 368 -86 304 -86 q 431 -69 407 -86 q 461 -36 456 -53 l 465 -21 q 493 33 476 14 q 540 53 510 53 q 597 40 564 53 m 361 476 q 256 506 286 476 q 232 586 232 529 l 232 608 q 234 658 232 642 q 248 696 236 674 q 288 727 260 718 q 363 736 315 736 q 467 707 438 736 q 492 604 492 681 q 489 556 492 572 q 475 517 486 539 q 435 486 464 496 q 361 476 407 476 z "},"":{"ha":1063,"x_min":21,"x_max":1042,"o":"m 578 1060 l 349 1132 q 318 1143 329 1138 q 298 1161 307 1149 q 289 1194 289 1174 q 300 1253 289 1219 q 368 1335 326 1335 q 410 1325 374 1335 l 639 1254 q 669 1242 658 1247 q 689 1224 679 1238 q 699 1190 699 1211 q 688 1132 699 1165 q 619 1050 661 1050 q 582 1058 610 1050 q 581 1058 581 1058 l 578 1060 m 643 946 l 1018 171 q 1042 100 1042 124 q 961 10 1042 50 q 882 -14 914 -14 q 842 -1 860 -14 q 817 25 825 11 q 796 67 810 39 l 724 217 l 339 217 l 267 67 q 245 26 253 39 q 220 1 238 14 q 181 -12 203 -12 q 101 11 149 -12 q 21 100 21 50 q 44 171 21 124 q 419 947 44 171 q 466 999 435 979 q 532 1018 497 1018 q 643 946 607 1018 m 531 613 l 439 422 l 624 422 l 531 613 z "},"":{"ha":1063,"x_min":21,"x_max":1042,"o":"m 490 1078 q 489 1078 489 1078 l 486 1076 q 449 1068 458 1068 q 381 1150 407 1068 q 369 1210 369 1183 q 378 1243 369 1231 q 399 1261 388 1256 q 429 1272 410 1267 l 658 1343 q 700 1353 694 1353 q 767 1271 742 1353 q 778 1213 778 1238 q 769 1179 778 1192 q 749 1161 760 1167 q 718 1150 738 1156 l 490 1078 m 643 946 l 1018 171 q 1042 100 1042 124 q 961 10 1042 50 q 882 -14 914 -14 q 842 -1 860 -14 q 817 25 825 11 q 796 67 810 39 l 724 217 l 339 217 l 267 67 q 245 26 253 39 q 220 1 238 14 q 181 -12 203 -12 q 101 11 149 -12 q 21 100 21 50 q 44 171 21 124 q 419 947 44 171 q 466 999 435 979 q 532 1018 497 1018 q 643 946 607 1018 m 531 613 l 439 422 l 624 422 l 531 613 z "},"":{"ha":1063,"x_min":21,"x_max":1042,"o":"m 758 1282 q 810 1217 810 1265 q 794 1161 810 1190 q 711 1088 758 1088 q 667 1097 699 1088 l 533 1156 l 404 1100 q 403 1100 403 1100 l 400 1099 q 357 1090 375 1090 q 271 1161 304 1090 q 254 1219 254 1197 q 307 1282 254 1264 l 500 1346 q 508 1348 501 1346 q 522 1351 515 1350 q 533 1353 528 1353 q 544 1351 539 1353 q 556 1348 550 1350 q 565 1346 563 1346 q 758 1282 694 1304 m 643 946 l 1018 171 q 1042 100 1042 124 q 961 10 1042 50 q 882 -14 914 -14 q 842 -1 860 -14 q 817 25 825 11 q 796 67 810 39 l 724 217 l 339 217 l 267 67 q 245 26 253 39 q 220 1 238 14 q 181 -12 203 -12 q 101 11 149 -12 q 21 100 21 50 q 44 171 21 124 q 419 947 44 171 q 466 999 435 979 q 532 1018 497 1018 q 643 946 607 1018 m 531 613 l 439 422 l 624 422 l 531 613 z "},"":{"ha":1063,"x_min":21,"x_max":1042,"o":"m 758 1331 q 808 1264 808 1296 q 789 1213 808 1244 q 782 1201 786 1208 q 763 1174 778 1193 q 728 1140 747 1154 q 676 1113 708 1125 q 608 1100 644 1100 q 535 1118 567 1100 q 484 1154 504 1136 q 449 1172 464 1172 q 431 1168 439 1172 q 419 1160 424 1164 l 415 1156 q 351 1100 383 1100 q 297 1128 329 1100 q 253 1193 253 1167 q 272 1242 253 1210 q 279 1253 275 1246 q 299 1280 283 1261 q 335 1313 315 1299 q 387 1340 354 1328 q 456 1351 419 1351 q 528 1334 497 1351 q 578 1299 558 1317 q 611 1282 597 1282 q 631 1286 622 1282 q 642 1294 639 1290 l 646 1299 q 708 1351 675 1351 q 758 1331 729 1351 m 643 946 l 1018 171 q 1042 100 1042 124 q 961 10 1042 50 q 882 -14 914 -14 q 842 -1 860 -14 q 817 25 825 11 q 796 67 810 39 l 724 217 l 339 217 l 267 67 q 245 26 253 39 q 220 1 238 14 q 181 -12 203 -12 q 101 11 149 -12 q 21 100 21 50 q 44 171 21 124 q 419 947 44 171 q 466 999 435 979 q 532 1018 497 1018 q 643 946 607 1018 m 531 613 l 439 422 l 624 422 l 531 613 z "},"":{"ha":1063,"x_min":21,"x_max":1042,"o":"m 419 1113 q 405 1108 419 1113 q 347 1104 392 1104 q 276 1113 303 1104 q 239 1142 250 1121 q 226 1180 228 1164 q 224 1229 224 1196 q 227 1278 225 1264 q 240 1314 229 1293 q 277 1343 250 1335 q 349 1351 304 1351 q 419 1343 393 1351 q 457 1313 446 1335 q 470 1276 468 1292 q 472 1226 472 1260 q 470 1178 472 1194 q 457 1142 468 1163 q 419 1113 446 1121 m 794 1113 q 780 1108 794 1113 q 722 1104 767 1104 q 651 1113 678 1104 q 614 1142 625 1121 q 601 1180 603 1164 q 599 1229 599 1196 q 601 1278 599 1263 q 614 1315 603 1294 q 652 1343 625 1335 q 724 1351 679 1351 q 794 1343 768 1351 q 832 1313 821 1335 q 845 1276 843 1292 q 847 1226 847 1260 q 845 1178 847 1194 q 832 1142 843 1163 q 794 1113 821 1121 m 643 946 l 1018 171 q 1042 100 1042 124 q 961 10 1042 50 q 882 -14 914 -14 q 842 -1 860 -14 q 817 25 825 11 q 796 67 810 39 l 724 217 l 339 217 l 267 67 q 245 26 253 39 q 220 1 238 14 q 181 -12 203 -12 q 101 11 149 -12 q 21 100 21 50 q 44 171 21 124 q 419 947 44 171 q 466 999 435 979 q 532 1018 497 1018 q 643 946 607 1018 m 531 613 l 439 422 l 624 422 l 531 613 z "},"":{"ha":1063,"x_min":21,"x_max":1042,"o":"m 529 1276 q 656 1226 601 1276 q 710 1097 710 1176 q 639 954 710 1008 l 1018 171 q 1042 100 1042 124 q 961 10 1042 50 q 882 -14 914 -14 q 842 -1 860 -14 q 817 25 825 11 q 796 67 810 39 l 724 217 l 339 217 l 267 67 q 245 26 253 39 q 220 1 238 14 q 181 -12 203 -12 q 101 11 149 -12 q 21 100 21 50 q 44 171 21 124 q 424 954 44 169 q 351 1096 351 1007 q 406 1226 351 1175 q 529 1276 461 1276 m 474 1033 q 488 1023 474 1033 q 531 1013 501 1013 q 588 1034 560 1013 q 615 1099 615 1056 q 588 1161 615 1140 q 529 1182 561 1182 q 473 1160 500 1182 q 446 1097 446 1139 q 474 1033 446 1054 m 531 613 l 439 422 l 624 422 l 531 613 z "},"":{"ha":1594,"x_min":0,"x_max":1560,"o":"m 1014 247 l 1446 247 q 1491 244 1475 247 q 1525 231 1507 242 q 1551 193 1543 219 q 1560 124 1560 167 q 1553 64 1560 88 q 1536 28 1546 40 q 1508 9 1526 15 q 1476 2 1489 3 q 1436 1 1463 1 l 889 1 q 803 39 839 1 q 767 126 767 76 l 767 207 l 374 207 l 221 39 q 132 -12 175 -12 q 47 38 89 -12 q 0 131 0 94 q 46 211 0 160 q 746 983 135 307 q 835 1019 781 1019 l 1438 1019 q 1485 1017 1469 1019 q 1522 1004 1501 1015 q 1551 967 1543 993 q 1560 896 1560 940 q 1551 826 1560 853 q 1524 790 1543 800 q 1490 776 1506 779 q 1444 774 1474 774 l 1014 774 l 1014 633 l 1285 633 q 1333 631 1317 633 q 1370 617 1350 628 q 1399 579 1390 606 q 1407 510 1407 553 q 1399 440 1407 467 q 1370 403 1390 414 q 1333 390 1350 392 q 1283 388 1317 388 l 1014 388 l 1014 247 m 560 413 l 767 413 l 767 640 q 560 413 761 633 z "},"":{"ha":943,"x_min":35,"x_max":908,"o":"m 708 279 l 718 285 q 785 314 763 314 q 876 236 826 314 q 907 157 907 188 q 894 119 907 138 q 870 92 882 101 q 833 68 858 83 q 639 -7 756 13 q 692 -118 692 -50 q 640 -231 692 -189 q 542 -268 596 -268 q 503 -262 522 -268 q 475 -253 483 -257 q 464 -246 467 -249 q 431 -206 433 -228 q 430 -202 431 -204 q 429 -199 429 -200 q 444 -164 429 -182 q 492 -132 471 -132 q 510 -138 500 -132 q 525 -146 519 -144 q 543 -151 531 -151 q 563 -143 553 -151 q 574 -119 574 -135 q 563 -96 574 -104 q 543 -87 553 -87 q 522 -94 529 -87 q 489 -107 504 -107 q 443 -74 461 -107 q 429 -37 429 -50 q 430 -33 429 -36 q 431 -29 431 -31 q 454 0 433 -12 q 309 55 379 17 q 175 153 239 93 q 73 308 111 214 q 35 517 35 403 q 71 713 35 624 q 163 858 107 801 q 292 956 219 915 q 433 1013 364 996 q 567 1031 503 1031 q 699 1010 632 1031 q 800 969 765 989 l 835 949 q 872 922 858 932 q 897 894 885 913 q 908 856 908 876 q 879 781 908 821 q 783 706 826 706 q 711 736 760 706 q 556 783 653 783 q 467 767 513 783 q 378 721 421 751 q 308 635 336 690 q 281 510 281 579 q 308 383 281 439 q 380 295 336 326 q 469 249 424 264 q 556 233 514 233 q 637 244 599 233 q 692 267 675 256 l 708 279 z "},"":{"ha":886,"x_min":56,"x_max":851,"o":"m 301 246 l 729 246 q 777 244 761 246 q 814 231 793 242 q 843 193 835 219 q 851 122 851 167 q 844 63 851 86 q 828 26 838 39 q 799 8 818 14 q 767 1 781 1 q 728 0 754 0 l 178 0 q 118 7 142 0 q 82 24 94 14 q 63 52 69 33 q 56 84 57 71 q 56 124 56 97 l 56 896 q 82 992 56 967 q 182 1018 108 1018 l 729 1018 q 777 1016 761 1018 q 814 1003 793 1014 q 843 965 835 992 q 851 894 851 939 q 844 835 851 858 q 828 799 838 811 q 799 780 818 786 q 767 773 781 774 q 728 772 754 772 l 301 772 l 301 632 l 576 632 q 624 630 608 632 q 661 617 640 628 q 690 579 682 606 q 699 508 699 553 q 692 449 699 472 q 675 413 685 425 q 646 394 665 400 q 613 387 626 388 q 574 386 600 386 l 301 386 l 301 246 m 549 1060 l 319 1132 q 289 1143 300 1138 q 269 1161 278 1149 q 260 1194 260 1174 q 271 1253 260 1219 q 339 1335 297 1335 q 381 1325 344 1335 l 610 1254 q 640 1242 629 1247 q 660 1224 650 1238 q 669 1190 669 1211 q 658 1132 669 1165 q 590 1050 632 1050 q 553 1058 581 1050 l 551 1058 q 549 1060 550 1060 z "},"":{"ha":886,"x_min":56,"x_max":851,"o":"m 301 246 l 729 246 q 777 244 761 246 q 814 231 793 242 q 843 193 835 219 q 851 122 851 167 q 844 63 851 86 q 828 26 838 39 q 799 8 818 14 q 767 1 781 1 q 728 0 754 0 l 178 0 q 118 7 142 0 q 82 24 94 14 q 63 52 69 33 q 56 84 57 71 q 56 124 56 97 l 56 896 q 82 992 56 967 q 182 1018 108 1018 l 729 1018 q 777 1016 761 1018 q 814 1003 793 1014 q 843 965 835 992 q 851 894 851 939 q 844 835 851 858 q 828 799 838 811 q 799 780 818 786 q 767 773 781 774 q 728 772 754 772 l 301 772 l 301 632 l 576 632 q 624 630 608 632 q 661 617 640 628 q 690 579 682 606 q 699 508 699 553 q 692 449 699 472 q 675 413 685 425 q 646 394 665 400 q 613 387 626 388 q 574 386 600 386 l 301 386 l 301 246 m 400 1078 l 399 1078 q 396 1076 397 1076 q 358 1068 368 1068 q 290 1150 317 1068 q 279 1210 279 1183 q 288 1243 279 1231 q 308 1261 297 1256 q 339 1272 319 1267 l 568 1343 q 610 1353 604 1353 q 676 1271 651 1353 q 688 1213 688 1238 q 678 1179 688 1192 q 658 1161 669 1167 q 628 1150 647 1156 l 400 1078 z "},"":{"ha":886,"x_min":56,"x_max":851,"o":"m 301 246 l 729 246 q 777 244 761 246 q 814 231 793 242 q 843 193 835 219 q 851 122 851 167 q 844 63 851 86 q 828 26 838 39 q 799 8 818 14 q 767 1 781 1 q 728 0 754 0 l 178 0 q 118 7 142 0 q 82 24 94 14 q 63 52 69 33 q 56 84 57 71 q 56 124 56 97 l 56 896 q 82 992 56 967 q 182 1018 108 1018 l 729 1018 q 777 1016 761 1018 q 814 1003 793 1014 q 843 965 835 992 q 851 894 851 939 q 844 835 851 858 q 828 799 838 811 q 799 780 818 786 q 767 773 781 774 q 728 772 754 772 l 301 772 l 301 632 l 576 632 q 624 630 608 632 q 661 617 640 628 q 690 579 682 606 q 699 508 699 553 q 692 449 699 472 q 675 413 685 425 q 646 394 665 400 q 613 387 626 388 q 574 386 600 386 l 301 386 l 301 246 m 675 1282 q 726 1217 726 1265 q 711 1161 726 1190 q 628 1088 675 1088 q 583 1097 615 1088 l 450 1156 l 321 1100 q 319 1100 319 1100 l 317 1099 q 274 1090 292 1090 q 188 1161 221 1090 q 171 1219 171 1197 q 224 1282 171 1264 l 417 1346 q 425 1348 418 1346 q 438 1351 432 1350 q 450 1353 444 1353 q 461 1351 456 1353 q 473 1348 467 1350 q 482 1346 479 1346 q 675 1282 611 1304 z "},"":{"ha":886,"x_min":56,"x_max":851,"o":"m 301 246 l 729 246 q 777 244 761 246 q 814 231 793 242 q 843 193 835 219 q 851 122 851 167 q 844 63 851 86 q 828 26 838 39 q 799 8 818 14 q 767 1 781 1 q 728 0 754 0 l 178 0 q 118 7 142 0 q 82 24 94 14 q 63 52 69 33 q 56 84 57 71 q 56 124 56 97 l 56 896 q 82 992 56 967 q 182 1018 108 1018 l 729 1018 q 777 1016 761 1018 q 814 1003 793 1014 q 843 965 835 992 q 851 894 851 939 q 844 835 851 858 q 828 799 838 811 q 799 780 818 786 q 767 773 781 774 q 728 772 754 772 l 301 772 l 301 632 l 576 632 q 624 630 608 632 q 661 617 640 628 q 690 579 682 606 q 699 508 699 553 q 692 449 699 472 q 675 413 685 425 q 646 394 665 400 q 613 387 626 388 q 574 386 600 386 l 301 386 l 301 246 m 341 1113 q 327 1108 341 1113 q 269 1104 314 1104 q 199 1113 225 1104 q 161 1142 172 1121 q 148 1180 150 1164 q 146 1229 146 1196 q 149 1278 147 1264 q 162 1314 151 1293 q 199 1343 172 1335 q 271 1351 226 1351 q 342 1343 315 1351 q 379 1313 368 1335 q 392 1276 390 1292 q 394 1226 394 1260 q 392 1178 394 1194 q 379 1142 390 1163 q 341 1113 368 1121 m 716 1113 q 702 1108 716 1113 q 644 1104 689 1104 q 574 1113 600 1104 q 536 1142 547 1121 q 523 1180 525 1164 q 521 1229 521 1196 q 523 1278 521 1263 q 536 1315 525 1294 q 574 1343 547 1335 q 646 1351 601 1351 q 717 1343 690 1351 q 754 1313 743 1335 q 767 1276 765 1292 q 769 1226 769 1260 q 767 1178 769 1194 q 754 1142 765 1163 q 716 1113 743 1121 z "},"":{"ha":371,"x_min":-68,"x_max":342,"o":"m 63 896 q 65 944 63 928 q 78 981 67 960 q 115 1010 89 1001 q 186 1018 142 1018 q 246 1011 222 1018 q 282 994 269 1004 q 301 966 294 985 q 308 934 307 947 q 308 894 308 921 l 308 122 q 306 74 308 89 q 293 38 304 58 q 256 8 282 17 q 185 0 229 0 q 125 7 149 0 q 89 24 101 14 q 70 52 76 33 q 63 84 64 71 q 63 124 63 97 l 63 896 m 221 1060 l -8 1132 q -39 1143 -28 1138 q -59 1161 -50 1149 q -68 1194 -68 1174 q -57 1253 -68 1219 q 11 1335 -31 1335 q 53 1325 17 1335 l 282 1254 q 312 1242 301 1247 q 332 1224 322 1238 q 342 1190 342 1211 q 331 1132 342 1165 q 263 1050 304 1050 q 225 1058 253 1050 l 224 1058 q 221 1060 222 1060 z "},"":{"ha":374,"x_min":32,"x_max":440,"o":"m 64 896 q 66 944 64 928 q 79 981 68 960 q 117 1010 90 1001 q 188 1018 143 1018 q 247 1011 224 1018 q 283 994 271 1004 q 302 966 296 985 q 309 934 308 947 q 310 894 310 921 l 310 122 q 308 74 310 89 q 294 38 306 58 q 257 8 283 17 q 186 0 231 0 q 126 7 150 0 q 90 24 103 14 q 72 52 78 33 q 65 84 65 71 q 64 124 64 97 l 64 896 m 153 1078 l 151 1078 q 149 1076 150 1076 q 111 1068 121 1068 q 43 1150 69 1068 q 32 1210 32 1183 q 41 1243 32 1231 q 61 1261 50 1256 q 92 1272 72 1267 l 321 1343 q 363 1353 357 1353 q 429 1271 404 1353 q 440 1213 440 1238 q 431 1179 440 1192 q 411 1161 422 1167 q 381 1150 400 1156 l 153 1078 z "},"":{"ha":375,"x_min":-90,"x_max":465,"o":"m 64 896 q 66 944 64 928 q 79 981 68 960 q 117 1010 90 1001 q 188 1018 143 1018 q 247 1011 224 1018 q 283 994 271 1004 q 302 966 296 985 q 309 934 308 947 q 310 894 310 921 l 310 122 q 308 74 310 89 q 294 38 306 58 q 257 8 283 17 q 186 0 231 0 q 126 7 150 0 q 90 24 103 14 q 72 52 78 33 q 65 84 65 71 q 64 124 64 97 l 64 896 m 414 1282 q 465 1217 465 1265 q 450 1161 465 1190 q 367 1088 414 1088 q 322 1097 354 1088 l 189 1156 l 60 1100 q 58 1100 58 1100 l 56 1099 q 13 1090 31 1090 q -74 1161 -40 1090 q -90 1219 -90 1197 q -37 1282 -90 1264 l 156 1346 q 164 1348 157 1346 q 177 1351 171 1350 q 189 1353 183 1353 q 200 1351 194 1353 q 212 1348 206 1350 q 221 1346 218 1346 q 414 1282 350 1304 z "},"":{"ha":372,"x_min":-122,"x_max":501,"o":"m 65 896 q 67 944 65 928 q 81 981 69 960 q 118 1010 92 1001 q 189 1018 144 1018 q 249 1011 225 1018 q 285 994 272 1004 q 303 966 297 985 q 310 934 310 947 q 311 894 311 921 l 311 122 q 309 74 311 89 q 296 38 307 58 q 258 8 285 17 q 188 0 232 0 q 128 7 151 0 q 92 24 104 14 q 73 52 79 33 q 66 84 67 71 q 65 124 65 97 l 65 896 m 73 1113 q 59 1108 73 1113 q 1 1104 46 1104 q -69 1113 -43 1104 q -107 1142 -96 1121 q -120 1180 -118 1164 q -122 1229 -122 1196 q -119 1278 -121 1264 q -106 1314 -117 1293 q -69 1343 -96 1335 q 3 1351 -42 1351 q 74 1343 47 1351 q 111 1313 100 1335 q 124 1276 122 1292 q 126 1226 126 1260 q 124 1178 126 1194 q 111 1142 122 1163 q 73 1113 100 1121 m 448 1113 q 434 1108 448 1113 q 376 1104 421 1104 q 306 1113 332 1104 q 268 1142 279 1121 q 255 1180 257 1164 q 253 1229 253 1196 q 255 1278 253 1263 q 268 1315 257 1294 q 306 1343 279 1335 q 378 1351 333 1351 q 449 1343 422 1351 q 486 1313 475 1335 q 499 1276 497 1292 q 501 1226 501 1260 q 499 1178 501 1194 q 486 1142 497 1163 q 448 1113 475 1121 z "},"":{"ha":1076,"x_min":35,"x_max":1042,"o":"m 1042 515 q 892 153 1042 304 q 531 1 743 1 l 276 1 q 208 10 235 1 q 171 37 182 18 q 157 74 160 56 q 154 125 154 93 l 154 418 l 119 418 q 88 420 99 418 q 63 430 78 422 q 42 458 49 438 q 35 513 35 479 q 42 566 35 546 q 64 594 49 586 q 90 603 79 601 q 121 606 100 606 l 154 606 l 154 897 q 156 946 154 931 q 169 982 158 961 q 207 1011 181 1003 q 278 1019 233 1019 q 406 1019 319 1019 q 535 1018 492 1018 q 889 873 736 1018 q 1042 515 1042 728 m 433 418 l 400 418 l 400 247 l 535 247 q 715 322 635 247 q 796 510 796 396 q 717 697 796 621 q 533 772 639 772 l 400 772 l 400 606 l 435 606 q 466 603 456 606 q 491 594 476 601 q 513 565 506 586 q 519 511 519 544 q 513 458 519 478 q 492 429 507 438 q 467 419 478 421 q 433 418 456 418 z "},"":{"ha":1000,"x_min":56,"x_max":944,"o":"m 824 1017 q 883 1010 858 1017 q 919 993 907 1003 q 937 965 931 983 q 944 933 943 946 q 944 893 944 919 l 944 122 q 942 74 944 89 q 929 38 940 58 q 892 8 918 17 q 821 0 865 0 q 746 8 767 0 q 711 35 725 17 q 300 579 399 451 l 300 122 q 298 74 300 89 q 285 38 296 58 q 247 8 274 17 q 176 0 221 0 q 108 8 133 0 q 71 38 82 17 q 58 75 60 58 q 56 124 56 92 l 56 899 q 58 946 56 931 q 72 981 61 961 q 108 1008 82 1000 q 179 1017 135 1017 q 242 1009 218 1017 q 276 992 267 1001 q 301 964 286 983 l 308 956 q 700 429 601 557 l 700 899 q 703 946 700 931 q 716 981 706 961 q 753 1008 726 1000 q 824 1017 779 1017 m 728 1331 q 778 1264 778 1296 q 758 1213 778 1244 q 751 1201 756 1208 q 732 1174 747 1193 q 697 1140 717 1154 q 646 1113 678 1125 q 578 1100 614 1100 q 505 1118 536 1100 q 453 1154 474 1136 q 418 1172 433 1172 q 401 1168 408 1172 q 389 1160 393 1164 l 385 1156 q 321 1100 353 1100 q 267 1128 299 1100 q 222 1193 222 1167 q 242 1242 222 1210 q 249 1253 244 1246 q 269 1280 253 1261 q 304 1313 285 1299 q 356 1340 324 1328 q 425 1351 389 1351 q 497 1334 467 1351 q 547 1299 528 1317 q 581 1282 567 1282 q 600 1286 592 1282 q 611 1294 608 1290 l 615 1299 q 678 1351 644 1351 q 728 1331 699 1351 z "},"":{"ha":1076,"x_min":35,"x_max":1042,"o":"m 533 1031 q 890 882 739 1031 q 1042 506 1042 733 q 897 138 1042 293 q 546 -17 753 -17 q 183 136 331 -17 q 35 500 35 289 q 76 716 35 615 q 188 885 118 817 q 347 992 257 953 q 533 1031 438 1031 m 538 229 q 717 304 638 229 q 796 507 796 379 q 716 708 796 632 q 539 785 636 785 q 360 708 439 785 q 281 506 281 631 q 360 306 281 383 q 538 229 440 229 m 592 1060 l 363 1132 q 332 1143 343 1138 q 312 1161 321 1149 q 303 1194 303 1174 q 314 1253 303 1219 q 382 1335 340 1335 q 424 1325 388 1335 l 653 1254 q 683 1242 672 1247 q 703 1224 693 1238 q 713 1190 713 1211 q 701 1132 713 1165 q 633 1050 675 1050 q 596 1058 624 1050 q 594 1058 594 1058 l 592 1060 z "},"":{"ha":1076,"x_min":35,"x_max":1042,"o":"m 533 1031 q 890 882 739 1031 q 1042 506 1042 733 q 897 138 1042 293 q 546 -17 753 -17 q 183 136 331 -17 q 35 500 35 289 q 76 716 35 615 q 188 885 118 817 q 347 992 257 953 q 533 1031 438 1031 m 538 229 q 717 304 638 229 q 796 507 796 379 q 716 708 796 632 q 539 785 636 785 q 360 708 439 785 q 281 506 281 631 q 360 306 281 383 q 538 229 440 229 m 485 1078 q 483 1078 483 1078 l 481 1076 q 443 1068 453 1068 q 375 1150 401 1068 q 364 1210 364 1183 q 373 1243 364 1231 q 393 1261 382 1256 q 424 1272 404 1267 l 653 1343 q 694 1353 689 1353 q 761 1271 736 1353 q 772 1213 772 1238 q 763 1179 772 1192 q 743 1161 754 1167 q 713 1150 732 1156 l 485 1078 z "},"":{"ha":1076,"x_min":35,"x_max":1042,"o":"m 533 1031 q 890 882 739 1031 q 1042 506 1042 733 q 897 138 1042 293 q 546 -17 753 -17 q 183 136 331 -17 q 35 500 35 289 q 76 716 35 615 q 188 885 118 817 q 347 992 257 953 q 533 1031 438 1031 m 538 229 q 717 304 638 229 q 796 507 796 379 q 716 708 796 632 q 539 785 636 785 q 360 708 439 785 q 281 506 281 631 q 360 306 281 383 q 538 229 440 229 m 767 1282 q 818 1217 818 1265 q 803 1161 818 1190 q 719 1088 767 1088 q 675 1097 707 1088 l 542 1156 l 413 1100 q 411 1100 411 1100 l 408 1099 q 365 1090 383 1090 q 279 1161 313 1090 q 263 1219 263 1197 q 315 1282 263 1264 l 508 1346 q 517 1348 510 1346 q 530 1351 524 1350 q 542 1353 536 1353 q 553 1351 547 1353 q 565 1348 558 1350 q 574 1346 571 1346 q 767 1282 703 1304 z "},"":{"ha":1076,"x_min":35,"x_max":1042,"o":"m 533 1031 q 890 882 739 1031 q 1042 506 1042 733 q 897 138 1042 293 q 546 -17 753 -17 q 183 136 331 -17 q 35 500 35 289 q 76 716 35 615 q 188 885 118 817 q 347 992 257 953 q 533 1031 438 1031 m 538 229 q 717 304 638 229 q 796 507 796 379 q 716 708 796 632 q 539 785 636 785 q 360 708 439 785 q 281 506 281 631 q 360 306 281 383 q 538 229 440 229 m 796 1331 q 846 1264 846 1296 q 826 1213 846 1244 q 819 1201 824 1208 q 800 1174 815 1193 q 765 1140 785 1154 q 714 1113 746 1125 q 646 1100 682 1100 q 573 1118 604 1100 q 522 1154 542 1136 q 486 1172 501 1172 q 469 1168 476 1172 q 457 1160 461 1164 l 453 1156 q 389 1100 421 1100 q 335 1128 367 1100 q 290 1193 290 1167 q 310 1242 290 1210 q 317 1253 313 1246 q 337 1280 321 1261 q 372 1313 353 1299 q 424 1340 392 1328 q 493 1351 457 1351 q 565 1334 535 1351 q 615 1299 596 1317 q 649 1282 635 1282 q 669 1286 660 1282 q 681 1294 678 1290 l 683 1299 q 746 1351 713 1351 q 796 1331 767 1351 z "},"":{"ha":1076,"x_min":35,"x_max":1042,"o":"m 533 1031 q 890 882 739 1031 q 1042 506 1042 733 q 897 138 1042 293 q 546 -17 753 -17 q 183 136 331 -17 q 35 500 35 289 q 76 716 35 615 q 188 885 118 817 q 347 992 257 953 q 533 1031 438 1031 m 538 229 q 717 304 638 229 q 796 507 796 379 q 716 708 796 632 q 539 785 636 785 q 360 708 439 785 q 281 506 281 631 q 360 306 281 383 q 538 229 440 229 m 416 1113 q 402 1108 416 1113 q 344 1104 389 1104 q 274 1113 300 1104 q 236 1142 247 1121 q 223 1180 225 1164 q 221 1229 221 1196 q 224 1278 222 1264 q 237 1314 226 1293 q 274 1343 247 1335 q 346 1351 301 1351 q 417 1343 390 1351 q 454 1313 443 1335 q 467 1276 465 1292 q 469 1226 469 1260 q 467 1178 469 1194 q 454 1142 465 1163 q 416 1113 443 1121 m 791 1113 q 777 1108 791 1113 q 719 1104 764 1104 q 649 1113 675 1104 q 611 1142 622 1121 q 598 1180 600 1164 q 596 1229 596 1196 q 598 1278 596 1263 q 611 1315 600 1294 q 649 1343 622 1335 q 721 1351 676 1351 q 792 1343 765 1351 q 829 1313 818 1335 q 842 1276 840 1292 q 844 1226 844 1260 q 842 1178 844 1194 q 829 1142 840 1163 q 791 1113 818 1121 z "},"":{"ha":724,"x_min":35,"x_max":689,"o":"m 517 368 l 643 242 q 689 165 689 196 q 646 86 689 129 q 564 42 601 42 q 489 86 533 42 l 361 214 l 235 86 q 160 42 190 42 q 78 86 122 42 q 35 165 35 129 q 81 242 35 196 l 207 368 l 79 496 q 35 568 35 540 q 81 649 35 603 q 161 693 125 693 q 236 649 192 693 l 361 522 l 488 649 q 563 693 532 693 q 643 649 599 693 q 689 568 689 603 q 642 493 689 540 l 517 368 z "},"":{"ha":1076,"x_min":35,"x_max":1042,"o":"m 428 -11 q 410 -46 417 -35 q 390 -67 404 -57 q 356 -78 375 -78 q 279 -56 328 -78 q 220 -20 236 -36 q 204 17 204 -4 q 221 85 204 35 l 226 96 q 85 274 136 168 q 35 500 35 381 q 76 716 35 615 q 188 885 118 817 q 347 992 257 953 q 533 1031 438 1031 q 665 1013 603 1031 l 668 1019 q 681 1045 676 1036 q 695 1065 686 1054 q 715 1081 704 1076 q 742 1086 726 1086 q 818 1064 769 1086 q 893 985 893 1028 q 874 915 893 967 l 868 903 q 1042 506 1042 747 q 897 138 1042 293 q 546 -17 753 -17 q 431 -3 493 -17 l 428 -11 m 281 506 q 338 331 281 403 l 556 783 q 539 785 550 785 q 360 708 439 785 q 281 506 281 631 m 796 507 q 751 663 796 596 l 543 229 q 719 307 642 232 q 796 507 796 382 z "},"":{"ha":1008,"x_min":56,"x_max":953,"o":"m 831 1019 q 890 1013 867 1019 q 926 996 914 1006 q 945 967 939 986 q 952 934 951 947 q 953 894 953 921 l 953 475 q 923 300 953 386 q 838 142 893 214 q 696 27 783 71 q 501 -17 608 -17 q 309 28 396 -17 q 168 144 222 72 q 85 302 114 215 q 56 478 56 389 l 56 896 q 58 945 56 929 q 71 982 60 961 q 108 1011 82 1003 q 179 1019 135 1019 q 250 1011 224 1019 q 287 982 276 1003 q 300 944 297 961 q 303 894 303 928 l 303 478 q 313 397 303 436 q 344 317 322 357 q 407 254 365 278 q 506 231 449 231 q 657 306 607 231 q 707 479 707 381 l 707 904 q 710 951 707 935 q 724 985 713 967 q 761 1011 735 1003 q 831 1019 788 1019 m 510 1060 l 281 1132 q 250 1143 261 1138 q 230 1161 239 1149 q 221 1194 221 1174 q 232 1253 221 1219 q 300 1335 258 1335 q 342 1325 306 1335 l 571 1254 q 601 1242 590 1247 q 621 1224 611 1238 q 631 1190 631 1211 q 619 1132 631 1165 q 551 1050 593 1050 q 514 1058 542 1050 l 513 1058 q 510 1060 511 1060 z "},"":{"ha":1008,"x_min":56,"x_max":953,"o":"m 831 1019 q 890 1013 867 1019 q 926 996 914 1006 q 945 967 939 986 q 952 934 951 947 q 953 894 953 921 l 953 475 q 923 300 953 386 q 838 142 893 214 q 696 27 783 71 q 501 -17 608 -17 q 309 28 396 -17 q 168 144 222 72 q 85 302 114 215 q 56 478 56 389 l 56 896 q 58 945 56 929 q 71 982 60 961 q 108 1011 82 1003 q 179 1019 135 1019 q 250 1011 224 1019 q 287 982 276 1003 q 300 944 297 961 q 303 894 303 928 l 303 478 q 313 397 303 436 q 344 317 322 357 q 407 254 365 278 q 506 231 449 231 q 657 306 607 231 q 707 479 707 381 l 707 904 q 710 951 707 935 q 724 985 713 967 q 761 1011 735 1003 q 831 1019 788 1019 m 485 1078 q 483 1078 483 1078 l 481 1076 q 443 1068 453 1068 q 375 1150 401 1068 q 364 1210 364 1183 q 373 1243 364 1231 q 393 1261 382 1256 q 424 1272 404 1267 l 653 1343 q 694 1353 689 1353 q 761 1271 736 1353 q 772 1213 772 1238 q 763 1179 772 1192 q 743 1161 754 1167 q 713 1150 732 1156 l 485 1078 z "},"":{"ha":1008,"x_min":56,"x_max":953,"o":"m 831 1019 q 890 1013 867 1019 q 926 996 914 1006 q 945 967 939 986 q 952 934 951 947 q 953 894 953 921 l 953 475 q 923 300 953 386 q 838 142 893 214 q 696 27 783 71 q 501 -17 608 -17 q 309 28 396 -17 q 168 144 222 72 q 85 302 114 215 q 56 478 56 389 l 56 896 q 58 945 56 929 q 71 982 60 961 q 108 1011 82 1003 q 179 1019 135 1019 q 250 1011 224 1019 q 287 982 276 1003 q 300 944 297 961 q 303 894 303 928 l 303 478 q 313 397 303 436 q 344 317 322 357 q 407 254 365 278 q 506 231 449 231 q 657 306 607 231 q 707 479 707 381 l 707 904 q 710 951 707 935 q 724 985 713 967 q 761 1011 735 1003 q 831 1019 788 1019 m 749 1282 q 800 1217 800 1265 q 785 1161 800 1190 q 701 1088 747 1088 q 657 1097 689 1088 l 524 1156 l 394 1100 l 393 1100 q 390 1099 392 1099 q 347 1090 365 1090 q 261 1161 294 1090 q 244 1219 244 1197 q 297 1282 244 1264 l 490 1346 q 499 1348 492 1346 q 512 1351 506 1350 q 524 1353 518 1353 q 535 1351 529 1353 q 547 1348 540 1350 q 556 1346 553 1346 q 749 1282 685 1304 z "},"":{"ha":1008,"x_min":56,"x_max":953,"o":"m 831 1019 q 890 1013 867 1019 q 926 996 914 1006 q 945 967 939 986 q 952 934 951 947 q 953 894 953 921 l 953 475 q 923 300 953 386 q 838 142 893 214 q 696 27 783 71 q 501 -17 608 -17 q 309 28 396 -17 q 168 144 222 72 q 85 302 114 215 q 56 478 56 389 l 56 896 q 58 945 56 929 q 71 982 60 961 q 108 1011 82 1003 q 179 1019 135 1019 q 250 1011 224 1019 q 287 982 276 1003 q 300 944 297 961 q 303 894 303 928 l 303 478 q 313 397 303 436 q 344 317 322 357 q 407 254 365 278 q 506 231 449 231 q 657 306 607 231 q 707 479 707 381 l 707 904 q 710 951 707 935 q 724 985 713 967 q 761 1011 735 1003 q 831 1019 788 1019 m 763 1113 q 750 1108 763 1113 q 692 1104 736 1104 q 621 1113 647 1104 q 583 1142 594 1121 q 570 1180 572 1164 q 568 1229 568 1196 q 570 1278 568 1263 q 583 1315 572 1294 q 622 1343 594 1335 q 693 1351 649 1351 q 764 1343 738 1351 q 801 1313 790 1335 q 815 1276 813 1292 q 817 1226 817 1260 q 815 1178 817 1194 q 801 1142 813 1163 q 763 1113 790 1121 m 388 1113 q 375 1108 388 1113 q 317 1104 361 1104 q 246 1113 272 1104 q 208 1142 219 1121 q 195 1180 197 1164 q 193 1229 193 1196 q 197 1278 194 1264 q 209 1314 199 1293 q 247 1343 219 1335 q 318 1351 274 1351 q 389 1343 363 1351 q 426 1313 415 1335 q 440 1276 438 1292 q 442 1226 442 1260 q 440 1178 442 1194 q 426 1142 438 1163 q 388 1113 415 1121 z "},"":{"ha":953,"x_min":21,"x_max":932,"o":"m 864 999 q 932 907 932 951 q 900 833 932 881 l 600 385 l 600 119 q 598 72 600 88 q 585 35 596 56 q 547 6 574 14 q 476 -3 521 -3 q 406 6 432 -3 q 368 35 379 14 q 355 73 357 57 q 353 122 353 89 l 353 385 l 53 833 q 21 907 21 881 q 90 999 21 951 q 178 1033 143 1033 q 212 1022 196 1033 q 237 1000 228 1011 q 261 965 246 989 l 476 621 l 692 965 q 716 1000 707 989 q 741 1022 725 1011 q 776 1033 757 1033 q 864 999 808 1033 m 419 1078 l 418 1078 q 415 1076 417 1076 q 378 1068 388 1068 q 310 1150 336 1068 q 299 1210 299 1183 q 308 1243 299 1231 q 328 1261 317 1256 q 358 1272 339 1267 l 588 1343 q 629 1353 624 1353 q 696 1271 671 1353 q 707 1213 707 1238 q 698 1179 707 1192 q 678 1161 689 1167 q 647 1150 667 1156 l 419 1078 z "},"":{"ha":881,"x_min":56,"x_max":843,"o":"m 56 896 q 58 944 56 928 q 71 981 60 960 q 108 1010 82 1001 q 179 1018 135 1018 q 239 1011 215 1018 q 275 994 263 1004 q 294 966 288 985 q 301 934 300 947 q 301 894 301 921 l 301 878 l 476 878 q 597 855 535 878 q 715 789 658 832 q 807 672 771 746 q 843 508 843 599 q 807 345 843 418 q 715 229 771 272 q 596 163 658 186 q 475 140 533 140 l 301 140 l 301 124 q 299 76 301 92 q 286 39 297 60 q 249 10 275 18 q 178 1 222 1 q 118 8 142 1 q 82 25 94 15 q 63 53 69 35 q 56 85 57 72 q 56 125 56 99 l 56 896 m 599 510 q 558 601 599 569 q 475 632 518 632 l 301 632 l 301 386 l 476 386 q 558 417 518 386 q 599 510 599 447 z "},"":{"ha":879,"x_min":56,"x_max":844,"o":"m 603 592 q 628 542 603 565 q 688 496 653 518 q 759 444 724 474 q 819 364 794 415 q 844 244 844 313 q 590 -4 844 -4 q 471 7 540 -4 q 390 33 417 15 q 364 97 364 51 q 371 151 364 125 q 399 223 383 201 q 439 244 414 244 q 492 231 457 244 q 569 207 551 207 q 617 283 617 207 q 581 331 617 304 q 501 384 544 358 q 422 459 458 410 q 386 569 386 508 q 402 657 386 618 q 437 715 418 696 q 472 758 456 735 q 488 806 488 782 q 421 840 488 840 q 296 732 296 840 l 296 74 q 294 26 296 42 q 281 -8 292 11 q 244 -36 271 -28 q 175 -44 218 -44 q 106 -36 132 -44 q 70 -8 81 -28 q 58 28 60 13 q 56 76 56 44 l 56 719 q 83 900 56 838 q 192 1000 111 963 q 418 1044 289 1044 q 721 853 721 1044 q 691 724 721 778 q 632 639 661 669 q 603 592 603 608 z "},"":{"ha":828,"x_min":35,"x_max":772,"o":"m 651 732 q 721 724 694 732 q 758 694 747 715 q 770 658 768 674 q 772 610 772 642 l 772 124 q 770 76 772 92 q 758 40 768 60 q 721 11 747 19 q 650 3 694 3 q 562 22 588 3 q 532 76 536 40 q 365 3 481 3 q 138 113 240 3 q 35 369 35 222 q 138 622 35 513 q 365 731 242 731 q 451 714 413 731 q 506 683 490 697 q 531 654 521 668 q 560 713 535 693 q 651 732 586 732 m 517 800 l 288 872 q 257 883 268 878 q 237 901 246 889 q 228 935 228 914 q 239 993 228 960 q 307 1075 265 1075 q 349 1065 313 1075 l 578 994 q 608 983 597 988 q 628 965 618 978 q 638 931 638 951 q 626 872 638 906 q 558 790 600 790 q 521 799 549 790 q 517 800 519 799 m 403 246 q 487 283 453 246 q 521 367 521 321 q 488 450 521 411 q 400 489 456 489 q 312 450 346 489 q 278 365 278 411 q 314 283 278 319 q 403 246 350 246 z "},"":{"ha":828,"x_min":35,"x_max":772,"o":"m 651 732 q 721 724 694 732 q 758 694 747 715 q 770 658 768 674 q 772 610 772 642 l 772 124 q 770 76 772 92 q 758 40 768 60 q 721 11 747 19 q 650 3 694 3 q 562 22 588 3 q 532 76 536 40 q 365 3 481 3 q 138 113 240 3 q 35 369 35 222 q 138 622 35 513 q 365 731 242 731 q 451 714 413 731 q 506 683 490 697 q 531 654 521 668 q 560 713 535 693 q 651 732 586 732 m 368 800 q 367 800 367 800 l 364 799 q 326 790 336 790 q 258 872 285 790 q 247 932 247 906 q 256 965 247 953 q 276 983 265 978 q 307 994 288 989 l 536 1065 q 578 1075 572 1075 q 644 993 619 1075 q 656 935 656 960 q 647 901 656 914 q 626 883 638 889 q 596 872 615 878 l 368 800 m 403 246 q 487 283 453 246 q 521 367 521 321 q 488 450 521 411 q 400 489 456 489 q 312 450 346 489 q 278 365 278 411 q 314 283 278 319 q 403 246 350 246 z "},"":{"ha":828,"x_min":35,"x_max":772,"o":"m 651 732 q 721 724 694 732 q 758 694 747 715 q 770 658 768 674 q 772 610 772 642 l 772 124 q 770 76 772 92 q 758 40 768 60 q 721 11 747 19 q 650 3 694 3 q 562 22 588 3 q 532 76 536 40 q 365 3 481 3 q 138 113 240 3 q 35 369 35 222 q 138 622 35 513 q 365 731 242 731 q 451 714 413 731 q 506 683 490 697 q 531 654 521 668 q 560 713 535 693 q 651 732 586 732 m 403 246 q 487 283 453 246 q 521 367 521 321 q 488 450 521 411 q 400 489 456 489 q 312 450 346 489 q 278 365 278 411 q 314 283 278 319 q 403 246 350 246 m 679 1004 q 731 939 731 988 q 715 883 731 913 q 632 810 678 810 q 588 819 619 810 l 454 878 l 325 822 l 324 822 q 321 821 322 821 q 278 813 296 813 q 192 883 225 813 q 175 942 175 919 q 228 1004 175 986 l 421 1068 q 429 1070 422 1068 q 442 1074 436 1072 q 454 1075 449 1075 q 465 1074 460 1075 q 477 1070 471 1072 q 486 1068 483 1068 q 679 1004 615 1026 z "},"":{"ha":828,"x_min":35,"x_max":772,"o":"m 651 732 q 721 724 694 732 q 758 694 747 715 q 770 658 768 674 q 772 610 772 642 l 772 124 q 770 76 772 92 q 758 40 768 60 q 721 11 747 19 q 650 3 694 3 q 562 22 588 3 q 532 76 536 40 q 365 3 481 3 q 138 113 240 3 q 35 369 35 222 q 138 622 35 513 q 365 731 242 731 q 451 714 413 731 q 506 683 490 697 q 531 654 521 668 q 560 713 535 693 q 651 732 586 732 m 403 246 q 487 283 453 246 q 521 367 521 321 q 488 450 521 411 q 400 489 456 489 q 312 450 346 489 q 278 365 278 411 q 314 283 278 319 q 403 246 350 246 m 679 1053 q 729 986 729 1018 q 710 935 729 967 q 703 923 707 931 q 683 896 699 915 q 649 862 668 876 q 597 835 629 847 q 529 822 565 822 q 456 840 488 822 q 405 876 425 858 q 369 894 385 894 q 352 890 360 894 q 340 882 344 886 l 336 878 q 272 822 304 822 q 218 850 250 822 q 174 915 174 889 q 193 964 174 932 q 200 976 196 968 q 220 1002 204 983 q 256 1035 236 1021 q 308 1062 275 1050 q 376 1074 340 1074 q 448 1056 417 1074 q 499 1022 479 1039 q 532 1004 518 1004 q 552 1008 543 1004 q 564 1017 561 1013 l 567 1021 q 629 1074 596 1074 q 679 1053 650 1074 z "},"":{"ha":828,"x_min":35,"x_max":772,"o":"m 651 732 q 721 724 694 732 q 758 694 747 715 q 770 658 768 674 q 772 610 772 642 l 772 124 q 770 76 772 92 q 758 40 768 60 q 721 11 747 19 q 650 3 694 3 q 562 22 588 3 q 532 76 536 40 q 365 3 481 3 q 138 113 240 3 q 35 369 35 222 q 138 622 35 513 q 365 731 242 731 q 451 714 413 731 q 506 683 490 697 q 531 654 521 668 q 560 713 535 693 q 651 732 586 732 m 403 246 q 487 283 453 246 q 521 367 521 321 q 488 450 521 411 q 400 489 456 489 q 312 450 346 489 q 278 365 278 411 q 314 283 278 319 q 403 246 350 246 m 335 835 q 322 831 335 835 q 264 826 308 826 q 193 835 219 826 q 156 865 167 843 q 142 902 144 886 q 140 951 140 918 q 144 1001 142 986 q 156 1036 146 1015 q 194 1065 167 1057 q 265 1074 221 1074 q 336 1065 310 1074 q 374 1035 363 1057 q 387 998 385 1014 q 389 949 389 982 q 387 901 389 917 q 374 864 385 885 q 335 835 363 843 m 710 835 q 697 831 710 835 q 639 826 683 826 q 568 835 594 826 q 531 865 542 843 q 517 902 519 886 q 515 951 515 918 q 517 1001 515 985 q 531 1037 519 1017 q 569 1065 542 1057 q 640 1074 596 1074 q 711 1065 685 1074 q 749 1035 738 1057 q 762 998 760 1014 q 764 949 764 982 q 762 901 764 917 q 749 864 760 885 q 710 835 738 843 z "},"":{"ha":828,"x_min":35,"x_max":772,"o":"m 456 1043 q 555 1003 513 1043 q 597 901 597 964 q 553 800 597 839 q 457 761 510 761 q 358 801 403 761 q 314 901 314 840 q 358 1003 314 963 q 456 1043 401 1043 m 410 853 q 421 844 410 853 q 456 836 432 836 q 501 853 479 836 q 522 903 522 869 q 501 953 522 936 q 456 969 481 969 q 410 952 432 969 q 389 903 389 935 q 410 853 389 869 m 651 732 q 721 724 694 732 q 758 694 747 715 q 770 658 768 674 q 772 610 772 642 l 772 124 q 770 76 772 92 q 758 40 768 60 q 721 11 747 19 q 650 3 694 3 q 562 22 588 3 q 532 76 536 40 q 365 3 481 3 q 138 113 240 3 q 35 369 35 222 q 138 622 35 513 q 365 731 242 731 q 451 714 413 731 q 506 683 490 697 q 531 654 521 668 q 560 713 535 693 q 651 732 586 732 m 403 246 q 487 283 453 246 q 521 367 521 321 q 488 450 521 411 q 400 489 456 489 q 312 450 346 489 q 278 365 278 411 q 314 283 278 319 q 403 246 350 246 z "},"":{"ha":1264,"x_min":35,"x_max":1229,"o":"m 1044 221 q 1099 235 1081 235 q 1175 175 1144 235 q 1193 111 1193 139 q 1178 67 1193 86 q 1149 42 1163 49 q 1113 28 1135 36 q 1109 27 1111 28 q 1106 25 1107 26 q 901 -10 1010 -10 q 606 108 711 -10 l 603 103 q 481 17 549 47 q 288 -12 414 -12 q 35 207 35 -12 q 115 343 35 297 q 319 389 196 389 q 501 346 438 389 l 501 354 q 385 518 488 518 q 281 472 324 518 q 190 421 232 421 q 106 471 147 421 q 54 569 54 532 q 104 650 54 604 q 217 715 143 686 q 381 743 290 743 q 629 643 525 743 q 901 739 736 739 q 1048 712 982 739 q 1151 642 1114 685 q 1209 553 1189 600 q 1229 460 1229 506 q 1187 330 1229 369 q 1093 290 1144 290 l 769 290 q 815 225 769 251 q 913 199 860 199 q 982 204 949 199 q 1031 215 1015 210 l 1044 221 m 340 151 q 444 172 393 151 q 521 225 494 192 l 517 238 q 361 263 453 263 q 247 215 247 263 q 340 151 247 151 m 899 528 q 812 492 856 528 q 768 414 768 456 l 943 414 q 992 457 992 414 q 967 508 992 489 q 899 528 943 528 z "},"":{"ha":728,"x_min":35,"x_max":693,"o":"m 488 264 q 557 293 533 293 q 661 218 599 293 q 693 144 693 178 q 617 44 693 93 q 501 -1 572 14 q 550 -112 550 -44 q 497 -228 550 -185 q 394 -267 451 -267 q 356 -261 375 -267 q 327 -251 336 -256 q 315 -243 318 -246 q 281 -201 283 -224 q 280 -198 281 -200 q 279 -194 279 -196 q 294 -160 279 -178 q 344 -126 322 -126 q 363 -133 353 -126 q 378 -140 372 -139 q 397 -146 383 -146 q 417 -137 407 -146 q 428 -114 428 -129 q 417 -89 428 -97 q 396 -81 407 -81 q 376 -87 383 -81 q 340 -101 354 -101 q 293 -67 317 -101 q 279 -29 279 -43 q 280 -25 279 -28 q 281 -21 281 -22 q 301 8 285 -4 q 112 138 189 44 q 35 371 35 232 q 71 534 35 460 q 165 653 107 608 q 288 723 222 699 q 415 747 353 747 q 519 733 469 747 q 593 706 569 719 l 617 690 q 656 664 643 674 q 681 636 668 654 q 693 597 693 618 q 663 517 693 565 q 565 440 613 440 q 490 471 539 440 q 414 494 464 494 q 329 462 369 494 q 289 368 289 429 q 328 275 289 308 q 413 242 368 242 q 453 247 435 242 q 481 258 472 253 l 488 264 z "},"":{"ha":796,"x_min":35,"x_max":761,"o":"m 485 800 l 256 872 q 225 883 236 878 q 205 901 214 889 q 196 935 196 914 q 207 993 196 960 q 275 1075 233 1075 q 317 1065 281 1075 l 546 994 q 576 983 565 988 q 596 965 586 978 q 606 931 606 951 q 594 872 606 906 q 526 790 568 790 q 489 799 517 790 l 488 800 q 485 800 486 800 m 761 460 q 719 327 761 368 q 625 286 676 286 l 296 286 q 342 221 296 247 q 440 194 388 194 q 511 200 478 194 q 560 211 544 206 l 575 217 q 631 232 608 232 q 707 169 675 232 q 725 106 725 132 q 429 -18 725 -18 q 247 17 326 -18 q 122 110 167 53 q 56 232 78 168 q 35 363 35 296 q 148 642 35 538 q 431 747 261 747 q 556 728 499 747 q 650 680 613 710 q 713 611 688 650 q 750 534 739 572 q 761 460 761 496 m 468 413 q 521 457 521 413 q 497 508 521 489 q 426 528 472 528 q 338 491 382 528 q 293 413 293 454 l 468 413 z "},"":{"ha":796,"x_min":35,"x_max":761,"o":"m 356 800 l 354 800 q 351 799 353 799 q 314 790 324 790 q 246 872 272 790 q 235 932 235 906 q 244 965 235 953 q 264 983 253 978 q 294 994 275 989 l 524 1065 q 565 1075 560 1075 q 632 993 607 1075 q 643 935 643 960 q 634 901 643 914 q 614 883 625 889 q 583 872 603 878 l 356 800 m 761 460 q 719 327 761 368 q 625 286 676 286 l 296 286 q 342 221 296 247 q 440 194 388 194 q 511 200 478 194 q 560 211 544 206 l 575 217 q 631 232 608 232 q 707 169 675 232 q 725 106 725 132 q 429 -18 725 -18 q 247 17 326 -18 q 122 110 167 53 q 56 232 78 168 q 35 363 35 296 q 148 642 35 538 q 431 747 261 747 q 556 728 499 747 q 650 680 613 710 q 713 611 688 650 q 750 534 739 572 q 761 460 761 496 m 468 413 q 521 457 521 413 q 497 508 521 489 q 426 528 472 528 q 338 491 382 528 q 293 413 293 454 l 468 413 z "},"":{"ha":796,"x_min":35,"x_max":761,"o":"m 638 1004 q 689 939 689 988 q 674 883 689 913 q 590 810 636 810 q 546 819 578 810 l 413 878 l 283 822 l 282 822 q 279 821 281 821 q 236 813 254 813 q 150 883 183 813 q 133 942 133 919 q 186 1004 133 986 l 379 1068 q 388 1070 381 1068 q 401 1074 394 1072 q 413 1075 407 1075 q 424 1074 418 1075 q 435 1070 429 1072 q 444 1068 442 1068 q 638 1004 574 1026 m 761 460 q 719 327 761 368 q 625 286 676 286 l 296 286 q 342 221 296 247 q 440 194 388 194 q 511 200 478 194 q 560 211 544 206 l 575 217 q 631 232 608 232 q 707 169 675 232 q 725 106 725 132 q 429 -18 725 -18 q 247 17 326 -18 q 122 110 167 53 q 56 232 78 168 q 35 363 35 296 q 148 642 35 538 q 431 747 261 747 q 556 728 499 747 q 650 680 613 710 q 713 611 688 650 q 750 534 739 572 q 761 460 761 496 m 468 413 q 521 457 521 413 q 497 508 521 489 q 426 528 472 528 q 338 491 382 528 q 293 413 293 454 l 468 413 z "},"":{"ha":796,"x_min":35,"x_max":761,"o":"m 659 835 q 645 831 659 835 q 588 826 632 826 q 517 835 543 826 q 479 865 490 843 q 466 902 468 886 q 464 951 464 918 q 466 1001 464 985 q 479 1037 468 1017 q 517 1065 490 1057 q 589 1074 544 1074 q 660 1065 633 1074 q 697 1035 686 1057 q 710 998 708 1014 q 713 949 713 982 q 710 901 713 917 q 697 864 708 885 q 659 835 686 843 m 284 835 q 270 831 284 835 q 213 826 257 826 q 142 835 168 826 q 104 865 115 843 q 91 902 93 886 q 89 951 89 918 q 92 1001 90 986 q 105 1036 94 1015 q 142 1065 115 1057 q 214 1074 169 1074 q 285 1065 258 1074 q 322 1035 311 1057 q 335 998 333 1014 q 338 949 338 982 q 335 901 338 917 q 322 864 333 885 q 284 835 311 843 m 761 460 q 719 327 761 368 q 625 286 676 286 l 296 286 q 342 221 296 247 q 440 194 388 194 q 511 200 478 194 q 560 211 544 206 l 575 217 q 631 232 608 232 q 707 169 675 232 q 725 106 725 132 q 429 -18 725 -18 q 247 17 326 -18 q 122 110 167 53 q 56 232 78 168 q 35 363 35 296 q 148 642 35 538 q 431 747 261 747 q 556 728 499 747 q 650 680 613 710 q 713 611 688 650 q 750 534 739 572 q 761 460 761 496 m 468 413 q 521 457 521 413 q 497 508 521 489 q 426 528 472 528 q 338 491 382 528 q 293 413 293 454 l 468 413 z "},"":{"ha":354,"x_min":-65,"x_max":344,"o":"m 56 610 q 58 658 56 642 q 70 694 60 674 q 107 722 81 714 q 178 731 133 731 q 237 724 213 731 q 273 707 261 717 q 291 678 285 697 q 298 647 297 660 q 299 607 299 633 l 299 121 q 297 73 299 89 q 284 37 294 57 q 247 8 274 17 q 176 0 221 0 q 107 8 133 0 q 70 38 81 17 q 58 74 60 58 q 56 122 56 89 l 56 610 m 224 800 l -6 872 q -36 883 -25 878 q -56 901 -47 889 q -65 935 -65 914 q -54 993 -65 960 q 14 1075 -28 1075 q 56 1065 19 1075 l 285 994 q 315 983 304 988 q 335 965 325 978 q 344 931 344 951 q 333 872 344 906 q 265 790 307 790 q 228 799 256 790 l 226 800 q 224 800 225 800 z "},"":{"ha":354,"x_min":22,"x_max":431,"o":"m 56 610 q 58 658 56 642 q 70 694 60 674 q 107 722 81 714 q 178 731 133 731 q 237 724 213 731 q 273 707 261 717 q 291 678 285 697 q 298 647 297 660 q 299 607 299 633 l 299 121 q 297 73 299 89 q 284 37 294 57 q 247 8 274 17 q 176 0 221 0 q 107 8 133 0 q 70 38 81 17 q 58 74 60 58 q 56 122 56 89 l 56 610 m 143 800 q 142 800 142 800 l 139 799 q 101 790 111 790 q 33 872 60 790 q 22 932 22 906 q 31 965 22 953 q 51 983 40 978 q 82 994 63 989 l 311 1065 q 353 1075 347 1075 q 419 993 394 1075 q 431 935 431 960 q 422 901 431 914 q 401 883 413 889 q 371 872 390 878 l 143 800 z "},"":{"ha":354,"x_min":-100,"x_max":456,"o":"m 56 610 q 58 658 56 642 q 70 694 60 674 q 107 722 81 714 q 178 731 133 731 q 237 724 213 731 q 273 707 261 717 q 291 678 285 697 q 298 647 297 660 q 299 607 299 633 l 299 121 q 297 73 299 89 q 284 37 294 57 q 247 8 274 17 q 176 0 221 0 q 107 8 133 0 q 70 38 81 17 q 58 74 60 58 q 56 122 56 89 l 56 610 m 404 1004 q 456 939 456 988 q 440 883 456 913 q 357 810 403 810 q 313 819 344 810 l 179 878 l 50 822 l 49 822 q 46 821 47 821 q 3 813 21 813 q -83 883 -50 813 q -100 942 -100 919 q -47 1004 -100 986 l 146 1068 q 154 1070 147 1068 q 167 1074 161 1072 q 179 1075 174 1075 q 190 1074 185 1075 q 202 1070 196 1072 q 211 1068 208 1068 q 404 1004 340 1026 z "},"":{"ha":354,"x_min":-135,"x_max":489,"o":"m 56 610 q 58 658 56 642 q 70 694 60 674 q 107 722 81 714 q 178 731 133 731 q 237 724 213 731 q 273 707 261 717 q 291 678 285 697 q 298 647 297 660 q 299 607 299 633 l 299 121 q 297 73 299 89 q 284 37 294 57 q 247 8 274 17 q 176 0 221 0 q 107 8 133 0 q 70 38 81 17 q 58 74 60 58 q 56 122 56 89 l 56 610 m 60 835 q 47 831 60 835 q -11 826 33 826 q -82 835 -56 826 q -119 865 -108 843 q -133 902 -131 886 q -135 951 -135 918 q -131 1001 -133 986 q -119 1036 -129 1015 q -81 1065 -108 1057 q -10 1074 -54 1074 q 61 1065 35 1074 q 99 1035 88 1057 q 112 998 110 1014 q 114 949 114 982 q 112 901 114 917 q 99 864 110 885 q 60 835 88 843 m 435 835 q 422 831 435 835 q 364 826 408 826 q 293 835 319 826 q 256 865 267 843 q 242 902 244 886 q 240 951 240 918 q 242 1001 240 985 q 256 1037 244 1017 q 294 1065 267 1057 q 365 1074 321 1074 q 436 1065 410 1074 q 474 1035 463 1057 q 487 998 485 1014 q 489 949 489 982 q 487 901 489 917 q 474 864 485 885 q 435 835 463 843 z "},"":{"ha":813,"x_min":35,"x_max":778,"o":"m 536 1021 l 503 976 q 778 403 778 776 q 775 336 778 381 q 662 96 767 204 q 406 -12 557 -12 q 150 91 265 -12 q 35 354 35 194 q 67 501 35 432 q 151 617 100 571 q 264 689 203 663 q 383 715 325 715 q 491 699 451 715 q 572 650 531 682 q 394 832 499 776 l 351 775 q 308 743 328 743 q 272 757 294 743 q 232 804 232 781 q 250 840 232 817 l 282 883 l 278 885 q 253 898 276 886 q 223 920 231 910 q 215 949 215 931 q 235 1010 215 972 q 307 1068 265 1068 q 374 1047 322 1068 q 397 1038 375 1047 l 431 1082 q 438 1092 433 1085 q 446 1103 443 1100 q 453 1111 449 1107 q 464 1117 458 1115 q 475 1119 469 1119 q 514 1104 492 1119 q 551 1058 551 1082 q 536 1021 551 1044 m 404 226 q 494 259 450 226 q 538 358 538 292 q 496 457 538 425 q 403 489 454 489 q 315 456 357 489 q 274 357 274 422 q 317 259 274 292 q 404 226 360 226 z "},"":{"ha":842,"x_min":56,"x_max":786,"o":"m 463 732 q 694 626 601 732 q 786 367 786 519 l 786 122 q 784 74 786 90 q 772 38 782 58 q 735 10 761 18 q 664 1 708 1 q 604 8 628 1 q 568 24 581 15 q 549 53 556 33 q 542 85 543 72 q 542 124 542 97 l 542 368 q 509 457 542 425 q 421 489 476 489 q 333 456 367 489 q 299 368 299 422 l 299 122 q 297 74 299 90 q 284 38 294 58 q 247 10 274 18 q 176 1 221 1 q 107 10 133 1 q 70 39 81 18 q 58 76 60 60 q 56 124 56 92 l 56 615 q 58 662 56 646 q 71 697 60 678 q 108 724 82 717 q 178 732 135 732 q 246 724 219 732 q 282 699 272 715 q 294 672 292 683 q 296 643 296 661 q 303 653 299 647 q 324 674 308 658 q 358 701 340 689 q 405 722 376 713 q 463 732 433 732 m 653 1053 q 703 986 703 1018 q 683 935 703 967 q 676 923 681 931 q 657 896 672 915 q 622 862 642 876 q 571 835 603 847 q 503 822 539 822 q 430 840 461 822 q 378 876 399 858 q 343 894 358 894 q 326 890 333 894 q 314 882 318 886 l 310 878 q 246 822 278 822 q 192 850 224 822 q 147 915 147 889 q 167 964 147 932 q 174 976 169 968 q 194 1002 178 983 q 229 1035 210 1021 q 281 1062 249 1050 q 350 1074 314 1074 q 422 1056 392 1074 q 472 1022 453 1039 q 506 1004 492 1004 q 525 1008 517 1004 q 536 1017 533 1013 l 540 1021 q 603 1074 569 1074 q 653 1053 624 1074 z "},"":{"ha":833,"x_min":35,"x_max":799,"o":"m 415 749 q 683 641 568 749 q 799 367 799 533 q 739 162 799 251 q 594 30 679 72 q 418 -12 508 -12 q 239 33 325 -12 q 94 166 153 78 q 35 365 35 254 q 151 640 35 532 q 415 749 268 749 m 499 800 l 269 872 q 239 883 250 878 q 219 901 228 889 q 210 935 210 914 q 221 993 210 960 q 289 1075 247 1075 q 331 1065 294 1075 l 560 994 q 590 983 579 988 q 610 965 600 978 q 619 931 619 951 q 608 872 619 906 q 540 790 582 790 q 503 799 531 790 l 501 800 q 499 800 500 800 m 325 266 q 347 249 325 266 q 415 232 369 232 q 507 267 461 232 q 553 369 553 301 q 510 471 553 438 q 414 504 467 504 q 324 469 367 504 q 281 368 281 435 q 325 266 281 300 z "},"":{"ha":833,"x_min":35,"x_max":799,"o":"m 415 749 q 683 641 568 749 q 799 367 799 533 q 739 162 799 251 q 594 30 679 72 q 418 -12 508 -12 q 239 33 325 -12 q 94 166 153 78 q 35 365 35 254 q 151 640 35 532 q 415 749 268 749 m 365 800 q 364 800 364 800 l 361 799 q 324 790 333 790 q 256 872 282 790 q 244 932 244 906 q 253 965 244 953 q 274 983 263 978 q 304 994 285 989 l 533 1065 q 575 1075 569 1075 q 642 993 617 1075 q 653 935 653 960 q 644 901 653 914 q 624 883 635 889 q 593 872 613 878 l 365 800 m 325 266 q 347 249 325 266 q 415 232 369 232 q 507 267 461 232 q 553 369 553 301 q 510 471 553 438 q 414 504 467 504 q 324 469 367 504 q 281 368 281 435 q 325 266 281 300 z "},"":{"ha":833,"x_min":35,"x_max":799,"o":"m 415 749 q 683 641 568 749 q 799 367 799 533 q 739 162 799 251 q 594 30 679 72 q 418 -12 508 -12 q 239 33 325 -12 q 94 166 153 78 q 35 365 35 254 q 151 640 35 532 q 415 749 268 749 m 325 266 q 347 249 325 266 q 415 232 369 232 q 507 267 461 232 q 553 369 553 301 q 510 471 553 438 q 414 504 467 504 q 324 469 367 504 q 281 368 281 435 q 325 266 281 300 m 647 1004 q 699 939 699 988 q 683 883 699 913 q 600 810 647 810 q 556 819 588 810 l 422 878 l 293 822 q 292 822 292 822 l 289 821 q 246 813 264 813 q 160 883 193 813 q 143 942 143 919 q 196 1004 143 986 l 389 1068 q 397 1070 390 1068 q 410 1074 404 1072 q 422 1075 417 1075 q 433 1074 428 1075 q 445 1070 439 1072 q 454 1068 451 1068 q 647 1004 583 1026 z "},"":{"ha":833,"x_min":35,"x_max":799,"o":"m 415 749 q 683 641 568 749 q 799 367 799 533 q 739 162 799 251 q 594 30 679 72 q 418 -12 508 -12 q 239 33 325 -12 q 94 166 153 78 q 35 365 35 254 q 151 640 35 532 q 415 749 268 749 m 325 266 q 347 249 325 266 q 415 232 369 232 q 507 267 461 232 q 553 369 553 301 q 510 471 553 438 q 414 504 467 504 q 324 469 367 504 q 281 368 281 435 q 325 266 281 300 m 647 1053 q 697 986 697 1018 q 678 935 697 967 q 671 923 675 931 q 651 896 667 915 q 617 862 636 876 q 565 835 597 847 q 497 822 533 822 q 424 840 456 822 q 373 876 393 858 q 338 894 353 894 q 320 890 328 894 q 308 882 313 886 l 304 878 q 240 822 272 822 q 186 850 218 822 q 142 915 142 889 q 161 964 142 932 q 168 976 164 968 q 188 1002 172 983 q 224 1035 204 1021 q 276 1062 243 1050 q 344 1074 308 1074 q 417 1056 386 1074 q 467 1022 447 1039 q 500 1004 486 1004 q 519 1008 511 1004 q 531 1017 528 1013 l 535 1021 q 597 1074 564 1074 q 647 1053 618 1074 z "},"":{"ha":833,"x_min":35,"x_max":799,"o":"m 415 749 q 683 641 568 749 q 799 367 799 533 q 739 162 799 251 q 594 30 679 72 q 418 -12 508 -12 q 239 33 325 -12 q 94 166 153 78 q 35 365 35 254 q 151 640 35 532 q 415 749 268 749 m 325 266 q 347 249 325 266 q 415 232 369 232 q 507 267 461 232 q 553 369 553 301 q 510 471 553 438 q 414 504 467 504 q 324 469 367 504 q 281 368 281 435 q 325 266 281 300 m 294 835 q 280 831 294 835 q 222 826 267 826 q 151 835 178 826 q 114 865 125 843 q 101 902 103 886 q 99 951 99 918 q 102 1001 100 986 q 115 1036 104 1015 q 152 1065 125 1057 q 224 1074 179 1074 q 294 1065 268 1074 q 332 1035 321 1057 q 345 998 343 1014 q 347 949 347 982 q 345 901 347 917 q 332 864 343 885 q 294 835 321 843 m 669 835 q 655 831 669 835 q 597 826 642 826 q 526 835 553 826 q 489 865 500 843 q 476 902 478 886 q 474 951 474 918 q 476 1001 474 985 q 489 1037 478 1017 q 527 1065 500 1057 q 599 1074 554 1074 q 669 1065 643 1074 q 707 1035 696 1057 q 720 998 718 1014 q 722 949 722 982 q 720 901 722 917 q 707 864 718 885 q 669 835 696 843 z "},"":{"ha":699,"x_min":35,"x_max":664,"o":"m 563 481 q 600 478 588 481 q 631 468 613 476 q 656 438 649 460 q 664 381 664 417 q 657 324 664 344 q 633 294 650 303 q 603 283 617 285 q 561 281 589 281 l 132 281 q 96 283 108 281 q 67 294 83 285 q 42 324 50 303 q 35 382 35 346 q 43 438 35 417 q 69 468 51 460 q 100 478 88 476 q 138 481 113 481 l 563 481 m 350 229 q 442 203 415 229 q 463 119 463 182 l 463 114 q 460 72 463 86 q 449 38 458 57 q 414 11 439 19 q 349 3 389 3 q 258 29 283 3 q 236 118 236 50 q 240 161 238 147 q 251 194 242 175 q 285 221 261 213 q 350 229 310 229 m 349 532 q 258 558 283 532 q 236 647 236 581 q 240 690 238 676 q 251 723 242 704 q 285 750 261 742 q 350 758 310 758 q 442 733 414 758 q 463 649 463 713 l 463 643 q 460 601 463 615 q 449 567 458 586 q 414 540 439 549 q 349 532 389 532 z "},"":{"ha":833,"x_min":35,"x_max":799,"o":"m 678 644 q 799 365 799 533 q 739 160 799 250 q 594 28 679 71 q 418 -14 508 -14 q 363 -10 389 -14 l 296 -149 q 278 -183 285 -172 q 258 -205 272 -194 q 224 -215 243 -215 q 147 -193 196 -215 q 88 -158 104 -174 q 72 -121 72 -142 q 89 -53 72 -86 l 157 89 q 35 364 35 200 q 151 639 35 531 q 415 747 268 747 q 469 743 442 747 l 536 882 q 549 908 544 899 q 563 928 554 917 q 583 944 572 939 q 610 949 594 949 q 686 926 638 949 q 761 847 761 890 q 742 778 761 829 l 678 644 m 325 265 q 347 248 325 265 q 415 231 369 231 q 507 265 461 231 q 553 368 553 300 q 510 469 553 436 q 414 503 467 503 q 324 468 367 503 q 281 367 281 433 q 325 265 281 299 z "},"":{"ha":842,"x_min":56,"x_max":786,"o":"m 381 3 q 148 109 240 3 q 56 368 56 215 l 56 611 q 58 660 56 644 q 70 696 60 675 q 107 725 81 717 q 178 733 133 733 q 238 726 214 733 q 274 710 261 719 q 292 681 286 700 q 299 649 299 663 q 300 610 300 636 l 300 367 q 333 278 300 310 q 421 246 365 246 q 509 279 475 246 q 543 367 543 313 l 543 613 q 545 660 543 644 q 558 697 547 676 q 594 725 568 717 q 665 733 621 733 q 735 725 708 733 q 772 696 761 717 q 784 659 782 675 q 786 611 786 643 l 786 119 q 784 73 786 89 q 771 38 782 57 q 733 10 760 18 q 664 1 707 1 q 596 10 622 1 q 560 35 569 18 q 548 63 550 51 q 546 92 546 74 q 538 82 543 88 q 517 61 533 76 q 483 34 501 46 q 438 13 465 22 q 381 3 410 3 m 497 800 l 268 872 q 238 883 249 878 q 217 901 226 889 q 208 935 208 914 q 219 993 208 960 q 288 1075 246 1075 q 329 1065 293 1075 l 558 994 q 588 983 578 988 q 608 965 599 978 q 618 931 618 951 q 607 872 618 906 q 539 790 581 790 q 501 799 529 790 q 497 800 500 799 z "},"":{"ha":842,"x_min":56,"x_max":786,"o":"m 381 3 q 148 109 240 3 q 56 368 56 215 l 56 611 q 58 660 56 644 q 70 696 60 675 q 107 725 81 717 q 178 733 133 733 q 238 726 214 733 q 274 710 261 719 q 292 681 286 700 q 299 649 299 663 q 300 610 300 636 l 300 367 q 333 278 300 310 q 421 246 365 246 q 509 279 475 246 q 543 367 543 313 l 543 613 q 545 660 543 644 q 558 697 547 676 q 594 725 568 717 q 665 733 621 733 q 735 725 708 733 q 772 696 761 717 q 784 659 782 675 q 786 611 786 643 l 786 119 q 784 73 786 89 q 771 38 782 57 q 733 10 760 18 q 664 1 707 1 q 596 10 622 1 q 560 35 569 18 q 548 63 550 51 q 546 92 546 74 q 538 82 543 88 q 517 61 533 76 q 483 34 501 46 q 438 13 465 22 q 381 3 410 3 m 388 800 q 386 800 386 800 l 383 799 q 346 790 356 790 q 278 872 304 790 q 267 932 267 906 q 276 965 267 953 q 296 983 285 978 q 326 994 307 989 l 556 1065 q 597 1075 592 1075 q 664 993 639 1075 q 675 935 675 960 q 666 901 675 914 q 646 883 657 889 q 615 872 635 878 l 388 800 z "},"":{"ha":842,"x_min":56,"x_max":786,"o":"m 381 3 q 148 109 240 3 q 56 368 56 215 l 56 611 q 58 660 56 644 q 70 696 60 675 q 107 725 81 717 q 178 733 133 733 q 238 726 214 733 q 274 710 261 719 q 292 681 286 700 q 299 649 299 663 q 300 610 300 636 l 300 367 q 333 278 300 310 q 421 246 365 246 q 509 279 475 246 q 543 367 543 313 l 543 613 q 545 660 543 644 q 558 697 547 676 q 594 725 568 717 q 665 733 621 733 q 735 725 708 733 q 772 696 761 717 q 784 659 782 675 q 786 611 786 643 l 786 119 q 784 73 786 89 q 771 38 782 57 q 733 10 760 18 q 664 1 707 1 q 596 10 622 1 q 560 35 569 18 q 548 63 550 51 q 546 92 546 74 q 538 82 543 88 q 517 61 533 76 q 483 34 501 46 q 438 13 465 22 q 381 3 410 3 m 653 1004 q 704 939 704 988 q 689 883 704 913 q 606 810 653 810 q 561 819 593 810 l 428 878 l 299 822 q 297 822 297 822 l 294 821 q 251 813 269 813 q 165 883 199 813 q 149 942 149 919 q 201 1004 149 986 l 394 1068 q 403 1070 396 1068 q 416 1074 410 1072 q 428 1075 422 1075 q 439 1074 433 1075 q 451 1070 444 1072 q 460 1068 457 1068 q 653 1004 589 1026 z "},"":{"ha":842,"x_min":56,"x_max":786,"o":"m 381 3 q 148 109 240 3 q 56 368 56 215 l 56 611 q 58 660 56 644 q 70 696 60 675 q 107 725 81 717 q 178 733 133 733 q 238 726 214 733 q 274 710 261 719 q 292 681 286 700 q 299 649 299 663 q 300 610 300 636 l 300 367 q 333 278 300 310 q 421 246 365 246 q 509 279 475 246 q 543 367 543 313 l 543 613 q 545 660 543 644 q 558 697 547 676 q 594 725 568 717 q 665 733 621 733 q 735 725 708 733 q 772 696 761 717 q 784 659 782 675 q 786 611 786 643 l 786 119 q 784 73 786 89 q 771 38 782 57 q 733 10 760 18 q 664 1 707 1 q 596 10 622 1 q 560 35 569 18 q 548 63 550 51 q 546 92 546 74 q 538 82 543 88 q 517 61 533 76 q 483 34 501 46 q 438 13 465 22 q 381 3 410 3 m 676 835 q 662 831 676 835 q 604 826 649 826 q 533 835 560 826 q 496 865 507 843 q 483 902 485 886 q 481 951 481 918 q 483 1001 481 985 q 496 1037 485 1017 q 534 1065 507 1057 q 606 1074 561 1074 q 676 1065 650 1074 q 714 1035 703 1057 q 727 998 725 1014 q 729 949 729 982 q 727 901 729 917 q 714 864 725 885 q 676 835 703 843 m 301 835 q 287 831 301 835 q 229 826 274 826 q 158 835 185 826 q 121 865 132 843 q 108 902 110 886 q 106 951 106 918 q 109 1001 107 986 q 122 1036 111 1015 q 159 1065 132 1057 q 231 1074 186 1074 q 301 1065 275 1074 q 339 1035 328 1057 q 352 998 350 1014 q 354 949 354 982 q 352 901 354 917 q 339 864 350 885 q 301 835 328 843 z "},"":{"ha":839,"x_min":21,"x_max":818,"o":"m 736 724 q 818 636 818 688 q 797 569 818 614 l 797 568 q 796 565 796 567 l 432 -249 q 413 -289 421 -275 q 389 -315 406 -303 q 350 -328 372 -328 q 274 -307 322 -328 q 192 -221 192 -271 q 214 -149 192 -199 q 325 97 265 -31 l 49 563 q 21 631 21 608 q 96 719 21 675 q 176 747 143 747 q 213 736 196 747 q 237 713 229 725 q 260 676 244 701 q 444 365 382 467 q 578 664 451 388 q 592 696 588 686 q 608 719 597 706 q 631 738 618 732 q 661 743 643 743 q 736 724 692 743 m 382 800 q 381 800 381 800 l 378 799 q 340 790 350 790 q 272 872 299 790 q 261 932 261 906 q 270 965 261 953 q 290 983 279 978 q 321 994 301 989 l 550 1065 q 592 1075 586 1075 q 658 993 633 1075 q 669 935 669 960 q 660 901 669 914 q 640 883 651 889 q 610 872 629 878 l 382 800 z "},"":{"ha":806,"x_min":56,"x_max":771,"o":"m 440 731 q 667 621 564 731 q 771 369 771 511 q 668 112 771 221 q 440 3 565 3 q 281 67 332 3 l 281 -196 q 278 -243 281 -228 q 267 -278 276 -258 q 233 -306 257 -297 q 167 -314 208 -314 q 103 -306 126 -314 q 69 -277 79 -297 q 58 -241 60 -257 q 56 -193 56 -225 l 56 974 q 58 1021 56 1006 q 69 1056 60 1036 q 104 1085 79 1076 q 169 1093 129 1093 q 234 1085 210 1093 q 268 1056 258 1076 q 280 1020 278 1036 q 282 972 282 1004 l 282 663 q 440 731 338 731 m 319 282 q 336 263 319 282 q 404 244 353 244 q 492 282 456 244 q 528 365 528 319 q 494 449 528 411 q 406 488 461 488 q 317 449 350 488 q 285 365 285 410 q 319 282 285 319 z "},"":{"ha":839,"x_min":21,"x_max":818,"o":"m 736 724 q 818 636 818 688 q 797 569 818 614 l 797 568 q 796 565 796 567 l 432 -249 q 413 -289 421 -275 q 389 -315 406 -303 q 350 -328 372 -328 q 274 -307 322 -328 q 192 -221 192 -271 q 214 -149 192 -199 q 325 97 265 -31 l 49 563 q 21 631 21 608 q 96 719 21 675 q 176 747 143 747 q 213 736 196 747 q 237 713 229 725 q 260 676 244 701 q 444 365 382 467 q 578 664 451 388 q 592 696 588 686 q 608 719 597 706 q 631 738 618 732 q 661 743 643 743 q 736 724 692 743 m 316 835 q 302 831 316 835 q 244 826 289 826 q 174 835 200 826 q 136 865 147 843 q 123 902 125 886 q 121 951 121 918 q 124 1001 122 986 q 137 1036 126 1015 q 174 1065 147 1057 q 246 1074 201 1074 q 317 1065 290 1074 q 354 1035 343 1057 q 367 998 365 1014 q 369 949 369 982 q 367 901 369 917 q 354 864 365 885 q 316 835 343 843 m 691 835 q 677 831 691 835 q 619 826 664 826 q 549 835 575 826 q 511 865 522 843 q 498 902 500 886 q 496 951 496 918 q 498 1001 496 985 q 511 1037 500 1017 q 549 1065 522 1057 q 621 1074 576 1074 q 692 1065 665 1074 q 729 1035 718 1057 q 742 998 740 1014 q 744 949 744 982 q 742 901 744 917 q 729 864 740 885 q 691 835 718 843 z "},"":{"ha":354,"x_min":56,"x_max":299,"o":"m 56 610 q 58 658 56 642 q 70 694 60 674 q 107 722 81 714 q 178 731 133 731 q 237 724 213 731 q 273 707 261 717 q 291 678 285 697 q 298 647 297 660 q 299 607 299 633 l 299 121 q 297 73 299 89 q 284 37 294 57 q 247 8 274 17 q 176 0 221 0 q 107 8 133 0 q 70 38 81 17 q 58 74 60 58 q 56 122 56 89 l 56 610 z "},"":{"ha":954,"x_min":35,"x_max":919,"o":"m 440 206 l 818 206 q 859 203 846 206 q 889 193 872 201 q 913 163 906 185 q 919 103 919 140 q 913 44 919 67 q 888 13 906 22 q 857 2 871 4 q 817 0 843 0 l 317 0 q 257 7 281 0 q 221 24 233 14 q 202 52 208 33 q 195 84 196 71 q 194 124 194 97 l 194 404 l 150 392 q 108 383 122 383 q 42 454 63 383 q 35 496 35 482 q 47 533 35 518 q 69 552 58 547 q 103 563 81 557 l 194 588 l 194 896 q 197 944 194 928 q 210 981 199 960 q 247 1010 221 1001 q 318 1018 274 1018 q 378 1011 354 1018 q 414 994 401 1004 q 433 966 426 985 q 440 934 439 947 q 440 894 440 921 l 440 658 l 529 683 q 571 692 557 692 q 636 621 617 692 q 643 576 643 590 q 632 542 643 556 q 610 524 621 528 q 576 513 600 519 l 440 474 l 440 206 z "},"":{"ha":650,"x_min":21,"x_max":629,"o":"m 183 954 q 185 1002 183 986 q 198 1039 188 1018 q 235 1068 208 1060 q 306 1076 261 1076 q 374 1067 349 1076 q 411 1038 400 1058 q 424 1001 422 1018 q 426 953 426 985 l 426 658 l 515 683 q 557 692 543 692 q 622 621 603 692 q 629 576 629 590 q 618 542 629 556 q 597 524 607 528 q 563 513 586 519 l 426 474 l 426 310 q 435 247 426 260 q 481 233 443 233 q 510 231 500 233 q 534 219 519 229 q 555 185 549 210 q 561 121 561 161 q 555 51 561 78 q 534 15 549 25 q 509 2 519 4 q 479 0 499 0 q 361 6 406 0 q 278 27 317 11 q 222 76 240 43 q 193 161 203 110 q 183 293 183 213 l 183 404 l 136 392 q 94 383 108 383 q 28 454 49 383 q 21 496 21 482 q 33 533 21 518 q 56 552 44 547 q 89 563 67 557 l 183 589 l 183 954 z "},"":{"ha":1517,"x_min":35,"x_max":1482,"o":"m 1360 246 q 1408 244 1392 246 q 1444 231 1424 242 q 1474 193 1465 219 q 1482 122 1482 167 q 1475 63 1482 86 q 1458 26 1468 39 q 1430 8 1449 14 q 1398 1 1411 1 q 1358 0 1385 0 l 518 0 q 174 158 313 11 q 35 503 35 304 q 180 870 35 722 q 518 1018 325 1018 l 1360 1018 q 1408 1016 1392 1018 q 1444 1003 1424 1014 q 1474 965 1465 992 q 1482 894 1482 939 q 1475 835 1482 858 q 1458 799 1468 811 q 1430 780 1449 786 q 1398 773 1411 774 q 1358 772 1385 772 l 932 772 l 932 632 l 1207 632 q 1255 630 1239 632 q 1292 617 1271 628 q 1321 579 1313 606 q 1329 508 1329 553 q 1322 449 1329 472 q 1306 413 1315 425 q 1276 394 1296 400 q 1244 387 1257 388 q 1204 386 1231 386 l 932 386 l 932 246 l 1360 246 m 518 240 l 686 240 l 686 778 l 518 778 q 352 696 424 769 q 281 507 281 622 q 353 322 281 394 q 518 240 425 249 z "},"":{"ha":1311,"x_min":33,"x_max":1276,"o":"m 1092 221 q 1146 235 1128 235 q 1222 175 1192 235 q 1240 111 1240 139 q 1225 67 1240 86 q 1196 42 1210 49 q 1160 28 1182 36 q 1156 27 1158 28 q 1153 25 1154 26 q 949 -10 1057 -10 q 675 86 781 -10 q 417 -15 563 -15 q 238 30 324 -15 q 92 163 151 75 q 33 363 33 251 q 150 638 33 529 q 414 746 267 746 q 676 643 565 746 q 949 739 783 739 q 1095 712 1029 739 q 1199 642 1161 685 q 1256 553 1236 600 q 1276 460 1276 506 q 1234 330 1276 369 q 1140 290 1192 290 l 818 290 q 863 225 818 251 q 960 199 907 199 q 1029 204 996 199 q 1078 215 1063 210 l 1092 221 m 324 263 q 346 246 324 263 q 414 229 368 229 q 506 264 460 229 q 551 367 551 299 q 508 468 551 435 q 413 501 465 501 q 322 467 365 501 q 279 365 279 432 q 324 263 279 297 m 946 528 q 859 492 903 528 q 815 414 815 456 l 990 414 q 1039 457 1039 414 q 1015 508 1039 489 q 946 528 990 528 z "},"":{"ha":810,"x_min":35,"x_max":775,"o":"m 71 143 q 35 217 35 188 q 94 317 35 258 q 164 350 129 350 q 269 288 207 350 l 276 281 q 293 263 282 274 q 336 233 304 251 q 399 214 368 214 q 528 319 528 214 q 492 373 528 351 q 404 404 457 394 q 290 435 351 414 q 176 486 229 457 q 88 578 124 515 q 53 731 53 642 q 144 944 53 853 q 392 1035 235 1035 q 544 1013 475 1035 q 639 969 613 992 l 667 949 l 674 943 q 717 876 717 903 q 683 799 717 847 q 586 729 636 729 q 514 757 557 729 q 498 771 510 760 q 476 788 486 782 q 444 801 467 794 q 390 807 421 807 q 327 785 357 807 q 297 729 297 764 q 333 664 297 688 q 421 632 368 640 q 536 606 474 624 q 651 564 599 589 q 740 477 704 539 q 775 324 775 415 q 739 166 775 235 q 645 60 703 97 q 526 4 588 22 q 404 -14 465 -14 q 281 2 339 -14 q 185 41 222 18 q 122 88 149 64 q 83 128 94 111 l 71 143 m 179 1158 q 133 1196 146 1168 q 142 1279 119 1224 q 176 1331 158 1313 q 212 1351 193 1349 q 240 1351 231 1353 q 269 1343 250 1350 l 404 1285 l 524 1338 q 606 1346 579 1356 q 667 1279 642 1331 q 629 1158 713 1183 l 436 1094 q 427 1092 433 1094 q 415 1089 421 1090 q 404 1088 410 1088 q 392 1089 399 1088 q 381 1092 386 1090 q 372 1094 375 1094 q 179 1158 243 1138 z "},"":{"ha":679,"x_min":35,"x_max":644,"o":"m 100 881 q 53 918 67 890 q 63 1001 40 946 q 97 1053 79 1035 q 133 1073 114 1071 q 161 1074 151 1075 q 190 1065 171 1072 l 325 1007 l 444 1060 q 526 1068 500 1078 q 588 1001 563 1053 q 550 881 633 906 l 357 817 q 348 815 354 817 q 336 811 342 813 q 325 810 331 810 q 313 811 319 810 q 301 815 307 813 q 293 817 296 817 q 100 881 164 860 m 325 -12 q 61 65 185 -12 q 35 114 35 82 q 88 228 35 154 q 135 251 103 251 q 219 222 171 251 q 335 183 288 183 q 419 217 419 183 q 393 240 419 231 q 326 256 367 250 q 240 278 286 261 q 153 321 193 296 q 86 399 113 346 q 60 526 60 453 q 361 746 60 746 q 564 699 460 746 q 613 638 613 676 q 583 563 613 610 q 519 513 551 513 q 472 526 503 513 q 360 554 413 554 q 278 524 278 554 q 305 488 278 501 q 373 470 332 475 q 461 451 414 465 q 549 417 508 438 q 617 349 590 397 q 644 232 644 301 q 617 106 644 157 q 541 31 590 56 q 441 -3 492 7 q 325 -12 390 -12 z "},"":{"ha":953,"x_min":21,"x_max":932,"o":"m 864 999 q 932 907 932 951 q 900 833 932 881 l 600 385 l 600 119 q 598 72 600 88 q 585 35 596 56 q 547 6 574 14 q 476 -3 521 -3 q 406 6 432 -3 q 368 35 379 14 q 355 73 357 57 q 353 122 353 89 l 353 385 l 53 833 q 21 907 21 881 q 90 999 21 951 q 178 1033 143 1033 q 212 1022 196 1033 q 237 1000 228 1011 q 261 965 246 989 l 476 621 l 692 965 q 716 1000 707 989 q 741 1022 725 1011 q 776 1033 757 1033 q 864 999 808 1033 m 359 1113 q 345 1108 359 1113 q 288 1104 332 1104 q 217 1113 243 1104 q 179 1142 190 1121 q 166 1180 168 1164 q 164 1229 164 1196 q 167 1278 165 1264 q 180 1314 169 1293 q 217 1343 190 1335 q 289 1351 244 1351 q 360 1343 333 1351 q 397 1313 386 1335 q 410 1276 408 1292 q 413 1226 413 1260 q 410 1178 413 1194 q 397 1142 408 1163 q 359 1113 386 1121 m 734 1113 q 720 1108 734 1113 q 663 1104 707 1104 q 592 1113 618 1104 q 554 1142 565 1121 q 541 1180 543 1164 q 539 1229 539 1196 q 541 1278 539 1263 q 554 1315 543 1294 q 592 1343 565 1335 q 664 1351 619 1351 q 735 1343 708 1351 q 772 1313 761 1335 q 785 1276 783 1292 q 788 1226 788 1260 q 785 1178 788 1194 q 772 1142 783 1163 q 734 1113 761 1121 z "},"":{"ha":893,"x_min":35,"x_max":858,"o":"m 738 238 q 785 235 768 238 q 821 222 801 232 q 849 186 840 211 q 858 119 858 161 q 851 60 858 83 q 835 24 844 36 q 806 5 825 11 q 774 -2 788 -1 q 735 -3 761 -3 l 157 -3 q 96 14 125 -3 q 51 58 67 31 q 35 124 35 86 q 51 182 35 160 l 482 778 l 163 778 q 113 780 129 778 q 75 792 97 782 q 44 828 53 803 q 35 896 35 854 q 43 967 35 940 q 72 1004 51 993 q 109 1017 93 1015 q 158 1019 125 1019 l 717 1019 q 778 1003 749 1019 q 822 958 807 986 q 839 893 839 931 q 822 833 839 856 l 392 238 l 738 238 m 219 1158 q 173 1196 186 1168 q 182 1279 160 1224 q 216 1331 199 1313 q 252 1351 233 1349 q 281 1351 271 1353 q 310 1343 290 1350 l 444 1285 l 564 1338 q 646 1346 619 1356 q 707 1279 682 1331 q 669 1158 753 1183 l 476 1094 q 467 1092 474 1094 q 456 1089 461 1090 q 444 1088 450 1088 q 433 1089 439 1088 q 421 1092 426 1090 q 413 1094 415 1094 q 219 1158 283 1138 z "},"":{"ha":814,"x_min":35,"x_max":779,"o":"m 194 881 q 148 918 161 890 q 157 1001 135 946 q 191 1053 174 1035 q 227 1073 208 1071 q 256 1074 246 1075 q 285 1065 265 1072 l 419 1007 l 539 1060 q 621 1068 594 1078 q 682 1001 657 1053 q 644 881 728 906 l 451 817 q 442 815 449 817 q 431 811 436 813 q 419 810 425 810 q 408 811 414 810 q 396 815 401 813 q 388 817 390 817 q 194 881 258 860 m 421 244 l 658 244 q 707 242 690 244 q 743 228 724 239 q 771 190 763 217 q 779 121 779 164 q 771 51 779 78 q 742 15 763 25 q 705 2 721 4 q 657 0 689 0 l 156 0 q 71 36 107 0 q 35 122 35 72 q 71 208 35 172 q 182 310 107 243 q 318 430 257 376 q 385 489 379 483 l 189 489 q 149 490 163 489 q 117 497 136 490 q 89 515 99 503 q 72 551 79 528 q 65 611 65 575 q 72 670 65 646 q 89 706 79 694 q 117 724 99 718 q 149 731 136 731 q 189 732 163 732 l 640 732 q 725 697 689 732 q 761 613 761 663 q 726 525 761 558 q 421 244 678 478 z "},"":{"ha":735,"x_min":0,"x_max":714,"o":"m 582 790 q 522 756 526 790 l 515 681 l 606 688 q 649 686 635 688 q 681 677 663 685 q 706 650 699 669 q 714 599 714 631 q 713 567 714 579 q 697 499 708 525 q 665 463 686 474 q 627 450 644 453 q 579 447 610 447 l 490 451 l 436 -33 q 333 -243 406 -175 q 113 -311 261 -311 q 57 -308 76 -311 q 19 -287 38 -306 q 0 -233 0 -269 q 4 -193 0 -217 q 6 -189 4 -192 q 51 -101 18 -125 q 138 -78 83 -78 q 196 -36 192 -78 q 250 450 242 378 q 218 447 243 447 q 176 449 192 447 q 142 460 160 451 q 117 488 125 468 q 110 538 110 507 q 111 568 110 557 q 126 637 115 611 q 159 673 138 663 q 197 685 181 683 q 244 688 213 688 l 272 685 l 282 753 q 378 944 293 858 q 606 1031 463 1031 q 649 1029 635 1031 q 681 1020 663 1028 q 706 993 699 1013 q 714 942 714 974 q 713 910 714 922 q 697 841 708 867 q 666 805 686 815 q 629 792 646 794 q 582 790 613 790 z "},"":{"ha":838,"x_min":142,"x_max":697,"o":"m 646 1004 q 697 939 697 988 q 682 883 697 913 q 599 810 644 810 q 554 819 586 810 l 421 878 l 292 822 l 290 822 q 288 821 289 821 q 244 813 263 813 q 158 883 192 813 q 142 942 142 919 q 194 1004 142 986 l 388 1068 q 396 1070 389 1068 q 409 1074 403 1072 q 421 1075 415 1075 q 432 1074 426 1075 q 444 1070 438 1072 q 453 1068 450 1068 q 646 1004 582 1026 z "},"":{"ha":833,"x_min":147,"x_max":682,"o":"m 194 881 q 148 918 161 890 q 157 1001 135 946 q 191 1053 174 1035 q 227 1073 208 1071 q 256 1074 246 1075 q 285 1065 265 1072 l 419 1007 l 539 1060 q 621 1068 594 1078 q 682 1001 657 1053 q 644 881 728 906 l 451 817 q 442 815 449 817 q 431 811 436 813 q 419 810 425 810 q 408 811 414 810 q 396 815 401 813 q 388 817 390 817 q 194 881 258 860 z "},"":{"ha":396,"x_min":83,"x_max":326,"o":"m 204 976 q 135 985 161 976 q 98 1014 108 993 q 85 1051 88 1035 q 83 1099 83 1067 q 85 1147 83 1131 q 98 1183 88 1163 q 135 1211 108 1203 q 206 1219 161 1219 q 275 1211 249 1219 q 312 1182 301 1203 q 324 1145 322 1161 q 326 1097 326 1129 q 324 1049 326 1065 q 312 1013 322 1033 q 275 985 301 993 q 204 976 249 976 z "},"":{"ha":525,"x_min":83,"x_max":442,"o":"m 261 1276 q 388 1226 333 1276 q 442 1097 442 1176 q 386 967 442 1017 q 263 918 331 918 q 140 969 196 918 q 83 1096 83 1019 q 138 1226 83 1175 q 261 1276 193 1276 m 206 1033 q 219 1023 206 1033 q 263 1013 233 1013 q 319 1034 292 1013 q 347 1099 347 1056 q 320 1161 347 1140 q 261 1182 293 1182 q 205 1160 232 1182 q 178 1097 178 1139 q 206 1033 178 1054 z "},"":{"ha":792,"x_min":243,"x_max":515,"o":"m 399 42 q 482 18 447 42 q 515 -19 511 -1 q 503 -65 519 -40 q 454 -101 479 -101 q 419 -87 442 -101 l 418 -87 l 417 -86 q 399 -81 411 -81 q 376 -89 388 -81 q 365 -114 365 -97 q 376 -137 365 -129 q 399 -146 388 -146 q 415 -143 407 -146 l 417 -142 l 418 -140 q 451 -126 438 -126 q 501 -160 474 -126 q 515 -203 519 -182 q 481 -246 513 -224 q 400 -268 436 -268 q 297 -231 342 -268 q 243 -112 243 -186 q 293 1 243 -40 q 399 42 343 42 z "},"":{"ha":811,"x_min":108,"x_max":664,"o":"m 614 1053 q 664 986 664 1018 q 644 935 664 967 q 638 923 642 931 q 618 896 633 915 q 583 862 603 876 q 532 835 564 847 q 464 822 500 822 q 391 840 422 822 q 340 876 360 858 q 304 894 319 894 q 287 890 294 894 q 275 882 279 886 l 271 878 q 207 822 239 822 q 153 850 185 822 q 108 915 108 889 q 128 964 108 932 q 135 976 131 968 q 155 1002 139 983 q 190 1035 171 1021 q 242 1062 210 1050 q 311 1074 275 1074 q 383 1056 353 1074 q 433 1022 414 1039 q 467 1004 453 1004 q 486 1008 478 1004 q 497 1017 494 1013 l 501 1021 q 564 1074 531 1074 q 614 1053 585 1074 z "},"":{"ha":779,"x_min":21,"x_max":758,"o":"m 653 268 l 121 268 q 84 270 97 268 q 54 282 71 272 q 29 317 38 292 q 21 382 21 342 q 29 446 21 421 q 56 480 38 471 q 87 491 74 489 q 125 493 100 493 l 654 493 q 692 491 679 493 q 724 479 706 489 q 750 445 742 469 q 758 381 758 421 q 752 326 758 349 q 738 293 746 304 q 715 276 731 282 q 687 269 699 269 q 653 268 675 268 z "},"":{"ha":963,"x_min":21,"x_max":942,"o":"m 838 268 l 121 268 q 84 270 97 268 q 54 282 71 272 q 29 317 38 292 q 21 382 21 342 q 29 446 21 421 q 56 480 38 471 q 87 491 74 489 q 125 493 100 493 l 839 493 q 877 491 864 493 q 908 479 890 489 q 934 445 926 469 q 942 381 942 421 q 935 316 942 340 q 910 282 928 292 q 879 270 893 272 q 838 268 865 268 z "},"":{"ha":329,"x_min":35,"x_max":294,"o":"m 201 796 q 271 768 247 792 q 294 688 294 744 l 294 667 q 292 617 294 633 q 279 578 290 600 q 240 547 268 557 q 164 538 211 538 q 60 568 89 538 q 35 671 35 593 q 38 722 35 706 q 110 931 47 844 q 268 1018 172 1018 q 275 1017 271 1018 q 286 1002 279 1015 q 293 967 293 989 q 287 929 293 943 q 275 914 281 915 l 268 911 q 261 910 265 911 q 247 903 257 910 q 227 886 236 897 q 210 851 218 875 q 201 796 203 828 z "},"":{"ha":329,"x_min":35,"x_max":294,"o":"m 271 989 q 294 908 294 965 l 294 886 q 292 835 294 851 q 219 625 282 713 q 61 538 157 538 q 54 539 58 538 q 43 553 50 540 q 36 590 36 567 q 42 627 36 614 q 56 642 49 640 l 61 644 q 68 645 64 644 q 83 652 72 646 q 103 669 94 658 q 119 704 111 681 q 128 760 126 728 q 60 788 81 767 q 35 890 35 814 q 38 940 35 922 q 51 978 40 957 q 91 1009 63 1000 q 165 1018 119 1018 q 271 989 239 1018 z "},"":{"ha":329,"x_min":35,"x_max":294,"o":"m 271 229 q 294 149 294 206 l 294 126 q 292 75 294 92 q 219 -135 282 -47 q 61 -222 157 -222 q 54 -221 58 -222 q 43 -206 50 -219 q 36 -169 36 -193 q 42 -133 36 -146 q 56 -117 49 -119 l 61 -115 q 68 -115 64 -115 q 83 -108 72 -114 q 103 -90 94 -101 q 119 -56 111 -79 q 128 0 126 -32 q 60 28 81 7 q 35 131 35 54 q 38 180 35 163 q 51 219 40 197 q 91 249 63 240 q 165 258 119 258 q 271 229 239 258 z "},"":{"ha":669,"x_min":35,"x_max":635,"o":"m 201 796 q 271 768 247 792 q 294 688 294 744 l 294 667 q 292 617 294 633 q 279 578 290 600 q 240 547 268 557 q 164 538 211 538 q 60 568 89 538 q 35 671 35 593 q 38 722 35 706 q 110 931 47 844 q 268 1018 172 1018 q 275 1017 271 1018 q 286 1002 279 1015 q 293 967 293 989 q 287 929 293 943 q 275 914 281 915 l 268 911 q 261 910 265 911 q 247 903 257 910 q 227 886 236 897 q 210 851 218 875 q 201 796 203 828 m 610 768 q 635 667 635 743 q 633 626 635 639 q 625 593 632 614 q 605 563 618 572 q 566 545 592 553 q 503 538 540 538 q 399 568 428 538 q 374 671 374 593 q 376 722 374 706 q 449 931 386 844 q 608 1018 513 1018 q 615 1017 611 1018 q 626 1002 619 1015 q 633 967 633 989 q 627 929 633 943 q 614 914 621 915 l 608 911 q 601 910 606 911 q 586 903 597 910 q 566 886 575 897 q 549 851 557 875 q 540 796 542 828 q 610 768 586 792 z "},"":{"ha":669,"x_min":35,"x_max":635,"o":"m 610 989 q 635 886 635 964 q 632 835 635 868 q 559 625 622 713 q 400 538 496 538 q 393 539 397 538 q 382 553 389 540 q 375 590 375 567 q 381 627 375 614 q 394 642 388 640 l 400 644 q 407 645 403 644 q 422 652 411 646 q 442 669 433 658 q 458 704 450 681 q 467 760 465 728 q 399 788 422 765 q 374 890 374 814 q 377 940 375 924 q 391 978 379 956 q 431 1009 403 1000 q 506 1018 458 1018 q 610 989 581 1018 m 271 989 q 294 908 294 965 l 294 886 q 292 835 294 851 q 219 625 282 713 q 61 538 157 538 q 54 539 58 538 q 43 553 50 540 q 36 590 36 567 q 42 627 36 614 q 56 642 49 640 l 61 644 q 68 645 64 644 q 83 652 72 646 q 103 669 94 658 q 119 704 111 681 q 128 760 126 728 q 60 788 81 767 q 35 890 35 814 q 38 940 35 922 q 51 978 40 957 q 91 1009 63 1000 q 165 1018 119 1018 q 271 989 239 1018 z "},"":{"ha":669,"x_min":35,"x_max":635,"o":"m 610 229 q 635 126 635 204 q 632 75 635 108 q 559 -135 622 -47 q 400 -222 496 -222 q 393 -221 397 -222 q 382 -206 389 -219 q 375 -169 375 -193 q 381 -133 375 -146 q 394 -117 388 -119 l 400 -115 q 407 -115 403 -115 q 422 -108 411 -114 q 442 -90 433 -101 q 458 -56 450 -79 q 467 0 465 -32 q 399 28 422 6 q 374 131 374 54 q 377 180 375 164 q 391 218 379 196 q 431 249 403 240 q 506 258 458 258 q 610 229 581 258 m 271 229 q 294 149 294 206 l 294 126 q 292 75 294 92 q 219 -135 282 -47 q 61 -222 157 -222 q 54 -221 58 -222 q 43 -206 50 -219 q 36 -169 36 -193 q 42 -133 36 -146 q 56 -117 49 -119 l 61 -115 q 68 -115 64 -115 q 83 -108 72 -114 q 103 -90 94 -101 q 119 -56 111 -79 q 128 0 126 -32 q 60 28 81 7 q 35 131 35 54 q 38 180 35 163 q 51 219 40 197 q 91 249 63 240 q 165 258 119 258 q 271 229 239 258 z "},"":{"ha":732,"x_min":21,"x_max":711,"o":"m 601 713 q 642 710 628 713 q 675 699 656 708 q 703 665 694 689 q 711 601 711 642 q 703 539 711 563 q 678 506 696 515 q 644 494 660 496 q 600 492 629 492 l 486 500 l 486 -143 q 484 -190 486 -175 q 472 -226 482 -206 q 435 -254 461 -246 q 365 -262 408 -262 q 297 -254 322 -262 q 260 -226 271 -246 q 248 -190 250 -207 q 246 -142 246 -174 l 246 500 l 126 492 q 88 494 101 492 q 56 506 74 496 q 29 540 38 515 q 21 603 21 564 q 30 666 21 642 q 58 699 39 690 q 92 710 78 708 q 132 713 106 713 l 246 703 l 246 922 q 248 968 246 953 q 261 1003 250 983 q 298 1030 272 1022 q 367 1038 324 1038 q 435 1029 410 1038 q 472 1001 461 1021 q 484 965 482 981 q 486 917 486 949 l 486 703 l 601 713 z "},"":{"ha":732,"x_min":21,"x_max":711,"o":"m 601 283 q 643 281 629 283 q 676 269 657 279 q 703 235 694 260 q 711 172 711 211 q 702 109 711 133 q 674 76 693 85 q 640 65 654 67 q 600 63 626 63 l 486 72 l 486 -143 q 484 -190 486 -175 q 472 -226 482 -206 q 435 -254 461 -246 q 365 -262 408 -262 q 297 -254 322 -262 q 260 -226 271 -246 q 248 -190 250 -207 q 246 -142 246 -174 l 246 72 l 131 63 q 90 65 104 63 q 57 76 76 67 q 29 110 38 86 q 21 174 21 133 q 28 236 21 213 q 54 269 36 260 q 88 281 72 279 q 132 283 103 283 l 246 275 l 246 500 l 126 492 q 88 494 101 492 q 56 506 74 496 q 29 540 38 515 q 21 603 21 564 q 30 666 21 642 q 58 699 39 690 q 92 710 78 708 q 132 713 106 713 l 246 703 l 246 922 q 248 968 246 953 q 261 1003 250 983 q 298 1030 272 1022 q 367 1038 324 1038 q 435 1029 410 1038 q 472 1001 461 1021 q 484 965 482 981 q 486 917 486 949 l 486 703 l 601 713 q 642 710 628 713 q 675 699 656 708 q 703 665 694 689 q 711 601 711 642 q 703 539 711 563 q 678 506 696 515 q 644 494 660 496 q 600 492 629 492 l 486 500 l 486 275 l 601 283 z "},"":{"ha":475,"x_min":35,"x_max":440,"o":"m 238 642 q 339 642 238 642 q 440 439 440 642 q 238 236 440 236 q 35 439 35 236 q 238 642 35 642 z "},"":{"ha":1265,"x_min":35,"x_max":1231,"o":"m 271 229 q 294 149 294 206 l 294 126 q 292 78 294 94 q 279 40 290 61 q 240 8 268 18 q 164 -1 211 -1 q 60 29 89 -1 q 35 131 35 54 q 38 180 35 163 q 51 219 40 197 q 91 249 63 240 q 165 258 119 258 q 271 229 239 258 m 738 229 q 763 126 763 204 q 760 78 763 94 q 746 40 757 61 q 706 8 735 18 q 632 -1 678 -1 q 526 29 557 -1 q 503 110 503 53 l 503 131 q 505 180 503 164 q 519 218 507 196 q 558 249 531 240 q 633 258 586 258 q 738 229 708 258 m 1206 229 q 1231 126 1231 204 q 1229 88 1231 100 q 1221 54 1228 75 q 1201 24 1214 33 q 1162 6 1188 14 q 1099 -1 1136 -1 q 994 29 1024 -1 q 969 131 969 54 q 973 180 971 164 q 987 218 975 196 q 1026 249 999 240 q 1101 258 1054 258 q 1206 229 1176 258 z "},"":{"ha":1699,"x_min":56,"x_max":1643,"o":"m 1408 517 q 1583 447 1522 517 q 1643 257 1643 378 q 1583 65 1643 132 q 1410 -3 1522 -3 q 1240 67 1304 -3 q 1175 256 1175 138 q 1238 446 1175 375 q 1408 517 1300 517 m 1408 164 q 1492 258 1492 164 q 1472 329 1492 308 q 1407 350 1453 350 q 1345 328 1365 350 q 1325 257 1325 307 q 1345 185 1325 206 q 1408 164 1365 164 m 876 517 q 1051 447 992 517 q 1111 257 1111 378 q 1051 65 1111 132 q 878 -3 992 -3 q 708 67 772 -3 q 643 256 643 138 q 706 446 643 375 q 876 517 768 517 m 876 164 q 961 258 961 164 q 941 329 961 308 q 876 350 921 350 q 814 328 833 350 q 794 257 794 307 q 815 185 794 207 q 876 164 835 164 m 289 1022 q 463 953 403 1022 q 524 763 524 883 q 463 572 524 639 q 290 504 403 504 q 120 574 185 504 q 56 761 56 643 q 118 951 56 881 q 289 1022 181 1022 m 289 671 q 372 764 372 671 q 353 835 372 814 q 289 856 333 856 q 226 834 246 856 q 206 764 206 813 q 226 692 206 714 q 289 671 247 671 m 875 1075 q 915 1032 915 1053 q 906 1006 915 1022 l 368 -10 l 365 -14 q 332 -42 350 -42 q 290 -28 317 -42 q 250 14 250 -7 q 260 43 250 26 l 796 1057 q 833 1089 814 1089 q 875 1075 849 1089 z "},"":{"ha":532,"x_min":21,"x_max":511,"o":"m 307 365 l 474 200 q 511 132 511 160 q 463 46 511 94 q 379 -1 415 -1 q 307 42 350 -1 l 58 289 q 21 356 21 329 q 22 360 21 357 q 22 365 22 363 q 22 371 22 368 q 21 375 21 374 q 63 446 21 404 l 307 690 q 378 733 350 733 q 463 685 414 733 q 511 599 511 636 q 475 535 511 574 l 307 365 z "},"":{"ha":532,"x_min":21,"x_max":511,"o":"m 469 446 q 511 378 511 407 q 510 365 511 369 q 511 353 511 361 q 469 285 511 324 l 222 39 q 154 -3 181 -3 q 69 46 119 -3 q 21 132 21 94 q 63 203 21 161 l 225 365 l 60 532 q 21 599 21 571 q 69 685 21 636 q 154 733 118 733 q 225 690 182 733 l 469 446 z "},"":{"ha":601,"x_min":57,"x_max":722,"o":"m 682 1075 q 722 1035 721 1054 q 708 999 724 1015 l 175 -10 q 160 -33 167 -26 q 138 -41 154 -40 q 97 -28 122 -42 q 66 -8 76 -17 q 57 13 56 1 q 60 28 58 25 q 69 49 61 32 l 603 1057 q 618 1080 613 1074 q 640 1087 624 1086 q 682 1075 657 1088 z "},"":{"ha":850,"x_min":21,"x_max":815,"o":"m 526 244 l 694 244 q 743 242 726 244 q 779 228 760 239 q 807 192 799 218 q 815 122 815 165 q 807 55 815 81 q 781 19 799 29 q 747 6 763 8 q 701 3 731 3 l 525 3 q 449 10 486 3 q 363 39 411 17 q 277 97 315 61 q 204 199 239 133 q 151 349 169 264 l 94 349 q 64 350 74 349 q 42 358 54 351 q 26 380 31 364 q 21 424 21 396 q 33 474 21 457 q 58 494 46 492 q 93 496 71 496 l 135 496 q 133 551 133 514 l 133 576 l 94 576 q 64 578 74 576 q 42 585 54 579 q 26 608 31 592 q 21 651 21 624 q 33 702 21 685 q 58 722 46 719 q 93 724 71 724 l 149 724 q 213 899 168 826 q 314 1006 257 971 q 422 1055 371 1040 q 526 1069 474 1069 l 699 1069 q 745 1067 729 1069 q 781 1054 761 1065 q 808 1017 800 1043 q 815 947 815 990 q 807 878 815 904 q 778 841 799 851 q 741 828 757 831 q 693 826 725 826 l 525 826 q 400 724 435 826 l 665 724 q 692 722 682 724 q 714 714 701 721 q 732 691 726 707 q 738 649 738 675 q 733 608 738 624 q 716 585 728 592 q 694 578 704 579 q 664 576 683 576 l 376 576 q 376 557 376 569 q 375 539 375 544 q 376 516 375 531 q 376 494 376 501 l 665 494 q 701 492 689 494 q 725 473 713 490 q 738 421 738 456 q 733 380 738 396 q 716 358 728 364 q 694 350 704 351 q 664 349 683 349 l 397 349 q 451 264 418 283 q 526 244 485 244 z "},"":{"ha":1167,"x_min":21,"x_max":1111,"o":"m 1018 881 q 1072 872 1051 881 q 1099 847 1092 864 q 1109 817 1107 829 q 1111 783 1111 806 l 1111 404 q 1108 366 1111 379 q 1087 342 1106 353 q 1031 331 1068 331 q 968 341 989 331 q 944 365 947 351 q 940 403 940 378 l 940 539 q 838 456 885 456 q 790 476 815 456 q 751 518 765 497 l 738 539 l 738 408 q 736 376 738 386 q 726 353 735 365 q 699 335 718 340 q 647 331 681 331 q 600 335 618 331 q 575 353 582 340 q 567 375 568 365 q 565 404 565 385 q 567 799 567 535 q 569 833 567 818 q 594 865 572 847 q 656 882 615 882 q 693 874 676 882 q 717 860 710 867 l 724 853 l 839 690 l 949 846 q 1018 881 974 881 m 456 881 q 482 879 474 881 q 501 870 490 878 q 517 845 513 863 q 521 797 521 828 q 507 736 521 757 q 456 715 493 715 l 358 715 l 358 404 q 356 376 358 386 q 347 354 354 367 q 322 336 340 342 q 272 331 303 331 q 224 337 243 331 q 198 356 206 343 q 188 378 190 368 q 186 406 186 389 l 186 715 l 90 715 q 65 717 74 715 q 44 725 57 718 q 26 750 32 732 q 21 797 21 768 q 26 845 21 826 q 43 871 32 864 q 62 879 54 878 q 85 881 69 881 l 456 881 z "},"":{"ha":807,"x_min":35,"x_max":772,"o":"m 667 268 l 138 268 q 100 270 113 268 q 69 281 88 272 q 43 315 51 290 q 35 382 35 340 q 43 446 35 421 q 69 480 51 471 q 101 491 88 489 q 139 493 114 493 l 668 493 q 706 491 693 493 q 738 479 719 489 q 764 445 756 469 q 772 381 772 421 q 765 315 772 340 q 739 281 757 290 q 708 270 721 272 q 667 268 694 268 z "},"":{"ha":1115,"x_min":21,"x_max":1094,"o":"m 974 732 q 1022 729 1006 732 q 1058 716 1038 726 q 1086 679 1078 706 q 1094 608 1094 653 q 1085 541 1094 567 q 1057 504 1076 515 q 1020 490 1038 493 q 972 488 1003 488 l 883 493 l 883 121 q 881 74 883 90 q 867 37 878 57 q 830 8 857 17 q 760 0 803 0 q 691 9 717 0 q 654 38 665 18 q 641 75 643 58 q 639 124 639 92 l 639 492 q 529 488 572 488 l 393 493 l 393 121 q 390 74 393 90 q 377 37 388 57 q 340 8 367 17 q 269 0 313 0 q 201 9 226 0 q 164 38 175 18 q 151 75 153 58 q 149 124 149 92 l 149 492 q 99 488 122 488 q 41 511 61 488 q 21 610 21 535 q 28 674 21 649 q 48 711 35 700 q 74 726 61 722 q 103 729 86 729 l 149 724 l 149 797 q 225 991 149 904 q 446 1078 301 1078 q 494 1076 478 1078 q 531 1063 510 1074 q 560 1026 551 1053 q 568 956 568 1000 q 561 897 568 921 q 544 860 554 872 q 516 842 535 849 q 484 835 497 836 q 444 835 471 835 q 393 800 393 835 l 393 724 q 522 729 468 729 l 639 724 l 639 797 q 715 991 639 904 q 936 1078 792 1078 q 985 1076 969 1078 q 1021 1063 1000 1074 q 1050 1026 1042 1053 q 1058 956 1058 1000 q 1051 897 1058 921 q 1035 860 1044 872 q 1006 842 1025 849 q 974 835 988 836 q 935 835 961 835 q 883 800 883 835 l 883 724 l 974 732 z "},"":{"ha":985,"x_min":21,"x_max":929,"o":"m 483 731 q 531 728 515 731 q 567 715 547 725 q 596 678 588 704 q 604 607 604 651 q 595 540 604 565 q 567 503 586 514 q 530 489 547 492 q 482 486 513 486 l 393 492 l 393 119 q 390 72 393 89 q 377 35 388 56 q 340 7 367 15 q 269 -1 313 -1 q 201 8 226 -1 q 164 37 175 17 q 151 74 153 57 q 149 122 149 90 l 149 490 l 99 490 q 69 495 81 492 q 44 510 57 499 q 26 547 32 522 q 21 608 21 571 q 103 722 21 722 l 149 722 l 149 796 q 225 990 149 903 q 446 1076 301 1076 q 494 1074 478 1076 q 531 1062 510 1072 q 560 1025 551 1051 q 568 954 568 999 q 561 895 568 919 q 544 859 554 871 q 516 841 535 847 q 484 834 497 835 q 444 833 471 833 q 393 799 393 833 l 393 722 l 483 731 m 686 610 q 688 658 686 642 q 701 694 690 674 q 738 722 711 714 q 808 731 764 731 q 867 724 843 731 q 903 707 892 717 q 922 678 915 697 q 928 647 928 660 q 929 607 929 633 l 929 121 q 927 73 929 89 q 915 37 925 57 q 878 8 904 17 q 807 0 851 0 q 738 8 764 0 q 701 38 711 17 q 688 74 690 58 q 686 122 686 89 l 686 610 m 807 831 q 738 839 764 831 q 701 868 711 847 q 688 905 690 889 q 686 953 686 921 q 688 1001 686 985 q 701 1037 690 1017 q 738 1065 711 1057 q 808 1074 764 1074 q 878 1065 851 1074 q 915 1036 904 1057 q 927 999 925 1015 q 929 951 929 983 q 927 903 929 919 q 915 867 925 888 q 878 839 904 847 q 807 831 851 831 z "},"":{"ha":1075,"x_min":21,"x_max":1054,"o":"m 483 731 q 531 728 515 731 q 567 715 547 725 q 596 678 588 704 q 604 607 604 651 q 595 540 604 565 q 567 503 586 514 q 530 489 547 492 q 482 486 513 486 l 393 492 l 393 119 q 390 72 393 89 q 377 35 388 56 q 340 7 367 15 q 269 -1 313 -1 q 201 8 226 -1 q 164 37 175 17 q 151 74 153 57 q 149 122 149 90 l 149 490 l 99 490 q 69 495 81 492 q 44 510 57 499 q 26 547 32 522 q 21 608 21 571 q 103 722 21 722 l 149 722 l 149 796 q 225 990 149 903 q 446 1076 301 1076 q 494 1074 478 1076 q 531 1062 510 1072 q 560 1025 551 1051 q 568 954 568 999 q 561 895 568 919 q 544 859 554 871 q 516 841 535 847 q 484 834 497 835 q 444 833 471 833 q 393 799 393 833 l 393 722 l 483 731 m 676 954 q 678 1002 676 986 q 691 1039 681 1018 q 728 1068 701 1060 q 799 1076 754 1076 q 867 1067 842 1076 q 904 1038 893 1058 q 917 1001 915 1018 q 919 953 919 985 l 919 310 q 928 247 919 260 q 974 233 936 233 q 1003 231 993 233 q 1027 219 1013 229 q 1048 185 1042 210 q 1054 121 1054 161 q 1048 51 1054 78 q 1027 15 1042 25 q 1002 2 1013 4 q 972 0 992 0 q 854 6 899 0 q 772 27 810 11 q 715 76 733 43 q 686 161 696 110 q 676 293 676 213 l 676 954 z "},"":{"ha":1471,"x_min":21,"x_max":1415,"o":"m 974 732 q 1022 729 1006 732 q 1058 716 1038 726 q 1086 679 1078 706 q 1094 608 1094 653 q 1085 541 1094 567 q 1057 504 1076 515 q 1020 490 1038 493 q 972 488 1003 488 l 883 493 l 883 121 q 881 74 883 90 q 867 37 878 57 q 830 8 857 17 q 760 0 803 0 q 691 9 717 0 q 654 38 665 18 q 641 75 643 58 q 639 124 639 92 l 639 492 q 528 488 571 488 l 393 493 l 393 121 q 390 74 393 90 q 377 37 388 57 q 340 8 367 17 q 269 0 313 0 q 201 9 226 0 q 164 38 175 18 q 151 75 153 58 q 149 124 149 92 l 149 492 q 99 488 121 488 q 41 511 61 488 q 21 610 21 535 q 28 674 21 649 q 48 711 35 700 q 74 726 61 722 q 103 729 86 729 l 149 724 l 149 797 q 225 991 149 904 q 446 1078 301 1078 q 494 1076 478 1078 q 531 1063 510 1074 q 560 1026 551 1053 q 568 956 568 1000 q 561 897 568 921 q 544 860 554 872 q 516 842 535 849 q 484 835 497 836 q 444 835 471 835 q 393 800 393 835 l 393 724 q 521 729 467 729 l 639 724 l 639 797 q 715 991 639 904 q 936 1078 792 1078 q 985 1076 969 1078 q 1021 1063 1000 1074 q 1050 1026 1042 1053 q 1058 956 1058 1000 q 1051 897 1058 921 q 1035 860 1044 872 q 1006 842 1025 849 q 974 835 988 836 q 935 835 961 835 q 883 800 883 835 l 883 724 l 974 732 m 1364 833 q 1351 829 1364 833 q 1294 825 1338 825 q 1225 833 1251 825 q 1188 863 1199 842 q 1176 899 1178 883 q 1174 947 1174 915 q 1176 995 1174 979 q 1188 1031 1178 1011 q 1225 1058 1199 1050 q 1296 1067 1251 1067 q 1365 1058 1339 1067 q 1401 1030 1390 1050 q 1413 994 1411 1010 q 1415 946 1415 978 q 1413 898 1415 914 q 1401 862 1411 882 q 1364 833 1390 842 m 1296 726 q 1365 718 1339 726 q 1401 689 1390 710 q 1413 652 1411 668 q 1415 603 1415 636 l 1415 119 q 1413 72 1415 88 q 1401 37 1411 57 q 1364 8 1390 17 q 1294 0 1338 0 q 1225 8 1251 0 q 1188 37 1199 17 q 1176 73 1178 57 q 1174 121 1174 89 l 1174 606 q 1176 653 1174 638 q 1188 690 1178 669 q 1225 718 1199 710 q 1296 726 1251 726 z "}}}
